<svg width="297" height="138" viewBox="0 0 297 138" fill="none" xmlns="http://www.w3.org/2000/svg">
<rect x="4" y="4" width="289" height="129.999" rx="16" fill="url(#paint0_linear_817_2030)" fill-opacity="0.1"/>
<rect x="2" y="2" width="293" height="133.999" rx="18" stroke="white" stroke-opacity="0.3" stroke-width="4"/>
<path d="M115.271 88.917H61.7129L88.417 42.957L115.271 88.917Z" stroke="#02D5FB" stroke-width="6"/>
<path d="M101.363 88.998H75.623L88.457 66.1172L101.363 88.998Z" stroke="#FA6565" stroke-width="6"/>
<path d="M88.4102 47.0527C102.478 47.0527 113.884 58.4572 113.884 72.5254C113.884 78.7709 111.639 84.4861 107.908 88.918H103.276L103.322 88.998H73.6621L73.708 88.918H68.9131C65.1826 84.4861 62.9375 78.7709 62.9375 72.5254C62.9377 58.4573 74.3421 47.053 88.4102 47.0527Z" stroke="#02D5FB" stroke-width="6"/>
<path d="M100.416 94.999C96.8391 96.914 92.7525 97.999 88.4111 97.999C84.0699 97.999 79.984 96.9139 76.4072 94.999H100.416Z" stroke="#FA6565" stroke-width="6"/>
<path d="M153.058 75.572H140.594L138.048 81.5H132.082L144.394 54.71H149.144L161.456 81.5H155.604L153.058 75.572ZM151.12 71.088L146.826 61.056L142.532 71.088H151.12ZM188.157 54.71L176.111 81.5H171.361L159.277 54.71H165.433L173.793 74.128L182.153 54.71H188.157ZM191.712 54.71H210.18V59.308H197.488V65.578H209.42V70.176H197.488V76.902H210.18V81.5H191.712V54.71ZM239.013 81.5H232.553L227.917 72.95C227.537 72.2913 227.081 71.8227 226.549 71.544C226.017 71.24 225.346 71.088 224.535 71.088H221.609V81.5H215.757V54.71H228.069C231.21 54.71 233.579 55.4067 235.175 56.8C236.796 58.168 237.607 60.1567 237.607 62.766C237.607 64.7927 237.037 66.49 235.897 67.858C234.782 69.226 233.199 70.1253 231.147 70.556C232.54 70.9107 233.718 71.9113 234.681 73.558L239.013 81.5ZM227.195 66.604C228.892 66.604 230.121 66.3127 230.881 65.73C231.641 65.122 232.021 64.1847 232.021 62.918C232.021 61.626 231.641 60.6887 230.881 60.106C230.121 59.5233 228.892 59.232 227.195 59.232H221.533V66.604H227.195Z" fill="#F2F7F7"/>
<defs>
<linearGradient id="paint0_linear_817_2030" x1="309.5" y1="108.498" x2="3.99999" y2="3.99806" gradientUnits="userSpaceOnUse">
<stop stop-color="white"/>
<stop offset="1" stop-color="white"/>
</linearGradient>
</defs>
</svg>
