<svg width="229" height="58" viewBox="0 0 229 58" fill="none" xmlns="http://www.w3.org/2000/svg">
<g clip-path="url(#clip0_974_140)">
<path d="M100.866 44.0029C105.529 43.9638 110.017 44.3329 114.696 44.3336C120.505 44.3345 126.407 43.9818 132.23 44.0475C138.019 44.1132 143.837 44.2076 149.636 44.3239C155.441 44.4402 161.238 44.5785 167.046 44.7316C172.842 44.8847 178.65 45.0527 184.45 45.229C188.39 45.3487 192.335 45.4724 196.274 45.5975C198.003 45.6523 199.728 45.7074 201.456 45.7627C202.745 45.8041 204.035 45.8454 205.324 45.8868C205.504 45.8926 205.675 45.9162 205.802 45.9538C205.929 45.9914 206 46.0395 206 46.0893C206 46.1391 205.928 46.1873 205.801 46.2248C205.674 46.2621 205.502 46.2855 205.322 46.2911C204.022 46.3311 202.722 46.3712 201.421 46.4112C199.977 46.4556 198.535 46.5001 197.091 46.5443C196.864 46.3401 196.552 46.1852 195.967 46.1168C195.669 46.0819 195.234 46.0674 194.913 46.1054C194.625 46.1395 194.409 46.2002 194.203 46.2582C193.988 46.3188 193.783 46.3763 193.52 46.3966C193.074 46.4311 192.65 46.5178 192.205 46.6089C192.043 46.642 191.878 46.6758 191.708 46.7078C190.329 46.7493 188.951 46.7905 187.573 46.8314C187.04 46.8096 186.551 46.792 186.135 46.8004C185.763 46.8079 185.422 46.8511 185.082 46.9047C184.869 46.911 184.656 46.9172 184.442 46.9235C183.065 46.9637 181.687 47.0032 180.31 47.0424C179.235 46.9879 178.108 46.935 176.643 46.9118C176.012 46.9018 175.389 46.8723 174.79 46.844C173.906 46.8023 173.074 46.763 172.344 46.7924C171.857 46.812 171.344 46.7831 170.832 46.7544C170.146 46.7158 169.461 46.6772 168.84 46.7558C168.45 46.8052 168.092 46.8653 167.759 46.9211C167.231 47.0097 166.77 47.0873 166.352 47.0926C165.566 47.1026 164.886 47.1672 164.287 47.2242C163.566 47.2928 162.961 47.3503 162.43 47.2883C162.35 47.2789 162.258 47.2664 162.154 47.2522C161.607 47.1774 160.733 47.0578 159.478 47.1236C159.031 47.147 158.612 47.2079 158.201 47.2676C157.602 47.3546 157.021 47.439 156.399 47.4014C156.306 47.3958 156.209 47.3722 156.121 47.3507C156.008 47.3233 155.91 47.2995 155.852 47.3202C155.682 47.3812 155.411 47.4485 155.117 47.5218C154.901 47.5756 154.672 47.6327 154.461 47.6926C152.848 47.7265 151.236 47.7589 149.623 47.7896C148.884 47.8037 148.145 47.8174 147.405 47.8308C147.027 47.7391 146.641 47.6564 146.232 47.5939C145.698 47.5122 145.006 47.4872 144.114 47.4548C143.458 47.4309 142.692 47.403 141.802 47.3458C140.154 47.24 138.461 47.2637 137.376 47.3205C137.147 47.3325 136.916 47.3453 136.669 47.3592C135.734 47.4121 134.566 47.4783 132.348 47.5513C130.25 47.6203 128.466 47.6382 127.126 47.6517C126.442 47.6585 125.873 47.6641 125.437 47.6748C124.692 47.6932 123.776 47.7096 122.857 47.726C121.419 47.7516 119.972 47.7773 119.153 47.8116C118.861 47.8237 118.555 47.8388 118.225 47.8549C117.309 47.8996 116.202 47.9535 114.678 47.9846C113.077 48.0173 112.085 47.995 111.054 47.9466C110.635 47.9269 110.266 47.8491 109.885 47.7687C109.345 47.6546 108.781 47.5355 108.019 47.571C107.841 47.5793 107.651 47.5979 107.452 47.6173C107.087 47.6531 106.693 47.6918 106.289 47.6748C106.148 47.6689 106.024 47.6478 105.902 47.6271C105.768 47.6043 105.637 47.582 105.488 47.5808C104.933 47.5761 104.392 47.5814 103.912 47.5861C103.293 47.5922 102.774 47.5973 102.451 47.5788C101.877 47.5459 101.249 47.5754 100.613 47.6054C100.127 47.6283 99.6364 47.6516 99.1612 47.6473C97.8036 47.6349 95.9364 47.6911 94.0125 47.7847C93.2846 47.8202 92.6678 47.7718 91.8776 47.7097C91.3861 47.6711 90.8274 47.6269 90.1329 47.5947C89.7392 47.5764 89.4057 47.6194 89.097 47.6592C88.8126 47.6959 88.549 47.7298 88.2785 47.7107C88.0397 47.6937 87.8887 47.6213 87.7453 47.5525C87.5857 47.4759 87.4355 47.4039 87.1843 47.418C87.0507 47.4254 86.8882 47.4617 86.6949 47.5047C86.6184 47.5218 86.5368 47.5398 86.4505 47.5576C86.4549 47.5429 86.456 47.5298 86.456 47.5198C86.4563 47.4496 86.2 47.4125 85.9485 47.3763C85.8481 47.3618 85.7481 47.3475 85.666 47.3312C85.3637 47.2712 84.7912 47.2614 84.3538 47.2642C84.1687 47.2653 84.001 47.2436 83.8053 47.2181C83.6316 47.1955 83.4357 47.1701 83.186 47.1553C83.0436 47.1468 82.9342 47.1264 82.8437 47.1094C82.7783 47.0971 82.7225 47.0866 82.6709 47.0838C82.6261 47.0815 82.59 47.1016 82.5494 47.1243C82.5201 47.1406 82.4884 47.1583 82.4494 47.1699C82.3562 47.1975 82.2363 47.2058 82.1522 47.1969C82.1134 47.1928 82.0827 47.185 82.0523 47.1772C82.0168 47.1681 81.9815 47.1589 81.9328 47.1557C81.7096 47.1411 81.4926 47.164 81.267 47.1879C81.0192 47.2141 80.7606 47.2414 80.4728 47.2211C80.3822 47.2146 80.2857 47.2 80.1923 47.1857C80.0945 47.1708 79.9995 47.1564 79.9188 47.1526C79.5908 47.137 79.2825 47.1873 78.9989 47.2335C78.8102 47.2642 78.6322 47.2931 78.467 47.2998C78.1642 47.3119 78.0016 47.3722 77.8818 47.4167C77.8197 47.4398 77.769 47.4588 77.7158 47.4645C77.6671 47.4628 77.6177 47.4608 77.5694 47.4587C77.525 47.4542 77.4791 47.4497 77.4361 47.4511C77.4328 47.4512 77.4296 47.4515 77.4263 47.4516C77.1555 47.437 76.8895 47.4162 76.6251 47.3955C76.0314 47.3491 75.445 47.3031 74.8249 47.329C74.6913 47.3346 74.5551 47.3595 74.4167 47.3848C74.247 47.4158 74.0734 47.4475 73.8967 47.4453C73.4753 47.4398 73.0499 47.3987 72.631 47.3583C72.0009 47.2974 71.3851 47.2379 70.8189 47.3032C70.6321 47.3247 70.4498 47.3606 70.267 47.3968C70.1651 47.4169 70.0627 47.4372 69.9594 47.455C69.9813 47.422 69.993 47.391 70.0039 47.3622C70.0263 47.3026 70.0456 47.2517 70.1448 47.2084C70.3793 47.1061 70.645 46.9653 70.6155 46.8626C70.6075 46.8347 70.614 46.8036 70.6211 46.7724C70.6388 46.694 70.6569 46.6139 70.4392 46.5777C70.2924 46.5533 69.9154 46.4972 69.6755 46.5572C69.6233 46.5703 69.5915 46.5962 69.5561 46.6249C69.4925 46.6767 69.4168 46.7379 69.1895 46.7522C69.1512 46.7546 69.1096 46.7567 69.0666 46.7587C68.8951 46.7668 68.7031 46.7757 68.6313 46.8172C68.5486 46.8651 68.5663 46.92 68.5869 46.9839C68.6136 47.0672 68.6455 47.1662 68.4674 47.2854C68.4321 47.309 68.3648 47.317 68.314 47.3232C68.2782 47.3275 68.2508 47.3309 68.2481 47.338C68.245 47.3462 68.2564 47.3631 68.271 47.3846C68.3223 47.4602 68.4115 47.5925 68.0391 47.5981C67.9383 47.5996 67.8231 47.5933 67.7197 47.5876C67.5674 47.5792 67.4409 47.5723 67.424 47.5939C67.4176 47.6021 67.4131 47.611 67.4094 47.6202C67.2881 47.6176 67.1668 47.615 67.0456 47.6124C66.89 47.5867 66.6717 47.5889 66.3992 47.5917C66.3331 47.5924 66.2634 47.5931 66.1909 47.5934C65.9517 47.5881 65.7123 47.5828 65.473 47.5774C65.2834 47.5664 65.0815 47.5486 64.8683 47.5203C64.4413 47.4637 64.0698 47.3702 63.7068 47.2788C63.5539 47.2403 63.4023 47.2021 63.2486 47.1672C63.3085 47.1629 63.3625 47.1578 63.4041 47.1509C63.6888 47.1031 63.8031 47.0092 63.9082 46.9228C63.978 46.8653 64.044 46.811 64.1532 46.776C64.3532 46.712 64.3332 46.637 64.3185 46.5816C64.3109 46.5528 64.3051 46.5293 64.3317 46.5153C64.3531 46.5041 64.4027 46.4988 64.4539 46.4933C64.4984 46.4886 64.5445 46.4836 64.574 46.4746C64.9316 46.3649 64.8241 46.3012 64.6677 46.2085C64.5815 46.1573 64.4807 46.0973 64.4344 46.0159C64.3947 45.9297 64.4081 45.9045 64.5955 45.8702C64.4495 45.8276 64.3034 45.7851 64.1574 45.7425C64.1001 45.7453 64.0567 45.7719 63.9956 45.8161C63.8866 45.8951 63.5316 45.9239 63.2542 45.9465C63.1257 45.9569 63.0139 45.966 62.9508 45.9782C62.6151 46.0425 62.7128 46.1322 62.7987 46.2111C62.846 46.2546 62.8896 46.2948 62.8556 46.3257C62.8412 46.3389 62.8619 46.352 62.8827 46.3654C62.8988 46.3757 62.9154 46.3863 62.916 46.3971C62.9204 46.4757 62.7219 46.534 62.5377 46.5881C62.4322 46.6192 62.3315 46.6489 62.2759 46.6803C62.259 46.6898 62.2455 46.6996 62.2329 46.709C62.2144 46.7228 62.1965 46.736 62.1683 46.7473C62.1042 46.773 61.9722 46.7903 61.8274 46.8092C61.7532 46.8189 61.6757 46.829 61.6025 46.8409C61.5075 46.8563 61.4734 46.8874 61.4372 46.9198C61.4117 46.9428 61.385 46.9664 61.3359 46.9859C61.2469 47.0211 61.0673 47.0338 60.9006 47.0456C60.828 47.0507 60.7577 47.0558 60.6985 47.0624C60.6744 47.0651 60.6629 47.0704 60.6604 47.0778C60.3867 47.1023 60.1253 47.1275 59.871 47.1521C58.5957 47.2755 57.4919 47.3824 55.8435 47.3049C55.5319 47.2902 55.1972 47.2932 54.859 47.3049C53.7772 47.2741 52.6947 47.2422 51.6133 47.2096C51.3992 47.1388 51.1374 47.0793 50.8274 47.0327C50.2452 46.9451 49.6463 46.9263 48.9396 46.9042C48.4172 46.8879 47.8357 46.8696 47.1581 46.8204C46.0197 46.7377 44.8509 46.6677 43.532 46.6313C42.2188 46.5951 40.7153 46.5684 39.6517 46.5589C39.0718 46.5537 38.4628 46.4904 37.8952 46.4314C37.0967 46.3485 36.3803 46.2742 35.9429 46.382C35.8032 46.4164 35.6681 46.4762 35.5367 46.5343C35.4431 46.5757 35.3508 46.6161 35.2604 46.6462C35.0196 46.6368 34.7786 46.6276 34.5377 46.6181C34.1096 46.5463 33.4443 46.4693 32.8013 46.5494C32.5528 46.5395 32.3041 46.5297 32.064 46.5197C31.54 46.4988 31.0275 46.4776 30.5102 46.4563C30.3414 46.4493 30.1708 46.4422 29.9999 46.4351C29.9983 46.435 29.9967 46.4349 29.995 46.4349C29.651 46.4206 29.3043 46.4062 28.9634 46.3917C28.8173 46.3855 28.6713 46.3794 28.5253 46.3732C28.1542 46.3575 27.7804 46.3418 27.413 46.3259C27.2186 46.3175 27.0223 46.3091 26.8257 46.3006C26.5067 46.2868 26.1853 46.2729 25.8655 46.2589C25.3484 46.2363 24.8337 46.2135 24.318 46.1904C24.2336 46.1866 24.1526 46.1747 24.093 46.1565C24.0335 46.1384 23.9999 46.1157 24 46.0922C24.0001 46.0688 24.034 46.046 24.0937 46.0279C24.1534 46.0099 24.2344 45.9982 24.3187 45.9945C24.8347 45.9721 25.3501 45.9499 25.8676 45.928C26.1874 45.9144 26.5087 45.9007 26.8278 45.8873C27.0245 45.879 27.2206 45.8708 27.4151 45.8626C27.7825 45.8472 28.1569 45.8318 28.528 45.8166C28.6741 45.8106 28.8201 45.8046 28.9661 45.7985C29.308 45.7845 29.6556 45.7705 30.0006 45.7566C30.0027 45.7565 30.0048 45.7565 30.0068 45.7564C30.1766 45.7495 30.346 45.7427 30.5137 45.7359C31.0311 45.7152 31.544 45.6947 32.0681 45.6745C32.3389 45.6636 32.6211 45.6529 32.9013 45.6421C33.0572 45.6361 33.2129 45.63 33.3657 45.624C33.4493 45.6209 33.534 45.6177 33.6191 45.6145C35.5734 45.5396 37.514 45.4675 39.4726 45.3984C41.4238 45.3292 43.3785 45.2629 45.3273 45.1993C47.2809 45.1356 49.2311 45.0747 51.1828 45.0162C63.5695 44.6451 76.0057 44.3408 88.4472 44.1504C90.2218 44.123 92.0427 44.0984 93.8209 44.0763C95.6185 44.0542 97.3791 44.0346 99.1814 44.0178C99.7288 44.0125 100.29 44.0076 100.866 44.0029Z" fill="#00BFC7"/>
</g>
<defs>
<clipPath id="clip0_974_140">
<rect width="229" height="58" fill="white"/>
</clipPath>
</defs>
</svg>
