<svg width="735" height="64" viewBox="0 0 735 64" fill="none" xmlns="http://www.w3.org/2000/svg">
<path d="M63.5733 29.4509C63.8173 29.4599 63.9985 29.4704 64.1812 29.4704C65.135 29.4718 66.0904 29.4719 67.0442 29.4719C67.173 29.4719 67.3018 29.4659 67.429 29.4763C67.9022 29.5153 68.2541 29.8791 68.2661 30.3388C68.278 30.7911 67.9411 31.1849 67.474 31.2478C67.2928 31.2717 67.1071 31.2672 66.9244 31.2672C64.2636 31.2687 61.6012 31.2687 58.9403 31.2687C39.8696 31.2687 20.8004 31.2702 1.72965 31.2702C1.41819 31.2702 1.10373 31.2837 0.795272 31.2493C0.275679 31.1938 -0.0537451 30.7506 0.0106425 30.24C0.0615537 29.8417 0.367019 29.5303 0.766822 29.4823C0.912068 29.4644 1.06031 29.4718 1.20705 29.4704C2.16089 29.4704 3.11622 29.4719 4.07006 29.4689C4.25124 29.4689 4.43093 29.4569 4.63308 29.4494C4.65704 29.2997 4.68249 29.1784 4.69597 29.0556C4.78581 28.1991 4.83672 27.3351 4.96849 26.4846C5.5944 22.4431 7.20709 18.8284 9.75864 15.636C11.554 13.3899 13.7028 11.5481 16.1914 10.1016C16.3187 10.0283 16.446 9.9564 16.5762 9.88752C16.6242 9.86206 16.6766 9.85009 16.7589 9.82164C16.8353 9.93693 16.9206 10.0522 16.991 10.1765C17.0524 10.2843 17.0958 10.4026 17.1617 10.5479C17.009 10.6467 16.8787 10.7395 16.7395 10.8204C14.2149 12.2803 12.0451 14.1521 10.2573 16.4566C7.92733 19.4588 6.4524 22.8354 5.85345 26.5939C5.71419 27.4654 5.64531 28.3413 5.5944 29.2203C5.59141 29.2727 5.61237 29.3266 5.62585 29.4105C5.72318 29.4284 5.825 29.4569 5.92832 29.4659C6.03763 29.4763 6.14844 29.4689 6.25924 29.4689C11.9119 29.4689 17.566 29.4674 23.2187 29.4674C23.3654 29.4674 23.5106 29.4674 23.6484 29.4674C23.7203 29.3281 23.6229 29.2967 23.5511 29.2472C22.9911 28.8639 22.4295 28.4836 21.874 28.0943C21.7557 28.0104 21.6434 27.9086 21.5521 27.7963C21.3095 27.4953 21.3095 27.1419 21.5416 26.832C21.7482 26.5549 22.0372 26.3887 22.3636 26.3139C22.6482 26.248 22.9431 26.2061 23.2336 26.2031C25.2521 26.1761 27.2706 26.1656 29.2891 26.1432C32.5189 26.1072 35.7488 26.0698 38.9772 26.0294C41.4718 25.9979 43.968 25.962 46.4626 25.9305C46.7007 25.9275 46.9403 25.9335 47.1769 25.9545C47.5123 25.9844 47.8207 26.1042 48.0843 26.3169C48.547 26.6897 48.5739 27.1734 48.1517 27.5941C47.9959 27.7484 47.8297 27.8981 47.6485 28.0224C47.0601 28.4282 46.4626 28.822 45.8696 29.2203C45.7978 29.2682 45.7274 29.3206 45.6525 29.373C45.6959 29.4164 45.7184 29.4584 45.7424 29.4584C47.5317 29.5332 62.0863 29.4928 62.576 29.4135C62.7467 28.0119 62.1732 24.5439 61.119 21.9235C60.1502 19.5172 58.822 17.3355 57.1045 15.3904C55.3885 13.4468 53.3865 11.8551 51.1135 10.5958C51.121 10.2798 51.3216 10.0822 51.4564 9.82912C51.657 9.85607 51.8038 9.96688 51.9565 10.0552C55.2927 11.9869 57.991 14.5818 60.0439 17.8446C61.6461 20.3917 62.6943 23.1559 63.2139 26.1162C63.3471 26.8739 63.4026 27.645 63.4879 28.4102C63.5253 28.7396 63.5433 29.0676 63.5733 29.4509Z" fill="white"/>
<path d="M23.8041 4.74984C23.8145 4.69744 23.8265 4.67647 23.8205 4.6615C23.7741 4.52823 23.6603 4.39646 23.7981 4.2587C23.9478 4.11046 24.111 3.99666 24.3311 4.13592C24.3581 4.15239 24.4 4.1434 24.4689 4.15089C25.583 3.19106 26.8288 2.39146 28.2124 1.77004C28.2214 1.6218 28.2184 1.47955 28.2393 1.34029C28.2693 1.15162 28.3921 1.05729 28.5807 1.04681C28.8697 1.03034 29.1123 1.16061 29.3579 1.31484C30.3911 0.980919 31.4378 0.717382 32.5054 0.602083C32.6881 0.435873 32.8438 0.250197 33.037 0.124416C33.3724 -0.0912076 33.5326 -0.0298156 33.7273 0.33405C33.7527 0.380469 33.7797 0.425391 33.8231 0.503255C34.2154 0.503255 34.6167 0.50026 35.0195 0.503255C36.4765 0.515234 37.9065 0.715886 39.3035 1.13665C39.4563 1.18307 39.6255 1.18007 39.7872 1.18906C39.9145 1.19654 40.0432 1.17708 40.1705 1.18906C40.3816 1.20852 40.5673 1.28489 40.6482 1.50201C40.6901 1.61282 40.753 1.68919 40.8608 1.7386C41.7128 2.13541 42.4945 2.64452 43.2297 3.25995C43.3495 3.20454 43.4588 3.14464 43.5741 3.10272C43.7553 3.03534 43.9155 3.16411 43.878 3.35428C43.8586 3.4576 43.7957 3.55343 43.7388 3.68071C43.7792 3.73911 43.8211 3.82146 43.8825 3.88435C45.1943 5.24698 46.0627 6.86566 46.6542 8.64605C46.7815 9.02788 46.8953 9.41571 46.9956 9.80653C47.0899 10.1764 46.9537 10.3591 46.5718 10.4085C46.4625 10.4234 46.3517 10.4234 46.2424 10.4309C44.5953 10.5358 42.9482 10.6421 41.301 10.7454C39.874 10.8352 38.4455 10.9161 37.0185 11.0074C35.6274 11.0973 34.2379 11.1961 32.8468 11.2889C32.2059 11.3309 31.5665 11.3683 30.9256 11.4072C29.4432 11.4971 27.9593 11.5824 26.4769 11.6738C25.3059 11.7456 24.129 11.7786 22.964 11.9104C21.3933 12.0885 20.2373 10.4399 20.8527 8.92606C21.0653 8.40347 21.3663 7.91233 21.6613 7.42718C22.1779 6.57816 22.8023 5.81 23.4866 5.08826C23.6034 4.96697 23.7142 4.84717 23.8041 4.74984ZM33.8306 4.085C33.8171 3.80499 33.6045 3.63878 33.3454 3.73611C33.1792 3.79901 33.016 3.89933 32.8887 4.02062C32.6806 4.21827 32.7989 4.58963 33.0804 4.67647C33.4128 4.78129 33.847 4.43988 33.8306 4.085ZM35.2711 5.16013C34.997 5.14815 34.8428 5.18708 34.7664 5.36377C34.6856 5.54945 34.75 5.77705 34.9132 5.90284C35.1004 6.04808 35.313 6.06905 35.5331 6.00316C35.7068 5.95225 35.8146 5.78005 35.8176 5.58239C35.8191 5.4057 35.7368 5.28292 35.5466 5.22003C35.4253 5.1796 35.298 5.16612 35.2711 5.16013ZM43.7208 6.6096C43.9963 6.60062 44.161 6.46436 44.1955 6.23076C44.2299 5.98968 44.1236 5.84294 43.8436 5.76807C43.7403 5.73962 43.6295 5.72315 43.5217 5.72465C43.1892 5.72764 43.0155 6.04808 43.1818 6.34007C43.306 6.56019 43.5142 6.60361 43.7208 6.6096ZM30.2458 5.71117C30.6606 5.70967 30.9541 5.35629 30.8478 4.98793C30.7924 4.79327 30.6097 4.67198 30.4285 4.74535C30.2623 4.81124 30.1006 4.90557 29.9613 5.01638C29.8056 5.13917 29.7891 5.2949 29.8625 5.45811C29.9374 5.62432 30.0616 5.71267 30.2458 5.71117ZM25.6279 5.83396C25.6429 5.51052 25.3793 5.31736 25.0888 5.45212C24.9436 5.5195 24.7983 5.60935 24.686 5.72165C24.4944 5.91182 24.5842 6.25922 24.8328 6.35355C25.1742 6.48532 25.6114 6.19932 25.6279 5.83396ZM27.6973 2.94999C27.1642 2.89908 27.0848 3.227 27.1672 3.47707C27.281 3.81997 27.8171 3.94425 28.0806 3.69718C28.3202 3.47407 28.2468 3.10272 27.9398 2.9979C27.838 2.96496 27.7272 2.95598 27.6973 2.94999ZM35.6724 1.86887C35.2666 1.87786 35.0929 2.18632 35.2591 2.4843C35.3774 2.69693 35.6379 2.80025 35.9209 2.74634C36.141 2.70442 36.2653 2.56066 36.2773 2.33007C36.2878 2.12642 36.2054 2.00813 35.9778 1.93626C35.858 1.89882 35.7308 1.88235 35.6724 1.86887ZM31.288 2.60409C31.2775 2.57264 31.2715 2.49178 31.2311 2.43788C31.1218 2.29413 31.0125 2.1414 30.8732 2.02909C30.6411 1.84192 30.3447 1.97968 30.3027 2.27616C30.2578 2.60109 30.5049 2.95148 30.8223 3.01437C31.0305 3.0533 31.279 2.85565 31.288 2.60409ZM40.0732 4.48032C40.4655 4.4893 40.7844 4.11795 40.6856 3.76457C40.6302 3.56242 40.4745 3.46209 40.2738 3.50552C40.0717 3.54894 39.9055 3.65975 39.7662 3.80649C39.6539 3.92479 39.6464 4.06704 39.6973 4.21378C39.7542 4.374 39.9025 4.47732 40.0732 4.48032Z" fill="white"/>
<path d="M34.112 56.0325C23.1946 56.0325 12.2771 56.0325 1.35967 56.0325C1.19495 56.0325 1.02874 56.04 0.864027 56.028C0.359407 55.9921 0.00452794 55.6177 3.57747e-05 55.1341C-0.00445639 54.6264 0.414814 54.2386 0.858041 54.2371C1.06019 54.2371 1.26233 54.2326 1.46298 54.2326C17.6093 54.2311 33.7571 54.2311 49.9035 54.2296C55.4992 54.2296 61.0964 54.2251 66.6922 54.2236C66.8943 54.2236 67.0965 54.2311 67.2971 54.2236C67.8197 54.2057 68.2525 54.5576 68.2734 55.1281C68.2914 55.6342 67.8706 56.0205 67.3031 56.04C67.101 56.0475 66.8988 56.0415 66.6982 56.0415C57.7258 56.0385 48.7535 56.0355 39.7811 56.034C37.8914 56.034 36.0017 56.034 34.112 56.034V56.0325Z" fill="white"/>
<path d="M20.0126 19.7792C19.4166 19.4842 19.1516 19.005 19.0887 18.406C19.0588 18.1156 19.0588 17.8191 19.0752 17.5271C19.1217 16.6915 19.6982 16.0926 20.5292 16.0012C20.6924 15.9833 20.8586 15.9773 21.0233 15.9713C23.205 15.9114 25.3867 15.8545 27.5684 15.7901C29.1272 15.7437 30.6845 15.6853 32.2433 15.6359C33.0504 15.6104 33.8575 15.5984 34.6645 15.5745C37.1577 15.5026 39.6508 15.4277 42.144 15.3529C43.3539 15.3169 44.5638 15.281 45.7737 15.2421C46.1765 15.2301 46.5793 15.2106 46.9821 15.1971C47.9943 15.1627 48.5858 16.0237 48.6112 16.726C48.6202 16.982 48.6352 17.2396 48.6337 17.4956C48.6322 18.3926 47.9449 19.1323 47.0015 19.1428C45.5895 19.1577 44.1774 19.2221 42.7669 19.2596C42.5288 19.2655 42.2907 19.2416 42.0527 19.2356C41.87 19.2311 41.6813 19.2056 41.5046 19.2371C40.7769 19.3704 40.0432 19.3389 39.3109 19.3599C38.7973 19.3749 38.2837 19.3853 37.7701 19.4108C37.5979 19.4198 37.4467 19.3958 37.2955 19.312C36.4869 18.8642 35.6753 18.9212 34.8742 19.3284C34.6391 19.4482 34.4055 19.5096 34.1405 19.5156C33.0593 19.5396 31.9782 19.5785 30.8956 19.6159C30.6995 19.6234 30.5392 19.574 30.4165 19.4108C30.3401 19.309 30.2458 19.2191 30.1529 19.1293C29.8999 18.8852 29.6079 18.701 29.2859 18.5558C28.7708 18.3252 28.2812 18.3491 27.835 18.695C27.516 18.9406 27.2091 19.2057 26.926 19.4902C26.7299 19.6893 26.5277 19.7747 26.2477 19.7762C25.4227 19.7806 24.5976 19.8061 23.7725 19.8346C23.5524 19.842 23.3877 19.7821 23.247 19.607C23.1227 19.4497 22.9819 19.3 22.8277 19.1727C22.4189 18.8328 21.9577 18.7265 21.4396 18.8942C21.0668 19.014 20.7328 19.1967 20.4259 19.4348C20.2971 19.5396 20.1728 19.6474 20.0126 19.7792Z" fill="white"/>
<path d="M19.2549 23.4492C19.3118 23.3669 19.3657 23.274 19.4361 23.1947C20.2986 22.2169 21.3467 21.5535 22.6375 21.281C23.0882 21.1852 23.5135 21.2121 23.9222 21.4128C24.2681 21.582 24.6051 21.7677 24.948 21.9428C25.1606 22.0507 25.3717 22.16 25.5903 22.2543C25.9302 22.4025 26.2432 22.3337 26.5007 22.0746C26.6804 21.8934 26.8436 21.6928 26.9979 21.4891C27.1311 21.3139 27.2345 21.1178 27.3662 20.9411C27.498 20.7659 27.6358 20.5922 27.7915 20.438C28.2871 19.9453 28.7558 19.9483 29.226 20.426C29.6632 20.8707 30.1005 21.3154 30.5407 21.7587C30.7219 21.9413 30.8956 22.133 31.0947 22.2932C31.5335 22.6436 31.8898 22.6466 32.3436 22.3052C32.5472 22.151 32.7224 21.9608 32.9111 21.7856C33.3288 21.3993 33.7376 21.0055 34.1659 20.6311C34.4444 20.3871 34.7753 20.2253 35.1362 20.131C36.0241 19.9004 36.8073 20.1295 37.502 20.694C37.7431 20.8902 37.9453 21.1313 38.1684 21.3499C38.3645 21.543 38.5532 21.7437 38.7629 21.9204C39.2345 22.3172 39.7631 22.3546 40.3052 22.0911C40.6001 21.9473 40.8832 21.7707 41.1557 21.585C41.5794 21.296 41.9867 20.98 42.4075 20.685C42.6321 20.5278 42.8612 20.3721 43.1038 20.2433C43.571 19.9947 44.0307 20.0292 44.4409 20.3646C44.6955 20.5727 44.9321 20.8063 45.1522 21.0519C45.4831 21.4203 45.7871 21.8126 46.112 22.1854C46.2678 22.3651 46.437 22.5358 46.6166 22.69C46.8443 22.8862 47.1108 22.9251 47.3893 22.8068C47.5915 22.7215 47.7906 22.6257 47.9868 22.5253C48.451 22.2887 48.9481 22.1704 49.4632 22.115C49.6683 22.0926 49.8825 22.1016 50.0037 22.3007C50.134 22.5149 50.0606 22.726 49.9334 22.9191C49.4467 23.6514 48.8463 24.2563 48.0257 24.6097C47.8745 24.6741 47.7157 24.722 47.557 24.7684C46.976 24.9361 46.4684 24.7819 46.0252 24.3941C45.874 24.2623 45.7452 24.1036 45.6059 23.9583C45.3139 23.6544 45.0309 23.3399 44.7255 23.0494C44.5682 22.8997 44.3825 22.7739 44.1924 22.6676C43.9378 22.5253 43.6578 22.5148 43.4003 22.6571C43.1772 22.7799 42.96 22.9221 42.7684 23.0883C42.382 23.4253 42.0257 23.7996 41.6348 24.132C41.3159 24.4046 40.9745 24.6561 40.6271 24.8912C40.1988 25.1802 39.7302 25.1772 39.2555 25.008C38.8168 24.8508 38.4274 24.6112 38.11 24.2683C37.8599 24.0003 37.6293 23.7128 37.3793 23.4462C37.1921 23.2456 37.0004 23.0464 36.7863 22.8757C36.4269 22.5897 36.0107 22.5463 35.5914 22.7185C35.3398 22.8233 35.1062 22.976 34.8696 23.1138C34.3456 23.4163 33.8275 23.7292 33.3004 24.0242C33.1252 24.1215 32.932 24.1874 32.7419 24.2533C31.7551 24.5947 30.8626 24.3956 30.0555 23.7592C29.8549 23.6005 29.6752 23.4133 29.4835 23.2426C28.8292 22.6601 28.4788 22.6466 27.79 23.1752C27.6597 23.2755 27.5339 23.3848 27.4052 23.4882C26.5307 24.1844 25.5814 24.2848 24.5646 23.84C24.3969 23.7667 24.2352 23.6768 24.0705 23.5975C23.3323 23.2366 22.5881 23.2051 21.8454 23.5735C21.0053 23.9898 20.1758 23.8969 19.3477 23.5436C19.3163 23.5331 19.2983 23.4971 19.2549 23.4492Z" fill="white"/>
<path d="M34.5521 12.8194C35.5404 12.7924 36.5287 12.767 37.517 12.74C37.5903 12.7385 37.6637 12.7415 37.7371 12.7355C38.3091 12.6831 38.5277 12.9302 38.5487 13.5052C38.5547 13.6699 38.5606 13.8346 38.5592 13.9993C38.5547 14.5429 38.387 14.7301 37.8509 14.757C37.1741 14.7914 36.4973 14.8139 35.8204 14.8349C34.3575 14.8783 32.8915 14.8948 31.4301 14.9666C30.7203 15.0026 30.5062 14.6552 30.5392 14.1026C30.5496 13.92 30.5302 13.7358 30.5377 13.5531C30.5556 13.1413 30.7293 12.9571 31.1501 12.9362C31.8074 12.9032 32.4663 12.8808 33.1251 12.8643C33.6013 12.8538 34.0775 12.8628 34.5521 12.8628C34.5521 12.8478 34.5521 12.8329 34.5521 12.8194Z" fill="white"/>
<path d="M44.053 13.5516C43.0842 13.5816 42.1139 13.6115 41.1451 13.64C40.9804 13.6444 40.8142 13.6519 40.651 13.6385C40.368 13.6145 40.1583 13.4393 40.1329 13.1608C40.1014 12.8149 40.0999 12.466 40.1149 12.1186C40.1254 11.8581 40.3051 11.6844 40.5641 11.6409C40.6899 11.62 40.8187 11.6185 40.9475 11.614C42.1544 11.5766 43.3613 11.5406 44.5696 11.5032C45.4112 11.4777 46.2512 11.4478 47.0928 11.4238C47.2575 11.4193 47.4237 11.4118 47.5869 11.4283C47.8459 11.4538 48.0361 11.6215 48.0646 11.879C48.102 12.2055 48.1259 12.5364 48.117 12.8643C48.1065 13.2207 47.8998 13.4124 47.5105 13.4333C46.7978 13.4722 46.085 13.4977 45.3722 13.5172C44.9335 13.5291 44.4948 13.5187 44.0545 13.5187C44.053 13.5291 44.053 13.5396 44.053 13.5516Z" fill="white"/>
<path d="M24.7129 14.408C23.7471 14.4425 22.7948 14.4769 21.8424 14.5098C21.6598 14.5158 21.4756 14.5233 21.2929 14.5098C20.98 14.4889 20.7703 14.3077 20.7419 14.0022C20.7119 13.6743 20.7074 13.3434 20.7179 13.014C20.7269 12.722 20.8946 12.5498 21.1911 12.4944C21.3333 12.4674 21.4816 12.4644 21.6283 12.4599C22.5432 12.433 23.4596 12.409 24.3745 12.3851C25.5275 12.3536 26.682 12.3222 27.835 12.2907C27.9263 12.2877 28.0177 12.2772 28.109 12.2817C28.4609 12.2997 28.6556 12.4704 28.69 12.8163C28.7155 13.0709 28.702 13.3299 28.7289 13.5845C28.7739 14.0112 28.4864 14.3092 28.0461 14.3152C27.0204 14.3272 25.9962 14.3751 24.9705 14.408C24.8821 14.411 24.7908 14.408 24.7129 14.408Z" fill="white"/>
<path d="M1.53336 38.8334V35.8926H11.5793C13.5469 35.8926 14.3959 36.8659 14.3959 39.5177C14.3959 40.7186 14.2926 41.5677 14.065 42.0648C13.8374 42.541 13.4017 42.8524 12.7188 42.9767C14.1474 43.1219 14.5621 44.1776 14.5621 46.6019C14.5621 49.3975 13.7131 50.3918 11.7455 50.3918H1.53486V47.4509H3.27482V38.8334H1.53336ZM7.16654 41.65H10.1284C10.4383 41.65 10.5012 41.4643 10.5012 40.2829C10.5012 39.1015 10.4398 38.9158 10.1284 38.9158H7.16654V41.65ZM7.16654 47.367H10.2946C10.6045 47.367 10.6674 47.1814 10.6674 45.8337C10.6674 44.4876 10.606 44.3004 10.2946 44.3004H7.16654V47.367Z" fill="white"/>
<path d="M22.0969 38.8334V47.4494H23.9611V50.3903H16.3394V47.4494H18.2036V38.8334H16.3379V35.8926H23.9596V38.8334H22.0969Z" fill="white"/>
<path d="M34.3547 40.6767V39.4548C34.3547 39.1853 34.2514 39.082 33.9819 39.082H30.7505C30.481 39.082 30.3777 39.1853 30.3777 39.4548V46.828C30.3777 47.0975 30.481 47.2008 30.7505 47.2008H33.9819C34.2514 47.2008 34.3547 47.0975 34.3547 46.828V45.0057H32.0353V41.9405H38.2075V47.5737C38.2075 49.4589 37.2761 50.3903 35.3909 50.3903H29.301C27.4158 50.3903 26.4845 49.4589 26.4845 47.5737V38.7091C26.4845 36.8239 27.4158 35.8926 29.301 35.8926H35.3909C37.2761 35.8926 38.2075 36.8239 38.2075 38.7091V40.6767H34.3547Z" fill="white"/>
<path d="M48.5153 40.6767V39.4548C48.5153 39.1853 48.412 39.082 48.1424 39.082H44.9111C44.6415 39.082 44.5382 39.1853 44.5382 39.4548V46.828C44.5382 47.0975 44.6415 47.2008 44.9111 47.2008H48.1424C48.412 47.2008 48.5153 47.0975 48.5153 46.828V45.0057H46.1958V41.9405H52.3681V47.5737C52.3681 49.4589 51.4367 50.3903 49.5515 50.3903H43.4616C41.5764 50.3903 40.645 49.4589 40.645 47.5737V38.7091C40.645 36.8239 41.5764 35.8926 43.4616 35.8926H49.5515C51.4367 35.8926 52.3681 36.8239 52.3681 38.7091V40.6767H48.5153Z" fill="white"/>
<path d="M63.1674 45.4414V47.4509H64.9898V50.3918H57.4504V47.4509H59.2727V45.4414L55.5862 38.8349H53.8881V35.8926H60.4946V38.8334H59.6246L61.2403 42.2505L62.856 38.8334H61.986V35.8926H68.552V38.8334H66.854L63.1674 45.4414Z" fill="white"/>
<path d="M4.43683 59.7894V59.0707H2.59804V60.5935H4.41287V60.9903H2.59804V62.6135H4.43683V61.8948H4.85759V63.0088H1.5319V62.6255H2.15181V59.0587H1.5319V58.6754H4.85759V59.7894H4.43683Z" fill="white"/>
<path d="M11.2559 62.6496V63.009H10.314V62.5508C10.0235 62.8907 9.70759 63.0344 9.11911 63.0344C8.42582 63.0344 8.14731 62.7439 8.14731 62.0432C8.14731 61.7092 8.2087 61.4741 8.33898 61.3439C8.46925 61.2136 8.68637 61.1327 8.98884 61.1028C9.37217 61.0594 9.81241 61.0279 10.314 61.01V60.4709C10.314 60.155 10.1957 60.0367 9.88128 60.0367H9.11313C8.79718 60.0367 8.68038 60.155 8.68038 60.4709V60.5637H8.25961V60.5083C8.25961 59.9453 8.53813 59.6668 9.10115 59.6668H9.89326C10.4563 59.6668 10.7348 59.9453 10.7348 60.5083V62.6511H11.2559V62.6496ZM10.314 61.3005L9.00082 61.4487C8.6729 61.4921 8.56808 61.5969 8.56808 62.0432C8.56808 62.5133 8.69835 62.6631 9.1251 62.6631C9.37966 62.6631 9.58929 62.6316 9.757 62.5702C9.92471 62.5088 10.1104 62.4025 10.314 62.2603V61.3005Z" fill="white"/>
<path d="M14.953 62.1913C14.953 62.5073 15.0832 62.6241 15.3857 62.6241H15.7885V63.0074H15.3737C14.8107 63.0074 14.5322 62.7289 14.5322 62.1659V60.0351H14.0365V59.6638H14.5322V58.8582H14.953V59.6638H15.7885V60.0351H14.953V62.1913Z" fill="white"/>
<path d="M26.4274 62.1419C26.4274 62.7184 26.1369 63.0089 25.5604 63.0089H24.3774C23.765 63.0089 23.5105 62.7049 23.5105 61.7945C23.5105 61.1251 23.6467 60.8841 23.9687 60.7792C23.7021 60.6609 23.5599 60.4199 23.5599 59.8254C23.5599 58.9764 23.8264 58.6739 24.4269 58.6739H25.4675C26.044 58.6739 26.3345 58.9644 26.3345 59.5409V59.9317H25.8883V59.5289C25.8883 59.207 25.764 59.0827 25.4421 59.0827H24.4508C24.1109 59.0827 24.0046 59.2309 24.0046 59.8254C24.0046 60.1294 24.036 60.327 24.0974 60.4259C24.1663 60.5247 24.2831 60.5741 24.4508 60.5741H26.9275V60.9769H26.4274V62.1419ZM25.9826 60.9784H24.4029C24.2352 60.9784 24.1184 61.0338 24.0495 61.1401C23.9881 61.2449 23.9567 61.462 23.9567 61.79C23.9567 62.1179 23.9881 62.341 24.0495 62.4458C24.1169 62.5506 24.2352 62.6001 24.4029 62.6001H25.5364C25.8584 62.6001 25.9826 62.4758 25.9826 62.1538V60.9784Z" fill="white"/>
<path d="M38.3421 62.6255V63.0088H37.4751L36.5647 61.176H35.4312V62.6255H36.075V63.0088H34.3665V62.6255H34.9864V59.0587H34.3665V58.6754H37.0169C37.5934 58.6754 37.8839 58.9659 37.8839 59.5424V60.2851C37.8839 60.8616 37.5994 61.1461 37.0349 61.1521L37.7656 62.6255H38.3421ZM35.4327 60.7672H36.9929C37.3149 60.7672 37.4391 60.6429 37.4391 60.321V59.5289C37.4391 59.2069 37.3149 59.0827 36.9929 59.0827H35.4327V60.7672Z" fill="white"/>
<path d="M41.8355 61.423V62.2031C41.8355 62.5191 41.9538 62.6359 42.2683 62.6359H43.1233C43.4392 62.6359 43.556 62.5176 43.556 62.2031V61.962H43.9768V62.1657C43.9768 62.7287 43.6983 63.0072 43.1353 63.0072H42.2563C41.6933 63.0072 41.4148 62.7287 41.4148 62.1657V60.5066C41.4148 59.9436 41.6933 59.6651 42.2563 59.6651H43.1353C43.6983 59.6651 43.9768 59.9436 43.9768 60.5066V61.423H41.8355ZM42.2683 60.0364C41.9523 60.0364 41.8355 60.1547 41.8355 60.4706V61.0771H43.5575V60.4706C43.5575 60.1547 43.4392 60.0364 43.1248 60.0364H42.2683Z" fill="white"/>
<path d="M50.2944 60.4826V62.1912C50.2944 62.7676 50.0099 63.0327 49.2912 63.0327C49.0875 63.0327 48.9079 63.0072 48.7521 62.9653C48.5979 62.9159 48.4796 62.8665 48.3928 62.8111C48.3119 62.7557 48.2011 62.6688 48.0648 62.5505V63.6406H48.7207V64H47.0855V63.6406H47.6426V60.0244H47.0855V59.6651H48.0633V60.1233C48.1996 60.005 48.3104 59.9256 48.3913 59.8687C48.565 59.7504 48.8869 59.6396 49.2897 59.6396C50.0099 59.6396 50.2944 59.9061 50.2944 60.4826ZM49.8737 60.4572C49.8737 60.1352 49.7374 60.0244 49.2852 60.0244C49.0127 60.0244 48.7896 60.0559 48.6219 60.1173C48.4541 60.1787 48.2685 60.285 48.0648 60.4272V62.2466C48.2685 62.3888 48.4556 62.4936 48.6219 62.5565C48.7896 62.6179 49.0127 62.6494 49.2852 62.6494C49.7374 62.6494 49.8737 62.5385 49.8737 62.2166V60.4572Z" fill="white"/>
<path d="M54.0842 61.423V62.2031C54.0842 62.5191 54.2025 62.6359 54.517 62.6359H55.372C55.6879 62.6359 55.8062 62.5176 55.8062 62.2031V61.962H56.227V62.1657C56.227 62.7287 55.9485 63.0072 55.3855 63.0072H54.5065C53.9435 63.0072 53.665 62.7287 53.665 62.1657V60.5066C53.665 59.9436 53.9435 59.6651 54.5065 59.6651H55.3855C55.9485 59.6651 56.227 59.9436 56.227 60.5066V61.423H54.0842ZM54.5185 60.0364C54.2025 60.0364 54.0857 60.1547 54.0857 60.4706V61.0771H55.8077V60.4706C55.8077 60.1547 55.6894 60.0364 55.3735 60.0364H54.5185Z" fill="white"/>
<path d="M62.6177 62.6496V63.009H61.6759V62.5508C61.3854 62.8907 61.0694 63.0344 60.481 63.0344C59.7877 63.0344 59.5092 62.7439 59.5092 62.0432C59.5092 61.7092 59.5706 61.4741 59.7008 61.3439C59.8311 61.2136 60.0482 61.1327 60.3507 61.1028C60.734 61.0594 61.1743 61.0279 61.6759 61.01V60.4709C61.6759 60.155 61.5576 60.0367 61.2431 60.0367H60.475C60.159 60.0367 60.0422 60.155 60.0422 60.4709V60.5637H59.6215V60.5083C59.6215 59.9453 59.9 59.6668 60.463 59.6668H61.2551C61.8181 59.6668 62.0967 59.9453 62.0967 60.5083V62.6511H62.6177V62.6496ZM61.6774 61.3005L60.3642 61.4487C60.0362 61.4921 59.9314 61.5969 59.9314 62.0432C59.9314 62.5133 60.0617 62.6631 60.4885 62.6631C60.743 62.6631 60.9527 62.6316 61.1204 62.5702C61.2881 62.5088 61.4737 62.4025 61.6774 62.2603V61.3005Z" fill="white"/>
<path d="M66.3148 62.1913C66.3148 62.5073 66.4451 62.6241 66.7476 62.6241H67.1503V63.0074H66.7356C66.1726 63.0074 65.894 62.7289 65.894 62.1659V60.0351H65.3984V59.6638H65.894V58.8582H66.3148V59.6638H67.1503V60.0351H66.3148V62.1913Z" fill="white"/>
<path d="M99.5727 18.976C100.674 19.1813 101.579 19.732 102.289 20.628C102.998 21.524 103.353 22.5507 103.353 23.708C103.353 24.7533 103.091 25.6773 102.569 26.48C102.065 27.264 101.327 27.88 100.357 28.328C99.3861 28.776 98.2381 29 96.9127 29H88.4847V9.456H96.5487C97.8741 9.456 99.0127 9.67067 99.9647 10.1C100.935 10.5293 101.663 11.1267 102.149 11.892C102.653 12.6573 102.905 13.5253 102.905 14.496C102.905 15.6347 102.597 16.5867 101.981 17.352C101.383 18.1173 100.581 18.6587 99.5727 18.976ZM92.4047 17.52H95.9887C96.9221 17.52 97.6407 17.3147 98.1447 16.904C98.6487 16.4747 98.9007 15.868 98.9007 15.084C98.9007 14.3 98.6487 13.6933 98.1447 13.264C97.6407 12.8347 96.9221 12.62 95.9887 12.62H92.4047V17.52ZM96.3527 25.808C97.3047 25.808 98.0421 25.584 98.5647 25.136C99.1061 24.688 99.3767 24.0533 99.3767 23.232C99.3767 22.392 99.0967 21.7387 98.5367 21.272C97.9767 20.7867 97.2207 20.544 96.2687 20.544H92.4047V25.808H96.3527ZM109.837 9.456V29H105.917V9.456H109.837ZM126.758 15.336C126.31 14.5147 125.694 13.8893 124.91 13.46C124.126 13.0307 123.211 12.816 122.166 12.816C121.009 12.816 119.982 13.0773 119.086 13.6C118.19 14.1227 117.49 14.8693 116.986 15.84C116.482 16.8107 116.23 17.9307 116.23 19.2C116.23 20.5067 116.482 21.6453 116.986 22.616C117.509 23.5867 118.227 24.3333 119.142 24.856C120.057 25.3787 121.121 25.64 122.334 25.64C123.827 25.64 125.05 25.248 126.002 24.464C126.954 23.6613 127.579 22.5507 127.878 21.132H121.158V18.136H131.742V21.552C131.481 22.9147 130.921 24.1747 130.062 25.332C129.203 26.4893 128.093 27.4227 126.73 28.132C125.386 28.8227 123.874 29.168 122.194 29.168C120.309 29.168 118.601 28.748 117.07 27.908C115.558 27.0493 114.363 25.864 113.486 24.352C112.627 22.84 112.198 21.1227 112.198 19.2C112.198 17.2773 112.627 15.56 113.486 14.048C114.363 12.5173 115.558 11.332 117.07 10.492C118.601 9.63333 120.299 9.204 122.166 9.204C124.369 9.204 126.282 9.74533 127.906 10.828C129.53 11.892 130.65 13.3947 131.266 15.336H126.758ZM147.69 15.336C147.242 14.5147 146.626 13.8893 145.842 13.46C145.058 13.0307 144.143 12.816 143.098 12.816C141.941 12.816 140.914 13.0773 140.018 13.6C139.122 14.1227 138.422 14.8693 137.918 15.84C137.414 16.8107 137.162 17.9307 137.162 19.2C137.162 20.5067 137.414 21.6453 137.918 22.616C138.441 23.5867 139.159 24.3333 140.074 24.856C140.989 25.3787 142.053 25.64 143.266 25.64C144.759 25.64 145.982 25.248 146.934 24.464C147.886 23.6613 148.511 22.5507 148.81 21.132H142.09V18.136H152.674V21.552C152.413 22.9147 151.853 24.1747 150.994 25.332C150.135 26.4893 149.025 27.4227 147.662 28.132C146.318 28.8227 144.806 29.168 143.126 29.168C141.241 29.168 139.533 28.748 138.002 27.908C136.49 27.0493 135.295 25.864 134.418 24.352C133.559 22.84 133.13 21.1227 133.13 19.2C133.13 17.2773 133.559 15.56 134.418 14.048C135.295 12.5173 136.49 11.332 138.002 10.492C139.533 9.63333 141.231 9.204 143.098 9.204C145.301 9.204 147.214 9.74533 148.838 10.828C150.462 11.892 151.582 13.3947 152.198 15.336H147.69ZM170.554 9.456L163.946 22.196V29H160.026V22.196L153.39 9.456H157.814L162.014 18.388L166.186 9.456H170.554Z" fill="white"/>
<path d="M101.401 44.816L98.2327 56H96.9847L94.1687 46.464L91.2887 56L90.0727 56.016L86.9687 44.816H88.1687L90.7287 54.624L93.5927 44.816H94.8407L97.6247 54.624L100.201 44.816H101.401ZM110.698 51.184C110.698 51.568 110.687 51.8613 110.666 52.064H103.418C103.45 52.7253 103.61 53.2907 103.898 53.76C104.186 54.2293 104.565 54.5867 105.034 54.832C105.503 55.0667 106.015 55.184 106.57 55.184C107.295 55.184 107.903 55.008 108.394 54.656C108.895 54.304 109.226 53.8293 109.386 53.232H110.57C110.357 54.0853 109.898 54.784 109.194 55.328C108.501 55.8613 107.626 56.128 106.57 56.128C105.749 56.128 105.013 55.9467 104.362 55.584C103.711 55.2107 103.199 54.688 102.826 54.016C102.463 53.3333 102.282 52.5387 102.282 51.632C102.282 50.7253 102.463 49.9307 102.826 49.248C103.189 48.5653 103.695 48.0427 104.346 47.68C104.997 47.3173 105.738 47.136 106.57 47.136C107.402 47.136 108.127 47.3173 108.746 47.68C109.375 48.0427 109.855 48.5333 110.186 49.152C110.527 49.76 110.698 50.4373 110.698 51.184ZM109.562 51.152C109.573 50.5013 109.439 49.9467 109.162 49.488C108.895 49.0293 108.527 48.6827 108.058 48.448C107.589 48.2133 107.077 48.096 106.522 48.096C105.69 48.096 104.981 48.3627 104.394 48.896C103.807 49.4293 103.482 50.1813 103.418 51.152H109.562ZM113.531 49.2C113.819 48.592 114.262 48.096 114.859 47.712C115.467 47.328 116.182 47.136 117.003 47.136C117.803 47.136 118.518 47.3227 119.147 47.696C119.776 48.0587 120.267 48.5813 120.619 49.264C120.982 49.936 121.163 50.72 121.163 51.616C121.163 52.512 120.982 53.3013 120.619 53.984C120.267 54.6667 119.771 55.1947 119.131 55.568C118.502 55.9413 117.792 56.128 117.003 56.128C116.171 56.128 115.451 55.9413 114.843 55.568C114.246 55.184 113.808 54.688 113.531 54.08V56H112.427V44.16H113.531V49.2ZM120.027 51.616C120.027 50.8907 119.883 50.2667 119.595 49.744C119.318 49.2107 118.934 48.8053 118.443 48.528C117.952 48.2507 117.398 48.112 116.779 48.112C116.182 48.112 115.632 48.256 115.131 48.544C114.64 48.832 114.251 49.2427 113.963 49.776C113.675 50.3093 113.531 50.928 113.531 51.632C113.531 52.336 113.675 52.9547 113.963 53.488C114.251 54.0213 114.64 54.432 115.131 54.72C115.632 55.008 116.182 55.152 116.779 55.152C117.398 55.152 117.952 55.0133 118.443 54.736C118.934 54.448 119.318 54.0373 119.595 53.504C119.883 52.96 120.027 52.3307 120.027 51.616ZM130.287 44.816C131.524 44.816 132.585 45.04 133.471 45.488C134.356 45.936 135.033 46.5813 135.503 47.424C135.972 48.2667 136.207 49.2693 136.207 50.432C136.207 51.584 135.972 52.5813 135.503 53.424C135.033 54.256 134.356 54.896 133.471 55.344C132.585 55.7813 131.524 56 130.287 56H126.975V44.816H130.287ZM130.287 55.072C131.844 55.072 133.028 54.6667 133.839 53.856C134.66 53.0347 135.071 51.8933 135.071 50.432C135.071 48.96 134.66 47.8133 133.839 46.992C133.028 46.16 131.844 45.744 130.287 45.744H128.095V55.072H130.287ZM145.855 51.184C145.855 51.568 145.845 51.8613 145.823 52.064H138.575C138.607 52.7253 138.767 53.2907 139.055 53.76C139.343 54.2293 139.722 54.5867 140.191 54.832C140.661 55.0667 141.173 55.184 141.727 55.184C142.453 55.184 143.061 55.008 143.551 54.656C144.053 54.304 144.383 53.8293 144.543 53.232H145.727C145.514 54.0853 145.055 54.784 144.351 55.328C143.658 55.8613 142.783 56.128 141.727 56.128C140.906 56.128 140.17 55.9467 139.519 55.584C138.869 55.2107 138.357 54.688 137.983 54.016C137.621 53.3333 137.439 52.5387 137.439 51.632C137.439 50.7253 137.621 49.9307 137.983 49.248C138.346 48.5653 138.853 48.0427 139.503 47.68C140.154 47.3173 140.895 47.136 141.727 47.136C142.559 47.136 143.285 47.3173 143.903 47.68C144.533 48.0427 145.013 48.5333 145.343 49.152C145.685 49.76 145.855 50.4373 145.855 51.184ZM144.719 51.152C144.73 50.5013 144.597 49.9467 144.319 49.488C144.053 49.0293 143.685 48.6827 143.215 48.448C142.746 48.2133 142.234 48.096 141.679 48.096C140.847 48.096 140.138 48.3627 139.551 48.896C138.965 49.4293 138.639 50.1813 138.575 51.152H144.719ZM150.593 56.128C149.59 56.128 148.769 55.8987 148.129 55.44C147.499 54.9707 147.147 54.336 147.073 53.536H148.225C148.278 54.0267 148.507 54.4267 148.913 54.736C149.329 55.0347 149.883 55.184 150.577 55.184C151.185 55.184 151.659 55.04 152.001 54.752C152.353 54.464 152.529 54.1067 152.529 53.68C152.529 53.3813 152.433 53.136 152.241 52.944C152.049 52.752 151.803 52.6027 151.505 52.496C151.217 52.3787 150.822 52.256 150.321 52.128C149.67 51.9573 149.142 51.7867 148.737 51.616C148.331 51.4453 147.985 51.1947 147.697 50.864C147.419 50.5227 147.281 50.0693 147.281 49.504C147.281 49.0773 147.409 48.6827 147.665 48.32C147.921 47.9573 148.283 47.6693 148.753 47.456C149.222 47.2427 149.755 47.136 150.353 47.136C151.291 47.136 152.049 47.376 152.625 47.856C153.201 48.3253 153.51 48.976 153.553 49.808H152.433C152.401 49.296 152.198 48.8853 151.825 48.576C151.462 48.256 150.961 48.096 150.321 48.096C149.755 48.096 149.297 48.2293 148.945 48.496C148.593 48.7627 148.417 49.0933 148.417 49.488C148.417 49.8293 148.518 50.112 148.721 50.336C148.934 50.5493 149.195 50.72 149.505 50.848C149.814 50.9653 150.23 51.0987 150.753 51.248C151.382 51.4187 151.883 51.584 152.257 51.744C152.63 51.904 152.95 52.1387 153.217 52.448C153.483 52.7573 153.622 53.168 153.633 53.68C153.633 54.1493 153.505 54.5707 153.249 54.944C152.993 55.3067 152.635 55.5947 152.177 55.808C151.718 56.0213 151.19 56.128 150.593 56.128ZM155.981 45.616C155.757 45.616 155.565 45.536 155.405 45.376C155.245 45.216 155.165 45.0187 155.165 44.784C155.165 44.5493 155.245 44.3573 155.405 44.208C155.565 44.048 155.757 43.968 155.981 43.968C156.205 43.968 156.397 44.048 156.557 44.208C156.717 44.3573 156.797 44.5493 156.797 44.784C156.797 45.0187 156.717 45.216 156.557 45.376C156.397 45.536 156.205 45.616 155.981 45.616ZM156.541 47.264V56H155.421V47.264H156.541ZM162.421 47.136C163.242 47.136 163.957 47.328 164.565 47.712C165.173 48.096 165.61 48.5813 165.877 49.168V47.264H166.997V56.224C166.997 57.024 166.821 57.7333 166.469 58.352C166.128 58.9707 165.648 59.4453 165.029 59.776C164.41 60.1173 163.706 60.288 162.917 60.288C161.797 60.288 160.864 60.0213 160.117 59.488C159.381 58.9547 158.922 58.2293 158.741 57.312H159.845C160.037 57.92 160.4 58.4053 160.933 58.768C161.477 59.1307 162.138 59.312 162.917 59.312C163.482 59.312 163.989 59.1893 164.437 58.944C164.885 58.7093 165.237 58.3573 165.493 57.888C165.749 57.4187 165.877 56.864 165.877 56.224V54.064C165.6 54.6613 165.157 55.1573 164.549 55.552C163.952 55.936 163.242 56.128 162.421 56.128C161.621 56.128 160.901 55.9413 160.261 55.568C159.632 55.1947 159.136 54.6667 158.773 53.984C158.421 53.3013 158.245 52.512 158.245 51.616C158.245 50.72 158.421 49.936 158.773 49.264C159.136 48.5813 159.632 48.0587 160.261 47.696C160.901 47.3227 161.621 47.136 162.421 47.136ZM165.877 51.632C165.877 50.928 165.733 50.3093 165.445 49.776C165.157 49.2427 164.762 48.832 164.261 48.544C163.77 48.256 163.226 48.112 162.629 48.112C162.01 48.112 161.456 48.2507 160.965 48.528C160.474 48.8053 160.085 49.2107 159.797 49.744C159.52 50.2667 159.381 50.8907 159.381 51.616C159.381 52.3307 159.52 52.96 159.797 53.504C160.085 54.0373 160.474 54.448 160.965 54.736C161.456 55.0133 162.01 55.152 162.629 55.152C163.226 55.152 163.77 55.008 164.261 54.72C164.762 54.432 165.157 54.0213 165.445 53.488C165.733 52.9547 165.877 52.336 165.877 51.632ZM173.33 47.104C174.375 47.104 175.229 47.4293 175.89 48.08C176.551 48.72 176.882 49.6533 176.882 50.88V56H175.778V51.008C175.778 50.0587 175.538 49.3333 175.058 48.832C174.589 48.3307 173.943 48.08 173.122 48.08C172.279 48.08 171.607 48.3467 171.106 48.88C170.605 49.4133 170.354 50.1973 170.354 51.232V56H169.234V47.264H170.354V48.752C170.631 48.2187 171.031 47.8133 171.554 47.536C172.077 47.248 172.669 47.104 173.33 47.104ZM188.534 49.6V50.544H182.31V49.6H188.534ZM198.469 44.816C199.706 44.816 200.768 45.04 201.653 45.488C202.538 45.936 203.216 46.5813 203.685 47.424C204.154 48.2667 204.389 49.2693 204.389 50.432C204.389 51.584 204.154 52.5813 203.685 53.424C203.216 54.256 202.538 54.896 201.653 55.344C200.768 55.7813 199.706 56 198.469 56H195.157V44.816H198.469ZM198.469 55.072C200.026 55.072 201.21 54.6667 202.021 53.856C202.842 53.0347 203.253 51.8933 203.253 50.432C203.253 48.96 202.842 47.8133 202.021 46.992C201.21 46.16 200.026 45.744 198.469 45.744H196.277V55.072H198.469ZM214.038 51.184C214.038 51.568 214.027 51.8613 214.006 52.064H206.758C206.79 52.7253 206.95 53.2907 207.238 53.76C207.526 54.2293 207.905 54.5867 208.374 54.832C208.843 55.0667 209.355 55.184 209.91 55.184C210.635 55.184 211.243 55.008 211.734 54.656C212.235 54.304 212.566 53.8293 212.726 53.232H213.91C213.697 54.0853 213.238 54.784 212.534 55.328C211.841 55.8613 210.966 56.128 209.91 56.128C209.089 56.128 208.353 55.9467 207.702 55.584C207.051 55.2107 206.539 54.688 206.166 54.016C205.803 53.3333 205.622 52.5387 205.622 51.632C205.622 50.7253 205.803 49.9307 206.166 49.248C206.529 48.5653 207.035 48.0427 207.686 47.68C208.337 47.3173 209.078 47.136 209.91 47.136C210.742 47.136 211.467 47.3173 212.086 47.68C212.715 48.0427 213.195 48.5333 213.526 49.152C213.867 49.76 214.038 50.4373 214.038 51.184ZM212.902 51.152C212.913 50.5013 212.779 49.9467 212.502 49.488C212.235 49.0293 211.867 48.6827 211.398 48.448C210.929 48.2133 210.417 48.096 209.862 48.096C209.03 48.096 208.321 48.3627 207.734 48.896C207.147 49.4293 206.822 50.1813 206.758 51.152H212.902ZM218.871 54.912L221.815 47.264H222.999L219.495 56H218.231L214.727 47.264H215.927L218.871 54.912ZM232.101 51.184C232.101 51.568 232.09 51.8613 232.069 52.064H224.821C224.853 52.7253 225.013 53.2907 225.301 53.76C225.589 54.2293 225.968 54.5867 226.437 54.832C226.906 55.0667 227.418 55.184 227.973 55.184C228.698 55.184 229.306 55.008 229.797 54.656C230.298 54.304 230.629 53.8293 230.789 53.232H231.973C231.76 54.0853 231.301 54.784 230.597 55.328C229.904 55.8613 229.029 56.128 227.973 56.128C227.152 56.128 226.416 55.9467 225.765 55.584C225.114 55.2107 224.602 54.688 224.229 54.016C223.866 53.3333 223.685 52.5387 223.685 51.632C223.685 50.7253 223.866 49.9307 224.229 49.248C224.592 48.5653 225.098 48.0427 225.749 47.68C226.4 47.3173 227.141 47.136 227.973 47.136C228.805 47.136 229.53 47.3173 230.149 47.68C230.778 48.0427 231.258 48.5333 231.589 49.152C231.93 49.76 232.101 50.4373 232.101 51.184ZM230.965 51.152C230.976 50.5013 230.842 49.9467 230.565 49.488C230.298 49.0293 229.93 48.6827 229.461 48.448C228.992 48.2133 228.48 48.096 227.925 48.096C227.093 48.096 226.384 48.3627 225.797 48.896C225.21 49.4293 224.885 50.1813 224.821 51.152H230.965ZM234.95 44.16V56H233.83V44.16H234.95ZM240.99 56.128C240.169 56.128 239.428 55.9467 238.766 55.584C238.116 55.2107 237.598 54.688 237.214 54.016C236.841 53.3333 236.654 52.5387 236.654 51.632C236.654 50.7253 236.846 49.936 237.23 49.264C237.614 48.5813 238.137 48.0587 238.798 47.696C239.46 47.3227 240.201 47.136 241.022 47.136C241.844 47.136 242.585 47.3227 243.246 47.696C243.918 48.0587 244.441 48.5813 244.814 49.264C245.198 49.936 245.39 50.7253 245.39 51.632C245.39 52.528 245.198 53.3173 244.814 54C244.43 54.6827 243.902 55.2107 243.23 55.584C242.558 55.9467 241.812 56.128 240.99 56.128ZM240.99 55.152C241.566 55.152 242.1 55.024 242.59 54.768C243.081 54.5013 243.476 54.1067 243.774 53.584C244.084 53.0507 244.238 52.4 244.238 51.632C244.238 50.864 244.089 50.2187 243.79 49.696C243.492 49.1627 243.097 48.768 242.606 48.512C242.116 48.2453 241.582 48.112 241.006 48.112C240.43 48.112 239.897 48.2453 239.406 48.512C238.916 48.768 238.521 49.1627 238.222 49.696C237.934 50.2187 237.79 50.864 237.79 51.632C237.79 52.4 237.934 53.0507 238.222 53.584C238.521 54.1067 238.91 54.5013 239.39 54.768C239.881 55.024 240.414 55.152 240.99 55.152ZM248.216 49.184C248.493 48.5973 248.931 48.112 249.528 47.728C250.136 47.3333 250.856 47.136 251.688 47.136C252.477 47.136 253.187 47.3227 253.816 47.696C254.456 48.0587 254.952 48.5813 255.304 49.264C255.667 49.936 255.848 50.72 255.848 51.616C255.848 52.512 255.667 53.3013 255.304 53.984C254.952 54.6667 254.456 55.1947 253.816 55.568C253.187 55.9413 252.477 56.128 251.688 56.128C250.867 56.128 250.152 55.936 249.544 55.552C248.936 55.1573 248.493 54.6667 248.216 54.08V60.128H247.112V47.264H248.216V49.184ZM254.712 51.616C254.712 50.8907 254.568 50.2667 254.28 49.744C254.003 49.2107 253.619 48.8053 253.128 48.528C252.637 48.2507 252.083 48.112 251.464 48.112C250.867 48.112 250.317 48.256 249.816 48.544C249.325 48.832 248.936 49.2427 248.648 49.776C248.36 50.3093 248.216 50.928 248.216 51.632C248.216 52.336 248.36 52.9547 248.648 53.488C248.936 54.0213 249.325 54.432 249.816 54.72C250.317 55.008 250.867 55.152 251.464 55.152C252.083 55.152 252.637 55.0133 253.128 54.736C253.619 54.448 254.003 54.0373 254.28 53.504C254.568 52.96 254.712 52.3307 254.712 51.616ZM267.989 47.104C269.013 47.104 269.845 47.4293 270.485 48.08C271.136 48.72 271.461 49.6533 271.461 50.88V56H270.357V51.008C270.357 50.0587 270.128 49.3333 269.669 48.832C269.21 48.3307 268.586 48.08 267.797 48.08C266.976 48.08 266.32 48.352 265.829 48.896C265.338 49.44 265.093 50.2293 265.093 51.264V56H263.989V51.008C263.989 50.0587 263.76 49.3333 263.301 48.832C262.842 48.3307 262.213 48.08 261.413 48.08C260.592 48.08 259.936 48.352 259.445 48.896C258.954 49.44 258.709 50.2293 258.709 51.264V56H257.589V47.264H258.709V48.768C258.986 48.224 259.381 47.8133 259.893 47.536C260.405 47.248 260.976 47.104 261.605 47.104C262.362 47.104 263.024 47.2853 263.589 47.648C264.165 48.0107 264.581 48.544 264.837 49.248C265.072 48.5547 265.472 48.0267 266.037 47.664C266.613 47.2907 267.264 47.104 267.989 47.104ZM281.532 51.184C281.532 51.568 281.522 51.8613 281.5 52.064H274.252C274.284 52.7253 274.444 53.2907 274.732 53.76C275.02 54.2293 275.399 54.5867 275.868 54.832C276.338 55.0667 276.85 55.184 277.404 55.184C278.13 55.184 278.738 55.008 279.228 54.656C279.73 54.304 280.06 53.8293 280.22 53.232H281.404C281.191 54.0853 280.732 54.784 280.028 55.328C279.335 55.8613 278.46 56.128 277.404 56.128C276.583 56.128 275.847 55.9467 275.196 55.584C274.546 55.2107 274.034 54.688 273.66 54.016C273.298 53.3333 273.116 52.5387 273.116 51.632C273.116 50.7253 273.298 49.9307 273.66 49.248C274.023 48.5653 274.53 48.0427 275.18 47.68C275.831 47.3173 276.572 47.136 277.404 47.136C278.236 47.136 278.962 47.3173 279.58 47.68C280.21 48.0427 280.69 48.5333 281.02 49.152C281.362 49.76 281.532 50.4373 281.532 51.184ZM280.396 51.152C280.407 50.5013 280.274 49.9467 279.996 49.488C279.73 49.0293 279.362 48.6827 278.892 48.448C278.423 48.2133 277.911 48.096 277.356 48.096C276.524 48.096 275.815 48.3627 275.228 48.896C274.642 49.4293 274.316 50.1813 274.252 51.152H280.396ZM287.357 47.104C288.403 47.104 289.256 47.4293 289.917 48.08C290.579 48.72 290.909 49.6533 290.909 50.88V56H289.805V51.008C289.805 50.0587 289.565 49.3333 289.085 48.832C288.616 48.3307 287.971 48.08 287.149 48.08C286.307 48.08 285.635 48.3467 285.133 48.88C284.632 49.4133 284.381 50.1973 284.381 51.232V56H283.261V47.264H284.381V48.752C284.659 48.2187 285.059 47.8133 285.581 47.536C286.104 47.248 286.696 47.104 287.357 47.104ZM294.522 48.208V53.632C294.522 54.1653 294.624 54.5333 294.826 54.736C295.029 54.9387 295.386 55.04 295.898 55.04H296.922V56H295.722C294.933 56 294.346 55.8187 293.962 55.456C293.578 55.0827 293.386 54.4747 293.386 53.632V48.208H292.17V47.264H293.386V45.072H294.522V47.264H296.922V48.208H294.522ZM307.944 49.6V50.544H301.72V49.6H307.944ZM317.96 56.112C317.224 56.112 316.573 55.984 316.008 55.728C315.453 55.472 315.016 55.1147 314.696 54.656C314.376 54.1973 314.205 53.6853 314.184 53.12H315.368C315.421 53.664 315.661 54.144 316.088 54.56C316.514 54.9653 317.138 55.168 317.96 55.168C318.717 55.168 319.314 54.976 319.752 54.592C320.2 54.1973 320.424 53.7013 320.424 53.104C320.424 52.624 320.301 52.24 320.056 51.952C319.81 51.6533 319.506 51.4347 319.144 51.296C318.781 51.1467 318.28 50.9867 317.64 50.816C316.893 50.6133 316.301 50.416 315.864 50.224C315.426 50.032 315.053 49.7333 314.744 49.328C314.434 48.9227 314.28 48.3733 314.28 47.68C314.28 47.104 314.429 46.592 314.728 46.144C315.026 45.6853 315.448 45.328 315.992 45.072C316.536 44.816 317.16 44.688 317.864 44.688C318.898 44.688 319.73 44.944 320.36 45.456C321 45.9573 321.368 46.608 321.464 47.408H320.248C320.173 46.9493 319.922 46.544 319.496 46.192C319.069 45.8293 318.493 45.648 317.768 45.648C317.096 45.648 316.536 45.8293 316.088 46.192C315.64 46.544 315.416 47.0293 315.416 47.648C315.416 48.1173 315.538 48.496 315.784 48.784C316.029 49.072 316.333 49.2907 316.696 49.44C317.069 49.5893 317.57 49.7493 318.2 49.92C318.925 50.1227 319.512 50.3253 319.96 50.528C320.408 50.72 320.786 51.0187 321.096 51.424C321.405 51.8293 321.56 52.3733 321.56 53.056C321.56 53.5787 321.421 54.0747 321.144 54.544C320.866 55.0133 320.456 55.392 319.912 55.68C319.368 55.968 318.717 56.112 317.96 56.112ZM327.228 56.128C326.407 56.128 325.665 55.9467 325.004 55.584C324.353 55.2107 323.836 54.688 323.452 54.016C323.079 53.3333 322.892 52.5387 322.892 51.632C322.892 50.7253 323.084 49.936 323.468 49.264C323.852 48.5813 324.375 48.0587 325.036 47.696C325.697 47.3227 326.439 47.136 327.26 47.136C328.081 47.136 328.823 47.3227 329.484 47.696C330.156 48.0587 330.679 48.5813 331.052 49.264C331.436 49.936 331.628 50.7253 331.628 51.632C331.628 52.528 331.436 53.3173 331.052 54C330.668 54.6827 330.14 55.2107 329.468 55.584C328.796 55.9467 328.049 56.128 327.228 56.128ZM327.228 55.152C327.804 55.152 328.337 55.024 328.828 54.768C329.319 54.5013 329.713 54.1067 330.012 53.584C330.321 53.0507 330.476 52.4 330.476 51.632C330.476 50.864 330.327 50.2187 330.028 49.696C329.729 49.1627 329.335 48.768 328.844 48.512C328.353 48.2453 327.82 48.112 327.244 48.112C326.668 48.112 326.135 48.2453 325.644 48.512C325.153 48.768 324.759 49.1627 324.46 49.696C324.172 50.2187 324.028 50.864 324.028 51.632C324.028 52.4 324.172 53.0507 324.46 53.584C324.759 54.1067 325.148 54.5013 325.628 54.768C326.119 55.024 326.652 55.152 327.228 55.152ZM332.838 51.632C332.838 50.7253 333.019 49.936 333.382 49.264C333.744 48.5813 334.246 48.0587 334.886 47.696C335.526 47.3227 336.256 47.136 337.078 47.136C338.155 47.136 339.04 47.4027 339.734 47.936C340.438 48.4693 340.891 49.1947 341.094 50.112H339.894C339.744 49.4827 339.419 48.992 338.918 48.64C338.427 48.2773 337.814 48.096 337.078 48.096C336.491 48.096 335.963 48.2293 335.494 48.496C335.024 48.7627 334.651 49.1627 334.374 49.696C334.107 50.2187 333.974 50.864 333.974 51.632C333.974 52.4 334.107 53.0507 334.374 53.584C334.651 54.1173 335.024 54.5173 335.494 54.784C335.963 55.0507 336.491 55.184 337.078 55.184C337.814 55.184 338.427 55.008 338.918 54.656C339.419 54.2933 339.744 53.792 339.894 53.152H341.094C340.891 54.048 340.438 54.768 339.734 55.312C339.03 55.856 338.144 56.128 337.078 56.128C336.256 56.128 335.526 55.9467 334.886 55.584C334.246 55.2107 333.744 54.688 333.382 54.016C333.019 53.3333 332.838 52.5387 332.838 51.632ZM343.402 45.616C343.178 45.616 342.986 45.536 342.826 45.376C342.666 45.216 342.586 45.0187 342.586 44.784C342.586 44.5493 342.666 44.3573 342.826 44.208C342.986 44.048 343.178 43.968 343.402 43.968C343.626 43.968 343.818 44.048 343.978 44.208C344.138 44.3573 344.218 44.5493 344.218 44.784C344.218 45.0187 344.138 45.216 343.978 45.376C343.818 45.536 343.626 45.616 343.402 45.616ZM343.962 47.264V56H342.842V47.264H343.962ZM345.666 51.616C345.666 50.72 345.842 49.936 346.194 49.264C346.557 48.5813 347.053 48.0587 347.682 47.696C348.322 47.3227 349.042 47.136 349.842 47.136C350.674 47.136 351.389 47.328 351.986 47.712C352.594 48.096 353.032 48.5867 353.298 49.184V47.264H354.418V56H353.298V54.064C353.021 54.6613 352.578 55.1573 351.97 55.552C351.373 55.936 350.658 56.128 349.826 56.128C349.037 56.128 348.322 55.9413 347.682 55.568C347.053 55.1947 346.557 54.6667 346.194 53.984C345.842 53.3013 345.666 52.512 345.666 51.616ZM353.298 51.632C353.298 50.928 353.154 50.3093 352.866 49.776C352.578 49.2427 352.184 48.832 351.682 48.544C351.192 48.256 350.648 48.112 350.05 48.112C349.432 48.112 348.877 48.2507 348.386 48.528C347.896 48.8053 347.506 49.2107 347.218 49.744C346.941 50.2667 346.802 50.8907 346.802 51.616C346.802 52.3307 346.941 52.96 347.218 53.504C347.506 54.0373 347.896 54.448 348.386 54.736C348.877 55.0133 349.432 55.152 350.05 55.152C350.648 55.152 351.192 55.008 351.682 54.72C352.184 54.432 352.578 54.0213 352.866 53.488C353.154 52.9547 353.298 52.336 353.298 51.632ZM357.775 44.16V56H356.655V44.16H357.775ZM374.99 44.96V56H373.87V47.184L369.934 56H369.118L365.182 47.216V56H364.062V44.96H365.246L369.518 54.528L373.79 44.96H374.99ZM385.115 51.184C385.115 51.568 385.104 51.8613 385.083 52.064H377.835C377.867 52.7253 378.027 53.2907 378.315 53.76C378.603 54.2293 378.982 54.5867 379.451 54.832C379.92 55.0667 380.432 55.184 380.987 55.184C381.712 55.184 382.32 55.008 382.811 54.656C383.312 54.304 383.643 53.8293 383.803 53.232H384.987C384.774 54.0853 384.315 54.784 383.611 55.328C382.918 55.8613 382.043 56.128 380.987 56.128C380.166 56.128 379.43 55.9467 378.779 55.584C378.128 55.2107 377.616 54.688 377.243 54.016C376.88 53.3333 376.699 52.5387 376.699 51.632C376.699 50.7253 376.88 49.9307 377.243 49.248C377.606 48.5653 378.112 48.0427 378.763 47.68C379.414 47.3173 380.155 47.136 380.987 47.136C381.819 47.136 382.544 47.3173 383.163 47.68C383.792 48.0427 384.272 48.5333 384.603 49.152C384.944 49.76 385.115 50.4373 385.115 51.184ZM383.979 51.152C383.99 50.5013 383.856 49.9467 383.579 49.488C383.312 49.0293 382.944 48.6827 382.475 48.448C382.006 48.2133 381.494 48.096 380.939 48.096C380.107 48.096 379.398 48.3627 378.811 48.896C378.224 49.4293 377.899 50.1813 377.835 51.152H383.979ZM386.332 51.616C386.332 50.72 386.513 49.936 386.876 49.264C387.239 48.5813 387.735 48.0587 388.364 47.696C389.004 47.3227 389.724 47.136 390.524 47.136C391.292 47.136 391.985 47.3227 392.604 47.696C393.223 48.0693 393.676 48.5547 393.964 49.152V44.16H395.084V56H393.964V54.048C393.697 54.656 393.26 55.1573 392.652 55.552C392.044 55.936 391.329 56.128 390.508 56.128C389.708 56.128 388.988 55.9413 388.348 55.568C387.719 55.1947 387.223 54.6667 386.86 53.984C386.508 53.3013 386.332 52.512 386.332 51.616ZM393.964 51.632C393.964 50.928 393.82 50.3093 393.532 49.776C393.244 49.2427 392.849 48.832 392.348 48.544C391.857 48.256 391.313 48.112 390.716 48.112C390.097 48.112 389.543 48.2507 389.052 48.528C388.561 48.8053 388.172 49.2107 387.884 49.744C387.607 50.2667 387.468 50.8907 387.468 51.616C387.468 52.3307 387.607 52.96 387.884 53.504C388.172 54.0373 388.561 54.448 389.052 54.736C389.543 55.0133 390.097 55.152 390.716 55.152C391.313 55.152 391.857 55.008 392.348 54.72C392.849 54.432 393.244 54.0213 393.532 53.488C393.82 52.9547 393.964 52.336 393.964 51.632ZM397.881 45.616C397.657 45.616 397.465 45.536 397.305 45.376C397.145 45.216 397.065 45.0187 397.065 44.784C397.065 44.5493 397.145 44.3573 397.305 44.208C397.465 44.048 397.657 43.968 397.881 43.968C398.105 43.968 398.297 44.048 398.457 44.208C398.617 44.3573 398.697 44.5493 398.697 44.784C398.697 45.0187 398.617 45.216 398.457 45.376C398.297 45.536 398.105 45.616 397.881 45.616ZM398.441 47.264V56H397.321V47.264H398.441ZM400.145 51.616C400.145 50.72 400.321 49.936 400.673 49.264C401.036 48.5813 401.532 48.0587 402.161 47.696C402.801 47.3227 403.521 47.136 404.321 47.136C405.153 47.136 405.868 47.328 406.465 47.712C407.073 48.096 407.51 48.5867 407.777 49.184V47.264H408.897V56H407.777V54.064C407.5 54.6613 407.057 55.1573 406.449 55.552C405.852 55.936 405.137 56.128 404.305 56.128C403.516 56.128 402.801 55.9413 402.161 55.568C401.532 55.1947 401.036 54.6667 400.673 53.984C400.321 53.3013 400.145 52.512 400.145 51.616ZM407.777 51.632C407.777 50.928 407.633 50.3093 407.345 49.776C407.057 49.2427 406.662 48.832 406.161 48.544C405.67 48.256 405.126 48.112 404.529 48.112C403.91 48.112 403.356 48.2507 402.865 48.528C402.374 48.8053 401.985 49.2107 401.697 49.744C401.42 50.2667 401.281 50.8907 401.281 51.616C401.281 52.3307 401.42 52.96 401.697 53.504C401.985 54.0373 402.374 54.448 402.865 54.736C403.356 55.0133 403.91 55.152 404.529 55.152C405.126 55.152 405.67 55.008 406.161 54.72C406.662 54.432 407.057 54.0213 407.345 53.488C407.633 52.9547 407.777 52.336 407.777 51.632Z" fill="#B1B9CF"/>
</svg>
