<svg width="229" height="58" viewBox="0 0 229 58" fill="none" xmlns="http://www.w3.org/2000/svg">
<g clip-path="url(#clip0_974_140)">
<path d="M95.4486 43.0029C101.239 42.9638 106.812 43.3329 112.622 43.3336C119.836 43.3345 127.165 42.9818 134.396 43.0475C141.585 43.1132 148.808 43.2076 156.009 43.3239C163.218 43.4402 170.416 43.5785 177.628 43.7316C184.825 43.8847 192.038 44.0527 199.241 44.229C204.133 44.3487 209.031 44.4724 213.923 44.5975C216.07 44.6523 218.211 44.7074 220.357 44.7627C221.959 44.8041 223.56 44.8454 225.161 44.8868C225.384 44.8926 225.597 44.9162 225.754 44.9538C225.912 44.9914 226 45.0395 226 45.0893C226 45.1391 225.91 45.1873 225.753 45.2248C225.595 45.2621 225.381 45.2855 225.159 45.2911C223.544 45.3311 221.929 45.3712 220.314 45.4112C218.521 45.4556 216.73 45.5001 214.937 45.5443C214.655 45.3401 214.268 45.1852 213.542 45.1168C213.171 45.0819 212.631 45.0674 212.233 45.1054C211.876 45.1395 211.606 45.2002 211.351 45.2582C211.084 45.3188 210.83 45.3763 210.503 45.3966C209.949 45.4311 209.423 45.5178 208.87 45.6089C208.668 45.642 208.463 45.6758 208.252 45.7078C206.541 45.7493 204.829 45.7905 203.118 45.8314C202.456 45.8096 201.849 45.792 201.333 45.8004C200.87 45.8079 200.447 45.8511 200.025 45.9047C199.76 45.911 199.495 45.9172 199.23 45.9235C197.52 45.9637 195.81 46.0032 194.099 46.0424C192.764 45.9879 191.365 45.935 189.546 45.9118C188.762 45.9018 187.989 45.8723 187.245 45.844C186.147 45.8023 185.114 45.763 184.208 45.7924C183.602 45.812 182.966 45.7831 182.33 45.7544C181.478 45.7158 180.628 45.6772 179.857 45.7558C179.372 45.8052 178.927 45.8653 178.515 45.9211C177.858 46.0097 177.285 46.0873 176.766 46.0926C175.791 46.1026 174.946 46.1672 174.202 46.2242C173.307 46.2928 172.556 46.3503 171.897 46.2883C171.797 46.2789 171.683 46.2664 171.554 46.2522C170.875 46.1774 169.789 46.0578 168.231 46.1236C167.676 46.147 167.155 46.2079 166.645 46.2676C165.902 46.3546 165.18 46.439 164.408 46.4014C164.292 46.3958 164.172 46.3722 164.062 46.3507C163.922 46.3233 163.8 46.2995 163.728 46.3202C163.517 46.3812 163.18 46.4485 162.815 46.5218C162.547 46.5756 162.263 46.6327 162.001 46.6926C159.999 46.7265 157.996 46.7589 155.993 46.7896C155.076 46.8037 154.158 46.8174 153.24 46.8308C152.77 46.7391 152.29 46.6564 151.783 46.5939C151.12 46.5122 150.26 46.4872 149.152 46.4548C148.337 46.4309 147.387 46.403 146.282 46.3458C144.235 46.24 142.133 46.2637 140.786 46.3205C140.501 46.3325 140.214 46.3453 139.908 46.3592C138.746 46.4121 137.296 46.4783 134.542 46.5513C131.937 46.6203 129.722 46.6382 128.057 46.6517C127.208 46.6585 126.502 46.6641 125.961 46.6748C125.035 46.6932 123.898 46.7096 122.757 46.726C120.971 46.7516 119.174 46.7773 118.157 46.8116C117.795 46.8237 117.415 46.8388 117.004 46.8549C115.867 46.8996 114.493 46.9535 112.6 46.9846C110.612 47.0173 109.38 46.995 108.1 46.9466C107.58 46.9269 107.121 46.8491 106.648 46.7687C105.977 46.6546 105.278 46.5355 104.331 46.571C104.11 46.5793 103.874 46.5979 103.627 46.6173C103.174 46.6531 102.684 46.6918 102.183 46.6748C102.008 46.6689 101.853 46.6478 101.702 46.6271C101.536 46.6043 101.373 46.582 101.189 46.5808C100.499 46.5761 99.8278 46.5814 99.2315 46.5861C98.4626 46.5922 97.8177 46.5973 97.4176 46.5788C96.7044 46.5459 95.9245 46.5754 95.1348 46.6054C94.5315 46.6283 93.9221 46.6516 93.3321 46.6473C91.6462 46.6349 89.3276 46.6911 86.9386 46.7847C86.0347 46.8202 85.2689 46.7718 84.2876 46.7097C83.6772 46.6711 82.9835 46.6269 82.1211 46.5947C81.6322 46.5764 81.2181 46.6194 80.8348 46.6592C80.4816 46.6959 80.1542 46.7298 79.8184 46.7107C79.5218 46.6937 79.3343 46.6213 79.1562 46.5525C78.9581 46.4759 78.7716 46.4039 78.4597 46.418C78.2937 46.4254 78.0919 46.4617 77.8519 46.5047C77.757 46.5218 77.6556 46.5398 77.5484 46.5576C77.5539 46.5429 77.5552 46.5298 77.5553 46.5198C77.5556 46.4496 77.2374 46.4125 76.9251 46.3763C76.8004 46.3618 76.6762 46.3475 76.5742 46.3312C76.1988 46.2712 75.488 46.2614 74.9448 46.2642C74.715 46.2653 74.5068 46.2436 74.2637 46.2181C74.048 46.1955 73.8048 46.1701 73.4947 46.1553C73.3179 46.1468 73.182 46.1264 73.0697 46.1094C72.9884 46.0971 72.9192 46.0866 72.855 46.0838C72.7995 46.0815 72.7546 46.1016 72.7042 46.1243C72.6679 46.1406 72.6284 46.1583 72.58 46.1699C72.4642 46.1975 72.3154 46.2058 72.211 46.1969C72.1628 46.1928 72.1247 46.185 72.0869 46.1772C72.0428 46.1681 71.999 46.1589 71.9386 46.1557C71.6614 46.1411 71.3919 46.164 71.1118 46.1879C70.804 46.2141 70.4829 46.2414 70.1256 46.2211C70.0131 46.2146 69.8933 46.2 69.7773 46.1857C69.6559 46.1708 69.5379 46.1564 69.4376 46.1526C69.0303 46.137 68.6475 46.1873 68.2953 46.2335C68.0611 46.2642 67.84 46.2931 67.6349 46.2998C67.2589 46.3119 67.057 46.3722 66.9081 46.4167C66.831 46.4398 66.7681 46.4588 66.7021 46.4645C66.6416 46.4628 66.5802 46.4608 66.5202 46.4587C66.465 46.4542 66.4081 46.4497 66.3547 46.4511C66.3506 46.4512 66.3466 46.4515 66.3426 46.4516C66.0063 46.437 65.6759 46.4162 65.3477 46.3955C64.6104 46.3491 63.8822 46.3031 63.1122 46.329C62.9463 46.3346 62.7772 46.3595 62.6053 46.3848C62.3946 46.4158 62.1791 46.4475 61.9596 46.4453C61.4363 46.4398 60.9082 46.3987 60.3879 46.3583C59.6055 46.2974 58.8408 46.2379 58.1378 46.3032C57.9058 46.3247 57.6794 46.3606 57.4524 46.3968C57.3259 46.4169 57.1987 46.4372 57.0705 46.455C57.0977 46.422 57.1122 46.391 57.1257 46.3622C57.1535 46.3026 57.1775 46.2517 57.3007 46.2084C57.5918 46.1061 57.9218 45.9653 57.8852 45.8626C57.8752 45.8347 57.8833 45.8036 57.8921 45.7724C57.9142 45.694 57.9366 45.6139 57.6662 45.5777C57.484 45.5533 57.0158 45.4972 56.7179 45.5572C56.6531 45.5703 56.6136 45.5962 56.5696 45.6249C56.4906 45.6767 56.3966 45.7379 56.1144 45.7522C56.0669 45.7546 56.0152 45.7567 55.9618 45.7587C55.7489 45.7668 55.5104 45.7757 55.4213 45.8172C55.3186 45.8651 55.3405 45.92 55.3661 45.9839C55.3994 46.0672 55.439 46.1662 55.2178 46.2854C55.174 46.309 55.0904 46.317 55.0273 46.3232C54.9828 46.3275 54.9488 46.3309 54.9454 46.338C54.9416 46.3462 54.9557 46.3631 54.9738 46.3846C55.0376 46.4602 55.1484 46.5925 54.6859 46.5981C54.5608 46.5996 54.4177 46.5933 54.2893 46.5876C54.1002 46.5792 53.9431 46.5723 53.922 46.5939C53.9142 46.6021 53.9086 46.611 53.9039 46.6202C53.7534 46.6176 53.6028 46.615 53.4522 46.6124C53.259 46.5867 52.988 46.5889 52.6496 46.5917C52.5674 46.5924 52.4809 46.5931 52.3909 46.5934C52.0938 46.5881 51.7966 46.5828 51.4995 46.5774C51.2639 46.5664 51.0132 46.5486 50.7486 46.5203C50.2184 46.4637 49.757 46.3702 49.3063 46.2788C49.1163 46.2403 48.9281 46.2021 48.7373 46.1672C48.8116 46.1629 48.8787 46.1578 48.9304 46.1509C49.2839 46.1031 49.4258 46.0092 49.5563 45.9228C49.6431 45.8653 49.725 45.811 49.8606 45.776C50.1089 45.712 50.084 45.637 50.0658 45.5816C50.0563 45.5528 50.0491 45.5293 50.0822 45.5153C50.1088 45.5041 50.1704 45.4988 50.2339 45.4933C50.2893 45.4886 50.3465 45.4836 50.3831 45.4746C50.8271 45.3649 50.6936 45.3012 50.4994 45.2085C50.3924 45.1573 50.2672 45.0973 50.2098 45.0159C50.1604 44.9297 50.177 44.9045 50.4098 44.8702C50.2284 44.8276 50.0471 44.7851 49.8658 44.7425C49.7947 44.7453 49.7407 44.7719 49.6649 44.8161C49.5295 44.8951 49.0886 44.9239 48.7442 44.9465C48.5847 44.9569 48.4458 44.966 48.3674 44.9782C47.9507 45.0425 48.0719 45.1322 48.1786 45.2111C48.2374 45.2546 48.2915 45.2948 48.2493 45.3257C48.2313 45.3389 48.257 45.352 48.2829 45.3654C48.3029 45.3757 48.3235 45.3863 48.3243 45.3971C48.3298 45.4757 48.0832 45.534 47.8545 45.5881C47.7235 45.6192 47.5985 45.6489 47.5294 45.6803C47.5084 45.6898 47.4917 45.6996 47.476 45.709C47.4531 45.7228 47.4308 45.736 47.3958 45.7473C47.3162 45.773 47.1522 45.7903 46.9725 45.8092C46.8804 45.8189 46.7842 45.829 46.6932 45.8409C46.5753 45.8563 46.5328 45.8874 46.488 45.9198C46.4563 45.9428 46.4231 45.9664 46.3621 45.9859C46.2517 46.0211 46.0286 46.0338 45.8216 46.0456C45.7314 46.0507 45.6442 46.0558 45.5707 46.0624C45.5408 46.0651 45.5265 46.0704 45.5233 46.0778C45.1835 46.1023 44.8589 46.1275 44.5431 46.1521C42.9595 46.2755 41.5888 46.3824 39.5419 46.3049C39.1549 46.2902 38.7393 46.2932 38.3194 46.3049C36.976 46.2741 35.6319 46.2422 34.289 46.2096C34.0232 46.1388 33.6981 46.0793 33.3131 46.0327C32.5902 45.9451 31.8465 45.9263 30.969 45.9042C30.3202 45.8879 29.5982 45.8696 28.7568 45.8204C27.3432 45.7377 25.8917 45.6677 24.254 45.6313C22.6233 45.5951 20.7564 45.5684 19.4356 45.5589C18.7156 45.5537 17.9593 45.4904 17.2544 45.4314C16.263 45.3485 15.3733 45.2742 14.8302 45.382C14.6567 45.4164 14.489 45.4762 14.3258 45.5343C14.2096 45.5757 14.095 45.6161 13.9827 45.6462C13.6837 45.6368 13.3844 45.6276 13.0852 45.6181C12.5537 45.5463 11.7276 45.4693 10.9291 45.5494C10.6205 45.5395 10.3116 45.5297 10.0135 45.5197C9.36292 45.4988 8.72639 45.4776 8.08408 45.4563C7.87442 45.4493 7.66269 45.4422 7.45043 45.4351C7.44841 45.435 7.4464 45.4349 7.44439 45.4349C7.01713 45.4206 6.58664 45.4062 6.16328 45.3917C5.98195 45.3855 5.80062 45.3794 5.61929 45.3732C5.15847 45.3575 4.69433 45.3418 4.23817 45.3259C3.99674 45.3175 3.75299 45.3091 3.50882 45.3006C3.1127 45.2868 2.71358 45.2729 2.31651 45.2589C1.67436 45.2363 1.03522 45.2135 0.39485 45.1904C0.290124 45.1866 0.189485 45.1747 0.115524 45.1565C0.0415894 45.1384 -0.000113022 45.1157 2.3007e-07 45.0922C0.000145036 45.0688 0.0421998 45.046 0.116386 45.0279C0.190523 45.0099 0.29106 44.9982 0.395712 44.9945C1.03653 44.9721 1.67649 44.9499 2.3191 44.928C2.71625 44.9144 3.11522 44.9007 3.51141 44.8873C3.75569 44.879 3.99921 44.8708 4.24076 44.8626C4.69696 44.8472 5.16188 44.8318 5.62274 44.8166C5.80407 44.8106 5.9854 44.8046 6.16673 44.7985C6.59123 44.7845 7.0229 44.7705 7.45129 44.7566C7.45387 44.7565 7.45646 44.7565 7.45905 44.7564C7.6698 44.7495 7.88022 44.7427 8.08839 44.7359C8.73096 44.7152 9.36784 44.6947 10.0187 44.6745C10.3549 44.6636 10.7054 44.6529 11.0532 44.6421C11.2469 44.6361 11.4402 44.63 11.63 44.624C11.7337 44.6209 11.8389 44.6177 11.9446 44.6145C14.3714 44.5396 16.7811 44.4675 19.2132 44.3984C21.6361 44.3292 24.0634 44.2629 26.4834 44.1993C28.9093 44.1356 31.3309 44.0747 33.7545 44.0162C49.1357 43.6451 64.5785 43.3408 80.0278 43.1504C82.2315 43.123 84.4926 43.0984 86.7006 43.0763C88.9328 43.0542 91.1191 43.0346 93.3571 43.0178C94.0368 43.0125 94.7335 43.0076 95.4486 43.0029Z" fill="#0055F0"/>
</g>
<defs>
<clipPath id="clip0_974_140">
<rect width="229" height="58" fill="white"/>
</clipPath>
</defs>
</svg>
