<svg width="174" height="38" viewBox="0 0 174 38" fill="none" xmlns="http://www.w3.org/2000/svg">
<path d="M15.2367 19H26.6V36.419C33.3104 33.4871 38 26.7912 38 19C38 13.4978 35.6612 8.54177 31.9234 5.07201L15.2367 19Z" fill="#0055F0"/>
<path d="M15.2 19H0V38H15.2V19Z" fill="#0055F0"/>
<path d="M19 0H0V19L22.3999 0.303328C21.2968 0.104049 20.1605 0 19 0Z" fill="#0055F0"/>
<path d="M55.4057 9.48438H47.5195V28.5193H55.4057C61.7414 28.5193 64.3523 23.9235 64.3523 19.0024C64.3523 14.0814 61.7414 9.48554 55.4057 9.48554V9.48438ZM54.9702 25.1209H51.0817V12.8839H54.9702C59.1038 12.8839 60.6264 15.4124 60.6264 19.0291C60.6264 22.6459 59.1038 25.1198 54.9702 25.1198V25.1209Z" fill="white"/>
<path d="M72.4842 9.48438L64.7617 28.5193H68.5956C69.656 25.8549 72.6468 25.5007 76.1555 25.5007H78.5759L79.8001 28.5193H83.634L75.9116 9.48438H72.4853H72.4842ZM76.1555 22.2382C74.0068 22.2382 72.1311 22.5913 70.5271 23.7609L74.1985 14.6784L77.2438 22.2382H76.1555Z" fill="white"/>
<path d="M96.711 20.3067C98.4508 19.5994 99.8376 18.0767 99.8376 15.6842C99.8376 11.7143 97.7981 9.48438 93.5832 9.48438H85.9688V28.5193H89.5309V26.4798C89.5309 23.0268 91.1627 21.503 93.3102 21.503C95.4577 21.503 97.1442 23.0257 97.1442 26.4798V28.5193H100.408V25.1743C100.408 22.8898 99.1837 21.0686 96.7098 20.3067H96.711ZM89.5321 21.014V12.8839H93.3114C94.481 12.8839 96.1395 13.0198 96.1395 15.6842C96.1395 19.0291 91.625 17.9687 89.5321 21.014Z" fill="white"/>
<path d="M110.632 9.48438H102.746V28.5193H110.632C116.968 28.5193 119.579 23.9235 119.579 19.0024C119.579 14.0814 116.968 9.48554 110.632 9.48554V9.48438ZM110.197 25.1209H106.308V12.8839H110.197C114.33 12.8839 115.853 15.4124 115.853 19.0291C115.853 22.6459 114.33 25.1198 110.197 25.1198V25.1209Z" fill="white"/>
<path d="M131.436 20.2792H134.264V17.0156H130.919C129.016 17.0423 126.895 17.9401 125.48 19.8437V12.882H135.732V9.48242H121.918V28.5173H136.004V25.1178H125.48C125.48 21.4743 128.716 20.278 131.435 20.278L131.436 20.2792Z" fill="white"/>
<path d="M146.062 9.48438L138.34 28.5193H142.174C143.234 25.8549 146.225 25.5007 149.734 25.5007H152.154L153.378 28.5193H157.212L149.49 9.48438H146.063H146.062ZM149.732 22.2382C147.584 22.2382 145.708 22.5913 144.104 23.7609L147.775 14.6784L150.821 22.2382H149.732Z" fill="white"/>
<path d="M163.109 25.1209V9.48438H159.547V28.5193H173.633V25.1209H163.109Z" fill="white"/>
</svg>
