<svg width="229" height="58" viewBox="0 0 229 58" fill="none" xmlns="http://www.w3.org/2000/svg">
<g clip-path="url(#clip0_974_140)">
<path d="M96.2496 46.9971C102.271 47.0362 108.065 46.6671 114.107 46.6664C121.608 46.6655 129.229 47.0182 136.748 46.9525C144.223 46.8868 151.734 46.7925 159.222 46.6761C166.717 46.5598 174.202 46.4216 181.702 46.2684C189.186 46.1153 196.685 45.9473 204.175 45.771C209.262 45.6513 214.355 45.5277 219.442 45.4025C221.675 45.3477 223.901 45.2926 226.133 45.2373C227.798 45.1959 229.463 45.1546 231.128 45.1133C231.359 45.1074 231.581 45.0838 231.745 45.0462C231.908 45.0086 232 44.9605 232 44.9107C232 44.8609 231.907 44.8127 231.743 44.7752C231.579 44.7379 231.357 44.7145 231.125 44.7089C229.446 44.6689 227.767 44.6288 226.088 44.5888C224.223 44.5444 222.361 44.4999 220.497 44.4557C220.203 44.6599 219.8 44.8148 219.045 44.8832C218.66 44.9181 218.098 44.9326 217.685 44.8946C217.313 44.8606 217.033 44.7998 216.768 44.7418C216.49 44.6813 216.226 44.6237 215.886 44.6034C215.31 44.5689 214.763 44.4822 214.188 44.3912C213.978 44.358 213.765 44.3242 213.546 44.2922C211.766 44.2507 209.986 44.2095 208.206 44.1686C207.519 44.1904 206.887 44.208 206.351 44.1996C205.87 44.1921 205.429 44.1489 204.991 44.0953C204.715 44.089 204.44 44.0828 204.164 44.0765C202.386 44.0363 200.607 43.9968 198.829 43.9576C197.441 44.0121 195.986 44.065 194.094 44.0882C193.279 44.0982 192.475 44.1277 191.702 44.156C190.56 44.1977 189.486 44.237 188.544 44.2076C187.914 44.188 187.252 44.2169 186.591 44.2457C185.705 44.2843 184.821 44.3228 184.019 44.2442C183.515 44.1948 183.052 44.1347 182.624 44.079C181.941 43.9903 181.345 43.9127 180.805 43.9074C179.792 43.8974 178.913 43.8328 178.139 43.7758C177.209 43.7073 176.428 43.6498 175.742 43.7117C175.638 43.7211 175.519 43.7336 175.386 43.7478C174.68 43.8226 173.551 43.9422 171.931 43.8764C171.354 43.853 170.812 43.7921 170.281 43.7324C169.509 43.6455 168.758 43.5611 167.955 43.5986C167.835 43.6042 167.71 43.6278 167.595 43.6493C167.45 43.6767 167.324 43.7005 167.248 43.6798C167.028 43.6189 166.679 43.5515 166.299 43.4782C166.02 43.4244 165.725 43.3673 165.452 43.3074C163.37 43.2735 161.288 43.2411 159.206 43.2104C158.251 43.1963 157.297 43.1826 156.342 43.1692C155.854 43.2609 155.355 43.3436 154.827 43.4061C154.138 43.4878 153.244 43.5128 152.092 43.5452C151.245 43.5691 150.257 43.597 149.107 43.6542C146.979 43.76 144.793 43.7363 143.392 43.6795C143.096 43.6675 142.798 43.6547 142.48 43.6408C141.271 43.5879 139.764 43.5217 136.9 43.4487C134.191 43.3797 131.887 43.3618 130.157 43.3483C129.274 43.3415 128.539 43.3359 127.977 43.3252C127.014 43.3068 125.832 43.2904 124.646 43.274C122.789 43.2484 120.92 43.2227 119.862 43.1885C119.486 43.1763 119.09 43.1612 118.664 43.1451C117.481 43.1004 116.053 43.0466 114.084 43.0154C112.017 42.9828 110.736 43.005 109.405 43.0535C108.864 43.0731 108.387 43.151 107.895 43.2314C107.198 43.3455 106.47 43.4645 105.486 43.429C105.256 43.4207 105.011 43.4022 104.754 43.3827C104.283 43.347 103.774 43.3082 103.252 43.3252C103.07 43.3311 102.91 43.3522 102.752 43.373C102.58 43.3957 102.41 43.418 102.218 43.4193C101.501 43.4239 100.803 43.4186 100.183 43.4139C99.3836 43.4078 98.7131 43.4027 98.2971 43.4212C97.5555 43.4542 96.7445 43.4247 95.9233 43.3946C95.296 43.3717 94.6624 43.3484 94.0488 43.3527C92.2958 43.3651 89.8849 43.3089 87.4007 43.2153C86.4609 43.1799 85.6645 43.2282 84.6442 43.2903C84.0095 43.329 83.2881 43.3731 82.3914 43.4054C81.883 43.4237 81.4525 43.3806 81.0539 43.3408C80.6867 43.3041 80.3462 43.2702 79.997 43.2894C79.6886 43.3063 79.4937 43.3787 79.3085 43.4475C79.1025 43.5241 78.9085 43.5961 78.5842 43.582C78.4116 43.5746 78.2017 43.5383 77.9522 43.4953C77.8535 43.4783 77.748 43.4602 77.6366 43.4424C77.6423 43.4571 77.6437 43.4702 77.6438 43.4802C77.6441 43.5505 77.3132 43.5875 76.9885 43.6237C76.8588 43.6382 76.7297 43.6525 76.6236 43.6688C76.2333 43.7288 75.4941 43.7386 74.9293 43.7358C74.6904 43.7347 74.4738 43.7565 74.2211 43.7819C73.9968 43.8045 73.7439 43.83 73.4215 43.8448C73.2376 43.8532 73.0963 43.8736 72.9795 43.8906C72.895 43.9029 72.8231 43.9134 72.7563 43.9162C72.6986 43.9185 72.6519 43.8984 72.5995 43.8757C72.5617 43.8594 72.5207 43.8417 72.4704 43.8301C72.35 43.8025 72.1953 43.7942 72.0867 43.8031C72.0365 43.8072 71.9969 43.815 71.9576 43.8228C71.9118 43.8319 71.8662 43.8411 71.8034 43.8443C71.5152 43.859 71.2349 43.836 70.9437 43.8121C70.6236 43.7859 70.2898 43.7586 69.9182 43.779C69.8012 43.7854 69.6766 43.8001 69.556 43.8143C69.4297 43.8292 69.3071 43.8436 69.2028 43.8474C68.7793 43.863 68.3812 43.8128 68.015 43.7665C67.7715 43.7358 67.5416 43.7069 67.3283 43.7002C66.9373 43.6881 66.7274 43.6278 66.5726 43.5833C66.4924 43.5602 66.427 43.5412 66.3584 43.5355C66.2954 43.5372 66.2317 43.5392 66.1692 43.5414C66.1119 43.5458 66.0527 43.5504 65.9971 43.5489C65.9929 43.5488 65.9887 43.5485 65.9845 43.5484C65.6349 43.563 65.2914 43.5838 64.95 43.6045C64.1834 43.6509 63.4262 43.6969 62.6256 43.671C62.453 43.6654 62.2772 43.6405 62.0984 43.6152C61.8794 43.5842 61.6553 43.5525 61.427 43.5548C60.8829 43.5602 60.3337 43.6013 59.7928 43.6418C58.9792 43.7026 58.184 43.7621 57.453 43.6968C57.2118 43.6753 56.9764 43.6394 56.7403 43.6033C56.6088 43.5831 56.4766 43.5628 56.3432 43.545C56.3715 43.578 56.3866 43.609 56.4006 43.6379C56.4295 43.6974 56.4545 43.7484 56.5826 43.7916C56.8853 43.8939 57.2284 44.0348 57.1904 44.1375C57.18 44.1653 57.1884 44.1964 57.1975 44.2276C57.2205 44.306 57.2438 44.3861 56.9627 44.4223C56.7732 44.4468 56.2863 44.5028 55.9766 44.4428C55.9092 44.4298 55.8681 44.4038 55.8224 44.3751C55.7403 44.3233 55.6425 44.2621 55.3491 44.2479C55.2997 44.2455 55.2459 44.2433 55.1904 44.2413C54.969 44.2332 54.721 44.2244 54.6283 44.1828C54.5216 44.1349 54.5444 44.08 54.5709 44.0161C54.6055 43.9328 54.6467 43.8339 54.4168 43.7146C54.3712 43.6911 54.2843 43.683 54.2186 43.6769C54.1724 43.6725 54.137 43.6691 54.1335 43.662C54.1295 43.6538 54.1443 43.6369 54.1631 43.6154C54.2294 43.5398 54.3446 43.4076 53.8636 43.402C53.7336 43.4004 53.5847 43.4067 53.4513 43.4124C53.2546 43.4208 53.0913 43.4277 53.0694 43.4061C53.0612 43.3979 53.0554 43.389 53.0506 43.3798C52.894 43.3824 52.7374 43.385 52.5808 43.3876C52.38 43.4134 52.0981 43.4112 51.7462 43.4083C51.6608 43.4076 51.5708 43.407 51.4773 43.4066C51.1684 43.4119 50.8593 43.4172 50.5504 43.4227C50.3054 43.4336 50.0447 43.4514 49.7696 43.4797C49.2182 43.5364 48.7385 43.6298 48.2698 43.7212C48.0723 43.7597 47.8766 43.7979 47.6781 43.8328C47.7555 43.8371 47.8252 43.8422 47.8789 43.8492C48.2465 43.8969 48.3941 43.9908 48.5298 44.0773C48.62 44.1348 48.7052 44.189 48.8462 44.224C49.1044 44.2881 49.0785 44.363 49.0596 44.4184C49.0497 44.4472 49.0422 44.4707 49.0766 44.4847C49.1043 44.4959 49.1683 44.5012 49.2344 44.5067C49.2919 44.5114 49.3514 44.5164 49.3895 44.5254C49.8512 44.6352 49.7124 44.6989 49.5105 44.7916C49.3991 44.8427 49.269 44.9027 49.2093 44.9841C49.158 45.0703 49.1752 45.0955 49.4172 45.1298C49.2287 45.1724 49.0401 45.215 48.8516 45.2575C48.7776 45.2548 48.7215 45.2281 48.6427 45.1839C48.502 45.105 48.0435 45.0761 47.6853 45.0535C47.5195 45.0431 47.3751 45.034 47.2936 45.0219C46.8602 44.9575 46.9862 44.8678 47.0972 44.7889C47.1583 44.7454 47.2146 44.7052 47.1707 44.6743C47.1521 44.6611 47.1788 44.648 47.2057 44.6346C47.2265 44.6243 47.2479 44.6138 47.2487 44.6029C47.2544 44.5244 46.998 44.466 46.7602 44.4119C46.624 44.3809 46.494 44.3511 46.4222 44.3197C46.4003 44.3102 46.3829 44.3005 46.3666 44.291C46.3428 44.2772 46.3196 44.264 46.2833 44.2527C46.2005 44.227 46.03 44.2097 45.8431 44.1908C45.7473 44.1811 45.6472 44.171 45.5527 44.1591C45.4301 44.1437 45.3859 44.1127 45.3393 44.0802C45.3063 44.0572 45.2718 44.0336 45.2084 44.0141C45.0936 43.9789 44.8616 43.9662 44.6463 43.9544C44.5526 43.9493 44.4619 43.9442 44.3855 43.9376C44.3544 43.9349 44.3394 43.9296 44.3362 43.9223C43.9828 43.8977 43.6453 43.8725 43.3169 43.8479C41.6703 43.7246 40.245 43.6176 38.1166 43.6951C37.7142 43.7098 37.282 43.7069 36.8454 43.6951C35.4485 43.726 34.0509 43.7578 32.6545 43.7904C32.3781 43.8612 32.04 43.9207 31.6397 43.9673C30.888 44.055 30.1147 44.0737 29.2023 44.0958C28.5277 44.1121 27.7769 44.1304 26.902 44.1796C25.4321 44.2624 23.9228 44.3324 22.2198 44.3687C20.5242 44.4049 18.583 44.4316 17.2096 44.4411C16.4609 44.4463 15.6745 44.5096 14.9416 44.5686C13.9106 44.6515 12.9855 44.7258 12.4207 44.618C12.2404 44.5836 12.066 44.5238 11.8963 44.4657C11.7755 44.4244 11.6563 44.384 11.5395 44.3539C11.2287 44.3632 10.9174 44.3725 10.6063 44.3819C10.0536 44.4537 9.19462 44.5307 8.3643 44.4506C8.04339 44.4605 7.72229 44.4704 7.41227 44.4803C6.73578 44.5012 6.0739 44.5224 5.40602 44.5437C5.18801 44.5508 4.96784 44.5578 4.74712 44.5649C4.74503 44.565 4.74294 44.5651 4.74085 44.5652C4.29658 44.5794 3.84894 44.5938 3.40872 44.6083C3.22017 44.6145 3.03162 44.6206 2.84306 44.6268C2.3639 44.6425 1.88127 44.6582 1.40695 44.6741C1.1559 44.6825 0.902445 44.6909 0.648554 44.6994C0.236659 44.7133 -0.178352 44.7271 -0.591238 44.7411C-1.25896 44.7637 -1.92356 44.7866 -2.58943 44.8096C-2.69832 44.8134 -2.80297 44.8254 -2.87988 44.8435C-2.95675 44.8616 -3.00012 44.8844 -3 44.9078C-2.99985 44.9313 -2.95612 44.9541 -2.87898 44.9721C-2.80189 44.9902 -2.69735 45.0018 -2.58853 45.0055C-1.92219 45.0279 -1.25674 45.0501 -0.588548 45.0721C-0.175586 45.0856 0.239274 45.0993 0.651243 45.1128C0.905253 45.121 1.15847 45.1292 1.40964 45.1374C1.88401 45.1528 2.36744 45.1682 2.84665 45.1834C3.0352 45.1895 3.22376 45.1955 3.41231 45.2015C3.85371 45.2156 4.30257 45.2295 4.74802 45.2434C4.75071 45.2435 4.7534 45.2436 4.75609 45.2436C4.97524 45.2505 5.19403 45.2573 5.4105 45.2641C6.07866 45.2848 6.74089 45.3053 7.41765 45.3255C7.76731 45.3364 8.13169 45.3471 8.49339 45.3579C8.69477 45.3639 8.89576 45.37 9.09312 45.376C9.20101 45.3791 9.31038 45.3823 9.42032 45.3855C11.9437 45.4604 14.4494 45.5325 16.9783 45.6016C19.4977 45.6708 22.0217 45.7371 24.5381 45.8007C27.0606 45.8644 29.5786 45.9253 32.0987 45.9838C48.0925 46.3549 64.1502 46.6592 80.2148 46.8497C82.5062 46.877 84.8573 46.9016 87.1533 46.9237C89.4744 46.9458 91.7478 46.9655 94.0748 46.9822C94.7816 46.9875 95.5061 46.9924 96.2496 46.9971Z" fill="#FFC727"/>
</g>
<defs>
<clipPath id="clip0_974_140">
<rect width="229" height="58" fill="white"/>
</clipPath>
</defs>
</svg>
