<svg width="481" height="64" viewBox="0 0 481 64" fill="none" xmlns="http://www.w3.org/2000/svg">
<g clip-path="url(#clip0_791_1299)">
<path d="M63.9901 31.5943C63.8858 29.5093 62.9705 27.5477 61.4398 26.1282C59.9091 24.7087 57.8841 23.9438 55.7972 23.9967C53.7102 24.0497 51.7267 24.9163 50.2699 26.4116C48.8131 27.9069 47.9985 29.9124 48.0001 32V45.3333C48.0001 44.6261 47.7191 43.9478 47.219 43.4477C46.7189 42.9476 46.0406 42.6666 45.3334 42.6666H18.6667C17.9595 42.6666 17.2812 42.9476 16.7811 43.4477C16.281 43.9478 16 44.6261 16 45.3333V32C15.9999 30.5333 15.5967 29.095 14.8343 27.842C14.0719 26.5891 12.9798 25.5699 11.6773 24.8957C10.3748 24.2216 8.91199 23.9185 7.44884 24.0195C5.98568 24.1206 4.57847 24.6219 3.38099 25.4687C2.18351 26.3155 1.24187 27.4752 0.658971 28.821C0.0760747 30.1668 -0.125638 31.647 0.0758806 33.0997C0.277399 34.5524 0.874393 35.9218 1.80161 37.0582C2.72883 38.1945 3.95059 39.0541 5.33334 39.543V53.3333C5.33334 54.0406 5.6143 54.7188 6.11439 55.2189C6.61449 55.719 7.29277 56 8.00002 56H10.6667V61.3333H16V56H48.0001V61.3333H53.3334V56H56.0001C56.7073 56 57.3856 55.719 57.8857 55.2189C58.3858 54.7188 58.6668 54.0406 58.6668 53.3333V39.543C60.2918 38.9682 61.6879 37.884 62.647 36.4517C63.6062 35.0195 64.0773 33.3158 63.9901 31.5943Z" fill="white"/>
<path d="M18.666 32.0013V40.0013H45.3327V32.0013C45.3357 29.6372 46.1226 27.3408 47.5702 25.4718C49.0179 23.6027 51.0445 22.2665 53.3327 21.6723V16.0013C53.3287 12.4663 51.9227 9.07722 49.423 6.5776C46.9234 4.07797 43.5343 2.67194 39.9993 2.66797H23.9993C20.4643 2.67194 17.0753 4.07797 14.5756 6.5776C12.076 9.07722 10.67 12.4663 10.666 16.0013V21.6723C12.9542 22.2665 14.9808 23.6027 16.4284 25.4718C17.8761 27.3408 18.663 29.6372 18.666 32.0013ZM37.3327 13.3346C37.8601 13.3346 38.3757 13.491 38.8142 13.784C39.2527 14.0771 39.5945 14.4935 39.7964 14.9808C39.9982 15.4681 40.051 16.0043 39.9481 16.5215C39.8452 17.0388 39.5912 17.514 39.2183 17.8869C38.8454 18.2599 38.3702 18.5138 37.8529 18.6167C37.3356 18.7196 36.7995 18.6668 36.3122 18.465C35.8249 18.2631 35.4084 17.9214 35.1154 17.4828C34.8224 17.0443 34.666 16.5287 34.666 16.0013C34.666 15.2941 34.947 14.6158 35.4471 14.1157C35.9472 13.6156 36.6254 13.3346 37.3327 13.3346ZM37.3327 21.3346C37.8601 21.3346 38.3757 21.491 38.8142 21.784C39.2527 22.0771 39.5945 22.4935 39.7964 22.9808C39.9982 23.4681 40.051 24.0043 39.9481 24.5215C39.8452 25.0388 39.5912 25.514 39.2183 25.8869C38.8454 26.2599 38.3702 26.5138 37.8529 26.6167C37.3356 26.7196 36.7995 26.6668 36.3122 26.465C35.8249 26.2631 35.4084 25.9214 35.1154 25.4828C34.8224 25.0443 34.666 24.5287 34.666 24.0013C34.666 23.2941 34.947 22.6158 35.4471 22.1157C35.9472 21.6156 36.6254 21.3346 37.3327 21.3346ZM26.666 13.3346C27.1934 13.3346 27.709 13.491 28.1475 13.784C28.5861 14.0771 28.9279 14.4935 29.1297 14.9808C29.3315 15.4681 29.3843 16.0043 29.2814 16.5215C29.1785 17.0388 28.9246 17.514 28.5516 17.8869C28.1787 18.2599 27.7035 18.5138 27.1863 18.6167C26.669 18.7196 26.1328 18.6668 25.6455 18.465C25.1583 18.2631 24.7418 17.9214 24.4488 17.4828C24.1557 17.0443 23.9993 16.5287 23.9993 16.0013C23.9993 15.2941 24.2803 14.6158 24.7804 14.1157C25.2805 13.6156 25.9588 13.3346 26.666 13.3346ZM26.666 21.3346C27.1934 21.3346 27.709 21.491 28.1475 21.784C28.5861 22.0771 28.9279 22.4935 29.1297 22.9808C29.3315 23.4681 29.3843 24.0043 29.2814 24.5215C29.1785 25.0388 28.9246 25.514 28.5516 25.8869C28.1787 26.2599 27.7035 26.5138 27.1863 26.6167C26.669 26.7196 26.1328 26.6668 25.6455 26.465C25.1583 26.2631 24.7418 25.9214 24.4488 25.4828C24.1557 25.0443 23.9993 24.5287 23.9993 24.0013C23.9993 23.2941 24.2803 22.6158 24.7804 22.1157C25.2805 21.6156 25.9588 21.3346 26.666 21.3346Z" fill="white"/>
</g>
<path d="M94.964 29L87.852 20.292V29H83.932V9.456H87.852V18.22L94.964 9.456H99.696L91.632 19.144L99.92 29H94.964ZM108.826 29.252C107.333 29.252 105.989 28.9253 104.794 28.272C103.6 27.6 102.657 26.6573 101.966 25.444C101.294 24.2307 100.958 22.8307 100.958 21.244C100.958 19.6573 101.304 18.2573 101.994 17.044C102.704 15.8307 103.665 14.8973 104.878 14.244C106.092 13.572 107.445 13.236 108.938 13.236C110.432 13.236 111.785 13.572 112.998 14.244C114.212 14.8973 115.164 15.8307 115.854 17.044C116.564 18.2573 116.918 19.6573 116.918 21.244C116.918 22.8307 116.554 24.2307 115.826 25.444C115.117 26.6573 114.146 27.6 112.914 28.272C111.701 28.9253 110.338 29.252 108.826 29.252ZM108.826 25.836C109.536 25.836 110.198 25.668 110.814 25.332C111.449 24.9773 111.953 24.4547 112.326 23.764C112.7 23.0733 112.886 22.2333 112.886 21.244C112.886 19.7693 112.494 18.64 111.71 17.856C110.945 17.0533 110.002 16.652 108.882 16.652C107.762 16.652 106.82 17.0533 106.054 17.856C105.308 18.64 104.934 19.7693 104.934 21.244C104.934 22.7187 105.298 23.8573 106.026 24.66C106.773 25.444 107.706 25.836 108.826 25.836ZM126.122 29.252C124.629 29.252 123.285 28.9253 122.09 28.272C120.895 27.6 119.953 26.6573 119.262 25.444C118.59 24.2307 118.254 22.8307 118.254 21.244C118.254 19.6573 118.599 18.2573 119.29 17.044C119.999 15.8307 120.961 14.8973 122.174 14.244C123.387 13.572 124.741 13.236 126.234 13.236C127.727 13.236 129.081 13.572 130.294 14.244C131.507 14.8973 132.459 15.8307 133.15 17.044C133.859 18.2573 134.214 19.6573 134.214 21.244C134.214 22.8307 133.85 24.2307 133.122 25.444C132.413 26.6573 131.442 27.6 130.21 28.272C128.997 28.9253 127.634 29.252 126.122 29.252ZM126.122 25.836C126.831 25.836 127.494 25.668 128.11 25.332C128.745 24.9773 129.249 24.4547 129.622 23.764C129.995 23.0733 130.182 22.2333 130.182 21.244C130.182 19.7693 129.79 18.64 129.006 17.856C128.241 17.0533 127.298 16.652 126.178 16.652C125.058 16.652 124.115 17.0533 123.35 17.856C122.603 18.64 122.23 19.7693 122.23 21.244C122.23 22.7187 122.594 23.8573 123.322 24.66C124.069 25.444 125.002 25.836 126.122 25.836ZM140.449 15.896C140.953 15.0747 141.607 14.4307 142.409 13.964C143.231 13.4973 144.164 13.264 145.209 13.264V17.38H144.173C142.941 17.38 142.008 17.6693 141.373 18.248C140.757 18.8267 140.449 19.8347 140.449 21.272V29H136.529V13.488H140.449V15.896ZM160.15 29.196C158.787 29.196 157.555 28.9627 156.454 28.496C155.371 28.0293 154.512 27.3573 153.878 26.48C153.243 25.6027 152.916 24.5667 152.898 23.372H157.098C157.154 24.1747 157.434 24.8093 157.938 25.276C158.46 25.7427 159.17 25.976 160.066 25.976C160.98 25.976 161.699 25.7613 162.222 25.332C162.744 24.884 163.006 24.3053 163.006 23.596C163.006 23.0173 162.828 22.5413 162.474 22.168C162.119 21.7947 161.671 21.5053 161.13 21.3C160.607 21.076 159.879 20.8333 158.946 20.572C157.676 20.1987 156.64 19.8347 155.838 19.48C155.054 19.1067 154.372 18.556 153.794 17.828C153.234 17.0813 152.954 16.092 152.954 14.86C152.954 13.7027 153.243 12.6947 153.822 11.836C154.4 10.9773 155.212 10.324 156.258 9.876C157.303 9.40933 158.498 9.176 159.842 9.176C161.858 9.176 163.491 9.67067 164.742 10.66C166.011 11.6307 166.711 12.9933 166.842 14.748H162.53C162.492 14.076 162.203 13.5253 161.662 13.096C161.139 12.648 160.439 12.424 159.562 12.424C158.796 12.424 158.18 12.62 157.714 13.012C157.266 13.404 157.042 13.9733 157.042 14.72C157.042 15.2427 157.21 15.6813 157.546 16.036C157.9 16.372 158.33 16.652 158.834 16.876C159.356 17.0813 160.084 17.324 161.018 17.604C162.287 17.9773 163.323 18.3507 164.126 18.724C164.928 19.0973 165.619 19.6573 166.198 20.404C166.776 21.1507 167.066 22.1307 167.066 23.344C167.066 24.3893 166.795 25.36 166.254 26.256C165.712 27.152 164.919 27.8707 163.874 28.412C162.828 28.9347 161.587 29.196 160.15 29.196ZM184.324 20.908C184.324 21.468 184.287 21.972 184.212 22.42H172.872C172.965 23.54 173.357 24.4173 174.048 25.052C174.739 25.6867 175.588 26.004 176.596 26.004C178.052 26.004 179.088 25.3787 179.704 24.128H183.932C183.484 25.6213 182.625 26.8533 181.356 27.824C180.087 28.776 178.528 29.252 176.68 29.252C175.187 29.252 173.843 28.9253 172.648 28.272C171.472 27.6 170.548 26.6573 169.876 25.444C169.223 24.2307 168.896 22.8307 168.896 21.244C168.896 19.6387 169.223 18.2293 169.876 17.016C170.529 15.8027 171.444 14.8693 172.62 14.216C173.796 13.5627 175.149 13.236 176.68 13.236C178.155 13.236 179.471 13.5533 180.628 14.188C181.804 14.8227 182.709 15.728 183.344 16.904C183.997 18.0613 184.324 19.396 184.324 20.908ZM180.264 19.788C180.245 18.78 179.881 17.9773 179.172 17.38C178.463 16.764 177.595 16.456 176.568 16.456C175.597 16.456 174.776 16.7547 174.104 17.352C173.451 17.9307 173.049 18.7427 172.9 19.788H180.264ZM185.617 21.188C185.617 19.62 185.925 18.2293 186.541 17.016C187.176 15.8027 188.025 14.8693 189.089 14.216C190.172 13.5627 191.376 13.236 192.701 13.236C193.859 13.236 194.867 13.4693 195.725 13.936C196.603 14.4027 197.303 14.9907 197.825 15.7V13.488H201.773V29H197.825V26.732C197.321 27.46 196.621 28.0667 195.725 28.552C194.848 29.0187 193.831 29.252 192.673 29.252C191.367 29.252 190.172 28.916 189.089 28.244C188.025 27.572 187.176 26.6293 186.541 25.416C185.925 24.184 185.617 22.7747 185.617 21.188ZM197.825 21.244C197.825 20.292 197.639 19.48 197.265 18.808C196.892 18.1173 196.388 17.5947 195.753 17.24C195.119 16.8667 194.437 16.68 193.709 16.68C192.981 16.68 192.309 16.8573 191.693 17.212C191.077 17.5667 190.573 18.0893 190.181 18.78C189.808 19.452 189.621 20.2547 189.621 21.188C189.621 22.1213 189.808 22.9427 190.181 23.652C190.573 24.3427 191.077 24.8747 191.693 25.248C192.328 25.6213 193 25.808 193.709 25.808C194.437 25.808 195.119 25.6307 195.753 25.276C196.388 24.9027 196.892 24.38 197.265 23.708C197.639 23.0173 197.825 22.196 197.825 21.244Z" fill="white"/>
<path d="M96.848 44.816L93.68 56H92.432L89.616 46.464L86.736 56L85.52 56.016L82.416 44.816H83.616L86.176 54.624L89.04 44.816H90.288L93.072 54.624L95.648 44.816H96.848ZM106.145 51.184C106.145 51.568 106.135 51.8613 106.113 52.064H98.8653C98.8973 52.7253 99.0573 53.2907 99.3453 53.76C99.6333 54.2293 100.012 54.5867 100.481 54.832C100.951 55.0667 101.463 55.184 102.017 55.184C102.743 55.184 103.351 55.008 103.841 54.656C104.343 54.304 104.673 53.8293 104.833 53.232H106.017C105.804 54.0853 105.345 54.784 104.641 55.328C103.948 55.8613 103.073 56.128 102.017 56.128C101.196 56.128 100.46 55.9467 99.8093 55.584C99.1586 55.2107 98.6466 54.688 98.2733 54.016C97.9106 53.3333 97.7293 52.5387 97.7293 51.632C97.7293 50.7253 97.9106 49.9307 98.2733 49.248C98.6359 48.5653 99.1426 48.0427 99.7933 47.68C100.444 47.3173 101.185 47.136 102.017 47.136C102.849 47.136 103.575 47.3173 104.193 47.68C104.823 48.0427 105.303 48.5333 105.633 49.152C105.975 49.76 106.145 50.4373 106.145 51.184ZM105.009 51.152C105.02 50.5013 104.887 49.9467 104.609 49.488C104.343 49.0293 103.975 48.6827 103.505 48.448C103.036 48.2133 102.524 48.096 101.969 48.096C101.137 48.096 100.428 48.3627 99.8413 48.896C99.2546 49.4293 98.9293 50.1813 98.8653 51.152H105.009ZM108.978 49.2C109.266 48.592 109.709 48.096 110.306 47.712C110.914 47.328 111.629 47.136 112.45 47.136C113.25 47.136 113.965 47.3227 114.594 47.696C115.224 48.0587 115.714 48.5813 116.066 49.264C116.429 49.936 116.61 50.72 116.61 51.616C116.61 52.512 116.429 53.3013 116.066 53.984C115.714 54.6667 115.218 55.1947 114.578 55.568C113.949 55.9413 113.24 56.128 112.45 56.128C111.618 56.128 110.898 55.9413 110.29 55.568C109.693 55.184 109.256 54.688 108.978 54.08V56H107.874V44.16H108.978V49.2ZM115.474 51.616C115.474 50.8907 115.33 50.2667 115.042 49.744C114.765 49.2107 114.381 48.8053 113.89 48.528C113.4 48.2507 112.845 48.112 112.226 48.112C111.629 48.112 111.08 48.256 110.578 48.544C110.088 48.832 109.698 49.2427 109.41 49.776C109.122 50.3093 108.978 50.928 108.978 51.632C108.978 52.336 109.122 52.9547 109.41 53.488C109.698 54.0213 110.088 54.432 110.578 54.72C111.08 55.008 111.629 55.152 112.226 55.152C112.845 55.152 113.4 55.0133 113.89 54.736C114.381 54.448 114.765 54.0373 115.042 53.504C115.33 52.96 115.474 52.3307 115.474 51.616ZM125.734 44.816C126.971 44.816 128.033 45.04 128.918 45.488C129.803 45.936 130.481 46.5813 130.95 47.424C131.419 48.2667 131.654 49.2693 131.654 50.432C131.654 51.584 131.419 52.5813 130.95 53.424C130.481 54.256 129.803 54.896 128.918 55.344C128.033 55.7813 126.971 56 125.734 56H122.422V44.816H125.734ZM125.734 55.072C127.291 55.072 128.475 54.6667 129.286 53.856C130.107 53.0347 130.518 51.8933 130.518 50.432C130.518 48.96 130.107 47.8133 129.286 46.992C128.475 46.16 127.291 45.744 125.734 45.744H123.542V55.072H125.734ZM141.303 51.184C141.303 51.568 141.292 51.8613 141.271 52.064H134.023C134.055 52.7253 134.215 53.2907 134.503 53.76C134.791 54.2293 135.169 54.5867 135.639 54.832C136.108 55.0667 136.62 55.184 137.175 55.184C137.9 55.184 138.508 55.008 138.999 54.656C139.5 54.304 139.831 53.8293 139.991 53.232H141.175C140.961 54.0853 140.503 54.784 139.799 55.328C139.105 55.8613 138.231 56.128 137.175 56.128C136.353 56.128 135.617 55.9467 134.967 55.584C134.316 55.2107 133.804 54.688 133.431 54.016C133.068 53.3333 132.887 52.5387 132.887 51.632C132.887 50.7253 133.068 49.9307 133.431 49.248C133.793 48.5653 134.3 48.0427 134.951 47.68C135.601 47.3173 136.343 47.136 137.175 47.136C138.007 47.136 138.732 47.3173 139.351 47.68C139.98 48.0427 140.46 48.5333 140.791 49.152C141.132 49.76 141.303 50.4373 141.303 51.184ZM140.167 51.152C140.177 50.5013 140.044 49.9467 139.767 49.488C139.5 49.0293 139.132 48.6827 138.663 48.448C138.193 48.2133 137.681 48.096 137.127 48.096C136.295 48.096 135.585 48.3627 134.999 48.896C134.412 49.4293 134.087 50.1813 134.023 51.152H140.167ZM146.04 56.128C145.037 56.128 144.216 55.8987 143.576 55.44C142.947 54.9707 142.595 54.336 142.52 53.536H143.672C143.725 54.0267 143.955 54.4267 144.36 54.736C144.776 55.0347 145.331 55.184 146.024 55.184C146.632 55.184 147.107 55.04 147.448 54.752C147.8 54.464 147.976 54.1067 147.976 53.68C147.976 53.3813 147.88 53.136 147.688 52.944C147.496 52.752 147.251 52.6027 146.952 52.496C146.664 52.3787 146.269 52.256 145.768 52.128C145.117 51.9573 144.589 51.7867 144.184 51.616C143.779 51.4453 143.432 51.1947 143.144 50.864C142.867 50.5227 142.728 50.0693 142.728 49.504C142.728 49.0773 142.856 48.6827 143.112 48.32C143.368 47.9573 143.731 47.6693 144.2 47.456C144.669 47.2427 145.203 47.136 145.8 47.136C146.739 47.136 147.496 47.376 148.072 47.856C148.648 48.3253 148.957 48.976 149 49.808H147.88C147.848 49.296 147.645 48.8853 147.272 48.576C146.909 48.256 146.408 48.096 145.768 48.096C145.203 48.096 144.744 48.2293 144.392 48.496C144.04 48.7627 143.864 49.0933 143.864 49.488C143.864 49.8293 143.965 50.112 144.168 50.336C144.381 50.5493 144.643 50.72 144.952 50.848C145.261 50.9653 145.677 51.0987 146.2 51.248C146.829 51.4187 147.331 51.584 147.704 51.744C148.077 51.904 148.397 52.1387 148.664 52.448C148.931 52.7573 149.069 53.168 149.08 53.68C149.08 54.1493 148.952 54.5707 148.696 54.944C148.44 55.3067 148.083 55.5947 147.624 55.808C147.165 56.0213 146.637 56.128 146.04 56.128ZM151.428 45.616C151.204 45.616 151.012 45.536 150.852 45.376C150.692 45.216 150.612 45.0187 150.612 44.784C150.612 44.5493 150.692 44.3573 150.852 44.208C151.012 44.048 151.204 43.968 151.428 43.968C151.652 43.968 151.844 44.048 152.004 44.208C152.164 44.3573 152.244 44.5493 152.244 44.784C152.244 45.0187 152.164 45.216 152.004 45.376C151.844 45.536 151.652 45.616 151.428 45.616ZM151.988 47.264V56H150.868V47.264H151.988ZM157.868 47.136C158.69 47.136 159.404 47.328 160.012 47.712C160.62 48.096 161.058 48.5813 161.324 49.168V47.264H162.444V56.224C162.444 57.024 162.268 57.7333 161.916 58.352C161.575 58.9707 161.095 59.4453 160.476 59.776C159.858 60.1173 159.154 60.288 158.364 60.288C157.244 60.288 156.311 60.0213 155.564 59.488C154.828 58.9547 154.37 58.2293 154.188 57.312H155.292C155.484 57.92 155.847 58.4053 156.38 58.768C156.924 59.1307 157.586 59.312 158.364 59.312C158.93 59.312 159.436 59.1893 159.884 58.944C160.332 58.7093 160.684 58.3573 160.94 57.888C161.196 57.4187 161.324 56.864 161.324 56.224V54.064C161.047 54.6613 160.604 55.1573 159.996 55.552C159.399 55.936 158.69 56.128 157.868 56.128C157.068 56.128 156.348 55.9413 155.708 55.568C155.079 55.1947 154.583 54.6667 154.22 53.984C153.868 53.3013 153.692 52.512 153.692 51.616C153.692 50.72 153.868 49.936 154.22 49.264C154.583 48.5813 155.079 48.0587 155.708 47.696C156.348 47.3227 157.068 47.136 157.868 47.136ZM161.324 51.632C161.324 50.928 161.18 50.3093 160.892 49.776C160.604 49.2427 160.21 48.832 159.708 48.544C159.218 48.256 158.674 48.112 158.076 48.112C157.458 48.112 156.903 48.2507 156.412 48.528C155.922 48.8053 155.532 49.2107 155.244 49.744C154.967 50.2667 154.828 50.8907 154.828 51.616C154.828 52.3307 154.967 52.96 155.244 53.504C155.532 54.0373 155.922 54.448 156.412 54.736C156.903 55.0133 157.458 55.152 158.076 55.152C158.674 55.152 159.218 55.008 159.708 54.72C160.21 54.432 160.604 54.0213 160.892 53.488C161.18 52.9547 161.324 52.336 161.324 51.632ZM168.777 47.104C169.823 47.104 170.676 47.4293 171.337 48.08C171.999 48.72 172.329 49.6533 172.329 50.88V56H171.225V51.008C171.225 50.0587 170.985 49.3333 170.505 48.832C170.036 48.3307 169.391 48.08 168.569 48.08C167.727 48.08 167.055 48.3467 166.553 48.88C166.052 49.4133 165.801 50.1973 165.801 51.232V56H164.681V47.264H165.801V48.752C166.079 48.2187 166.479 47.8133 167.001 47.536C167.524 47.248 168.116 47.104 168.777 47.104ZM183.981 49.6V50.544H177.757V49.6H183.981ZM193.916 44.816C195.154 44.816 196.215 45.04 197.1 45.488C197.986 45.936 198.663 46.5813 199.132 47.424C199.602 48.2667 199.836 49.2693 199.836 50.432C199.836 51.584 199.602 52.5813 199.132 53.424C198.663 54.256 197.986 54.896 197.1 55.344C196.215 55.7813 195.154 56 193.916 56H190.604V44.816H193.916ZM193.916 55.072C195.474 55.072 196.658 54.6667 197.468 53.856C198.29 53.0347 198.7 51.8933 198.7 50.432C198.7 48.96 198.29 47.8133 197.468 46.992C196.658 46.16 195.474 45.744 193.916 45.744H191.724V55.072H193.916ZM209.485 51.184C209.485 51.568 209.475 51.8613 209.453 52.064H202.205C202.237 52.7253 202.397 53.2907 202.685 53.76C202.973 54.2293 203.352 54.5867 203.821 54.832C204.291 55.0667 204.803 55.184 205.357 55.184C206.083 55.184 206.691 55.008 207.181 54.656C207.683 54.304 208.013 53.8293 208.173 53.232H209.357C209.144 54.0853 208.685 54.784 207.981 55.328C207.288 55.8613 206.413 56.128 205.357 56.128C204.536 56.128 203.8 55.9467 203.149 55.584C202.499 55.2107 201.987 54.688 201.613 54.016C201.251 53.3333 201.069 52.5387 201.069 51.632C201.069 50.7253 201.251 49.9307 201.613 49.248C201.976 48.5653 202.483 48.0427 203.133 47.68C203.784 47.3173 204.525 47.136 205.357 47.136C206.189 47.136 206.915 47.3173 207.533 47.68C208.163 48.0427 208.643 48.5333 208.973 49.152C209.315 49.76 209.485 50.4373 209.485 51.184ZM208.349 51.152C208.36 50.5013 208.227 49.9467 207.949 49.488C207.683 49.0293 207.315 48.6827 206.845 48.448C206.376 48.2133 205.864 48.096 205.309 48.096C204.477 48.096 203.768 48.3627 203.181 48.896C202.595 49.4293 202.269 50.1813 202.205 51.152H208.349ZM214.318 54.912L217.262 47.264H218.446L214.942 56H213.678L210.174 47.264H211.374L214.318 54.912ZM227.548 51.184C227.548 51.568 227.538 51.8613 227.516 52.064H220.268C220.3 52.7253 220.46 53.2907 220.748 53.76C221.036 54.2293 221.415 54.5867 221.884 54.832C222.354 55.0667 222.866 55.184 223.42 55.184C224.146 55.184 224.754 55.008 225.244 54.656C225.746 54.304 226.076 53.8293 226.236 53.232H227.42C227.207 54.0853 226.748 54.784 226.044 55.328C225.351 55.8613 224.476 56.128 223.42 56.128C222.599 56.128 221.863 55.9467 221.212 55.584C220.562 55.2107 220.05 54.688 219.676 54.016C219.314 53.3333 219.132 52.5387 219.132 51.632C219.132 50.7253 219.314 49.9307 219.676 49.248C220.039 48.5653 220.546 48.0427 221.196 47.68C221.847 47.3173 222.588 47.136 223.42 47.136C224.252 47.136 224.978 47.3173 225.596 47.68C226.226 48.0427 226.706 48.5333 227.036 49.152C227.378 49.76 227.548 50.4373 227.548 51.184ZM226.412 51.152C226.423 50.5013 226.29 49.9467 226.012 49.488C225.746 49.0293 225.378 48.6827 224.908 48.448C224.439 48.2133 223.927 48.096 223.372 48.096C222.54 48.096 221.831 48.3627 221.244 48.896C220.658 49.4293 220.332 50.1813 220.268 51.152H226.412ZM230.397 44.16V56H229.277V44.16H230.397ZM236.438 56.128C235.616 56.128 234.875 55.9467 234.214 55.584C233.563 55.2107 233.046 54.688 232.662 54.016C232.288 53.3333 232.102 52.5387 232.102 51.632C232.102 50.7253 232.294 49.936 232.678 49.264C233.062 48.5813 233.584 48.0587 234.246 47.696C234.907 47.3227 235.648 47.136 236.47 47.136C237.291 47.136 238.032 47.3227 238.694 47.696C239.366 48.0587 239.888 48.5813 240.262 49.264C240.646 49.936 240.838 50.7253 240.838 51.632C240.838 52.528 240.646 53.3173 240.262 54C239.878 54.6827 239.35 55.2107 238.678 55.584C238.006 55.9467 237.259 56.128 236.438 56.128ZM236.438 55.152C237.014 55.152 237.547 55.024 238.038 54.768C238.528 54.5013 238.923 54.1067 239.222 53.584C239.531 53.0507 239.686 52.4 239.686 51.632C239.686 50.864 239.536 50.2187 239.238 49.696C238.939 49.1627 238.544 48.768 238.054 48.512C237.563 48.2453 237.03 48.112 236.454 48.112C235.878 48.112 235.344 48.2453 234.854 48.512C234.363 48.768 233.968 49.1627 233.67 49.696C233.382 50.2187 233.238 50.864 233.238 51.632C233.238 52.4 233.382 53.0507 233.67 53.584C233.968 54.1067 234.358 54.5013 234.838 54.768C235.328 55.024 235.862 55.152 236.438 55.152ZM243.663 49.184C243.941 48.5973 244.378 48.112 244.975 47.728C245.583 47.3333 246.303 47.136 247.135 47.136C247.925 47.136 248.634 47.3227 249.263 47.696C249.903 48.0587 250.399 48.5813 250.751 49.264C251.114 49.936 251.295 50.72 251.295 51.616C251.295 52.512 251.114 53.3013 250.751 53.984C250.399 54.6667 249.903 55.1947 249.263 55.568C248.634 55.9413 247.925 56.128 247.135 56.128C246.314 56.128 245.599 55.936 244.991 55.552C244.383 55.1573 243.941 54.6667 243.663 54.08V60.128H242.559V47.264H243.663V49.184ZM250.159 51.616C250.159 50.8907 250.015 50.2667 249.727 49.744C249.45 49.2107 249.066 48.8053 248.575 48.528C248.085 48.2507 247.53 48.112 246.911 48.112C246.314 48.112 245.765 48.256 245.263 48.544C244.773 48.832 244.383 49.2427 244.095 49.776C243.807 50.3093 243.663 50.928 243.663 51.632C243.663 52.336 243.807 52.9547 244.095 53.488C244.383 54.0213 244.773 54.432 245.263 54.72C245.765 55.008 246.314 55.152 246.911 55.152C247.53 55.152 248.085 55.0133 248.575 54.736C249.066 54.448 249.45 54.0373 249.727 53.504C250.015 52.96 250.159 52.3307 250.159 51.616ZM263.436 47.104C264.46 47.104 265.292 47.4293 265.932 48.08C266.583 48.72 266.908 49.6533 266.908 50.88V56H265.804V51.008C265.804 50.0587 265.575 49.3333 265.116 48.832C264.658 48.3307 264.034 48.08 263.244 48.08C262.423 48.08 261.767 48.352 261.276 48.896C260.786 49.44 260.54 50.2293 260.54 51.264V56H259.436V51.008C259.436 50.0587 259.207 49.3333 258.748 48.832C258.29 48.3307 257.66 48.08 256.86 48.08C256.039 48.08 255.383 48.352 254.892 48.896C254.402 49.44 254.156 50.2293 254.156 51.264V56H253.036V47.264H254.156V48.768C254.434 48.224 254.828 47.8133 255.34 47.536C255.852 47.248 256.423 47.104 257.052 47.104C257.81 47.104 258.471 47.2853 259.036 47.648C259.612 48.0107 260.028 48.544 260.284 49.248C260.519 48.5547 260.919 48.0267 261.484 47.664C262.06 47.2907 262.711 47.104 263.436 47.104ZM276.98 51.184C276.98 51.568 276.969 51.8613 276.948 52.064H269.7C269.732 52.7253 269.892 53.2907 270.18 53.76C270.468 54.2293 270.846 54.5867 271.316 54.832C271.785 55.0667 272.297 55.184 272.852 55.184C273.577 55.184 274.185 55.008 274.676 54.656C275.177 54.304 275.508 53.8293 275.668 53.232H276.852C276.638 54.0853 276.18 54.784 275.476 55.328C274.782 55.8613 273.908 56.128 272.852 56.128C272.03 56.128 271.294 55.9467 270.644 55.584C269.993 55.2107 269.481 54.688 269.108 54.016C268.745 53.3333 268.564 52.5387 268.564 51.632C268.564 50.7253 268.745 49.9307 269.108 49.248C269.47 48.5653 269.977 48.0427 270.628 47.68C271.278 47.3173 272.02 47.136 272.852 47.136C273.684 47.136 274.409 47.3173 275.028 47.68C275.657 48.0427 276.137 48.5333 276.468 49.152C276.809 49.76 276.98 50.4373 276.98 51.184ZM275.844 51.152C275.854 50.5013 275.721 49.9467 275.444 49.488C275.177 49.0293 274.809 48.6827 274.34 48.448C273.87 48.2133 273.358 48.096 272.804 48.096C271.972 48.096 271.262 48.3627 270.676 48.896C270.089 49.4293 269.764 50.1813 269.7 51.152H275.844ZM282.805 47.104C283.85 47.104 284.703 47.4293 285.365 48.08C286.026 48.72 286.357 49.6533 286.357 50.88V56H285.253V51.008C285.253 50.0587 285.013 49.3333 284.533 48.832C284.063 48.3307 283.418 48.08 282.597 48.08C281.754 48.08 281.082 48.3467 280.581 48.88C280.079 49.4133 279.829 50.1973 279.829 51.232V56H278.709V47.264H279.829V48.752C280.106 48.2187 280.506 47.8133 281.029 47.536C281.551 47.248 282.143 47.104 282.805 47.104ZM289.97 48.208V53.632C289.97 54.1653 290.071 54.5333 290.274 54.736C290.476 54.9387 290.834 55.04 291.346 55.04H292.37V56H291.17C290.38 56 289.794 55.8187 289.41 55.456C289.026 55.0827 288.834 54.4747 288.834 53.632V48.208H287.618V47.264H288.834V45.072H289.97V47.264H292.37V48.208H289.97Z" fill="#B1B9CF"/>
<defs>
<clipPath id="clip0_791_1299">
<rect width="64" height="64" fill="white"/>
</clipPath>
</defs>
</svg>
