<svg width="289" height="64" viewBox="0 0 289 64" fill="none" xmlns="http://www.w3.org/2000/svg">
<path d="M58.7715 51.9189H5.21289L31.917 5.95898L58.7715 51.9189Z" stroke="white" stroke-width="6"/>
<path d="M44.8633 52H19.123L31.957 29.1191L44.8633 52Z" stroke="white" stroke-width="6"/>
<path d="M31.9102 10.0547C45.9784 10.0547 57.3836 21.4591 57.3838 35.5273C57.3838 41.7728 55.1387 47.4881 51.4082 51.9199H46.7764L46.8223 52H17.1621L17.208 51.9199H12.4131C8.68257 47.4881 6.4375 41.7728 6.4375 35.5273C6.43774 21.4593 17.8421 10.0549 31.9102 10.0547Z" stroke="white" stroke-width="6"/>
<path d="M43.916 58.001C40.3391 59.916 36.2525 61.001 31.9111 61.001C27.5699 61.0009 23.484 59.9159 19.9072 58.001H43.916Z" stroke="white" stroke-width="6"/>
<path d="M95.914 25.276H88.13L86.842 29H82.726L89.754 9.428H94.318L101.346 29H97.202L95.914 25.276ZM94.85 22.14L92.022 13.964L89.194 22.14H94.85ZM120.969 9.456L113.801 29H109.041L101.873 9.456H106.073L111.449 24.996L116.797 9.456H120.969ZM126.679 12.62V17.52H133.259V20.628H126.679V25.808H134.099V29H122.759V9.428H134.099V12.62H126.679ZM147.182 29L142.87 21.384H141.022V29H137.102V9.456H144.438C145.95 9.456 147.238 9.72667 148.302 10.268C149.366 10.7907 150.159 11.5093 150.682 12.424C151.223 13.32 151.494 14.328 151.494 15.448C151.494 16.736 151.12 17.9027 150.374 18.948C149.627 19.9747 148.516 20.684 147.042 21.076L151.718 29H147.182ZM141.022 18.444H144.298C145.362 18.444 146.155 18.192 146.678 17.688C147.2 17.1653 147.462 16.4467 147.462 15.532C147.462 14.636 147.2 13.9453 146.678 13.46C146.155 12.956 145.362 12.704 144.298 12.704H141.022V18.444Z" fill="white"/>
<path d="M88.51 50.224C89.1394 50.3413 89.6727 50.6613 90.11 51.184C90.5474 51.7067 90.766 52.3147 90.766 53.008C90.766 53.5733 90.622 54.0853 90.334 54.544C90.0567 54.992 89.646 55.3493 89.102 55.616C88.558 55.872 87.9074 56 87.15 56H83.278V44.816H87.038C88.1687 44.816 89.0274 45.0773 89.614 45.6C90.2114 46.1227 90.51 46.8 90.51 47.632C90.51 48.3253 90.3234 48.8907 89.95 49.328C89.5767 49.7547 89.0967 50.0533 88.51 50.224ZM84.398 49.76H87.006C87.7634 49.76 88.3447 49.584 88.75 49.232C89.166 48.8693 89.374 48.3733 89.374 47.744C89.374 47.1253 89.166 46.64 88.75 46.288C88.3447 45.936 87.7474 45.76 86.958 45.76H84.398V49.76ZM87.07 55.056C87.8807 55.056 88.51 54.864 88.958 54.48C89.4167 54.096 89.646 53.568 89.646 52.896C89.646 52.224 89.406 51.6907 88.926 51.296C88.4567 50.8907 87.822 50.688 87.022 50.688H84.398V55.056H87.07ZM93.6249 48.816C93.8703 48.272 94.2436 47.8507 94.7449 47.552C95.2569 47.2533 95.8809 47.104 96.6169 47.104V48.272H96.3129C95.5023 48.272 94.8516 48.4907 94.3609 48.928C93.8703 49.3653 93.6249 50.096 93.6249 51.12V56H92.5049V47.264H93.6249V48.816ZM97.4698 51.616C97.4698 50.72 97.6458 49.936 97.9978 49.264C98.3605 48.5813 98.8565 48.0587 99.4858 47.696C100.126 47.3227 100.846 47.136 101.646 47.136C102.478 47.136 103.192 47.328 103.79 47.712C104.398 48.096 104.835 48.5867 105.102 49.184V47.264H106.222V56H105.102V54.064C104.824 54.6613 104.382 55.1573 103.774 55.552C103.176 55.936 102.462 56.128 101.63 56.128C100.84 56.128 100.126 55.9413 99.4858 55.568C98.8565 55.1947 98.3605 54.6667 97.9978 53.984C97.6458 53.3013 97.4698 52.512 97.4698 51.616ZM105.102 51.632C105.102 50.928 104.958 50.3093 104.67 49.776C104.382 49.2427 103.987 48.832 103.486 48.544C102.995 48.256 102.451 48.112 101.854 48.112C101.235 48.112 100.68 48.2507 100.19 48.528C99.6991 48.8053 99.3098 49.2107 99.0218 49.744C98.7445 50.2667 98.6058 50.8907 98.6058 51.616C98.6058 52.3307 98.7445 52.96 99.0218 53.504C99.3098 54.0373 99.6991 54.448 100.19 54.736C100.68 55.0133 101.235 55.152 101.854 55.152C102.451 55.152 102.995 55.008 103.486 54.72C103.987 54.432 104.382 54.0213 104.67 53.488C104.958 52.9547 105.102 52.336 105.102 51.632ZM112.555 47.104C113.6 47.104 114.453 47.4293 115.115 48.08C115.776 48.72 116.107 49.6533 116.107 50.88V56H115.003V51.008C115.003 50.0587 114.763 49.3333 114.283 48.832C113.813 48.3307 113.168 48.08 112.347 48.08C111.504 48.08 110.832 48.3467 110.331 48.88C109.829 49.4133 109.579 50.1973 109.579 51.232V56H108.459V47.264H109.579V48.752C109.856 48.2187 110.256 47.8133 110.779 47.536C111.301 47.248 111.893 47.104 112.555 47.104ZM117.752 51.616C117.752 50.72 117.933 49.936 118.296 49.264C118.658 48.5813 119.154 48.0587 119.784 47.696C120.424 47.3227 121.144 47.136 121.944 47.136C122.712 47.136 123.405 47.3227 124.024 47.696C124.642 48.0693 125.096 48.5547 125.384 49.152V44.16H126.504V56H125.384V54.048C125.117 54.656 124.68 55.1573 124.072 55.552C123.464 55.936 122.749 56.128 121.928 56.128C121.128 56.128 120.408 55.9413 119.768 55.568C119.138 55.1947 118.642 54.6667 118.28 53.984C117.928 53.3013 117.752 52.512 117.752 51.616ZM125.384 51.632C125.384 50.928 125.24 50.3093 124.952 49.776C124.664 49.2427 124.269 48.832 123.768 48.544C123.277 48.256 122.733 48.112 122.136 48.112C121.517 48.112 120.962 48.2507 120.472 48.528C119.981 48.8053 119.592 49.2107 119.304 49.744C119.026 50.2667 118.888 50.8907 118.888 51.616C118.888 52.3307 119.026 52.96 119.304 53.504C119.592 54.0373 119.981 54.448 120.472 54.736C120.962 55.0133 121.517 55.152 122.136 55.152C122.733 55.152 123.277 55.008 123.768 54.72C124.269 54.432 124.664 54.0213 124.952 53.488C125.24 52.9547 125.384 52.336 125.384 51.632ZM129.301 45.616C129.077 45.616 128.885 45.536 128.725 45.376C128.565 45.216 128.485 45.0187 128.485 44.784C128.485 44.5493 128.565 44.3573 128.725 44.208C128.885 44.048 129.077 43.968 129.301 43.968C129.525 43.968 129.717 44.048 129.877 44.208C130.037 44.3573 130.117 44.5493 130.117 44.784C130.117 45.0187 130.037 45.216 129.877 45.376C129.717 45.536 129.525 45.616 129.301 45.616ZM129.861 47.264V56H128.741V47.264H129.861ZM136.173 47.104C137.218 47.104 138.071 47.4293 138.733 48.08C139.394 48.72 139.725 49.6533 139.725 50.88V56H138.621V51.008C138.621 50.0587 138.381 49.3333 137.901 48.832C137.431 48.3307 136.786 48.08 135.965 48.08C135.122 48.08 134.45 48.3467 133.949 48.88C133.447 49.4133 133.197 50.1973 133.197 51.232V56H132.077V47.264H133.197V48.752C133.474 48.2187 133.874 47.8133 134.397 47.536C134.919 47.248 135.511 47.104 136.173 47.104ZM145.546 47.136C146.367 47.136 147.082 47.328 147.69 47.712C148.298 48.096 148.735 48.5813 149.002 49.168V47.264H150.122V56.224C150.122 57.024 149.946 57.7333 149.594 58.352C149.252 58.9707 148.772 59.4453 148.154 59.776C147.535 60.1173 146.831 60.288 146.042 60.288C144.922 60.288 143.988 60.0213 143.242 59.488C142.506 58.9547 142.047 58.2293 141.866 57.312H142.97C143.162 57.92 143.524 58.4053 144.058 58.768C144.602 59.1307 145.263 59.312 146.042 59.312C146.607 59.312 147.114 59.1893 147.562 58.944C148.01 58.7093 148.362 58.3573 148.618 57.888C148.874 57.4187 149.002 56.864 149.002 56.224V54.064C148.724 54.6613 148.282 55.1573 147.674 55.552C147.076 55.936 146.367 56.128 145.546 56.128C144.746 56.128 144.026 55.9413 143.386 55.568C142.756 55.1947 142.26 54.6667 141.898 53.984C141.546 53.3013 141.37 52.512 141.37 51.616C141.37 50.72 141.546 49.936 141.898 49.264C142.26 48.5813 142.756 48.0587 143.386 47.696C144.026 47.3227 144.746 47.136 145.546 47.136ZM149.002 51.632C149.002 50.928 148.858 50.3093 148.57 49.776C148.282 49.2427 147.887 48.832 147.386 48.544C146.895 48.256 146.351 48.112 145.754 48.112C145.135 48.112 144.58 48.2507 144.09 48.528C143.599 48.8053 143.21 49.2107 142.922 49.744C142.644 50.2667 142.506 50.8907 142.506 51.616C142.506 52.3307 142.644 52.96 142.922 53.504C143.21 54.0373 143.599 54.448 144.09 54.736C144.58 55.0133 145.135 55.152 145.754 55.152C146.351 55.152 146.895 55.008 147.386 54.72C147.887 54.432 148.282 54.0213 148.57 53.488C148.858 52.9547 149.002 52.336 149.002 51.632ZM161.853 49.6V50.544H155.629V49.6H161.853ZM171.789 44.816C173.026 44.816 174.087 45.04 174.973 45.488C175.858 45.936 176.535 46.5813 177.005 47.424C177.474 48.2667 177.709 49.2693 177.709 50.432C177.709 51.584 177.474 52.5813 177.005 53.424C176.535 54.256 175.858 54.896 174.973 55.344C174.087 55.7813 173.026 56 171.789 56H168.477V44.816H171.789ZM171.789 55.072C173.346 55.072 174.53 54.6667 175.341 53.856C176.162 53.0347 176.573 51.8933 176.573 50.432C176.573 48.96 176.162 47.8133 175.341 46.992C174.53 46.16 173.346 45.744 171.789 45.744H169.597V55.072H171.789ZM187.358 51.184C187.358 51.568 187.347 51.8613 187.326 52.064H180.078C180.11 52.7253 180.27 53.2907 180.558 53.76C180.846 54.2293 181.224 54.5867 181.694 54.832C182.163 55.0667 182.675 55.184 183.23 55.184C183.955 55.184 184.563 55.008 185.054 54.656C185.555 54.304 185.886 53.8293 186.046 53.232H187.23C187.016 54.0853 186.558 54.784 185.854 55.328C185.16 55.8613 184.286 56.128 183.23 56.128C182.408 56.128 181.672 55.9467 181.022 55.584C180.371 55.2107 179.859 54.688 179.486 54.016C179.123 53.3333 178.942 52.5387 178.942 51.632C178.942 50.7253 179.123 49.9307 179.486 49.248C179.848 48.5653 180.355 48.0427 181.006 47.68C181.656 47.3173 182.398 47.136 183.23 47.136C184.062 47.136 184.787 47.3173 185.406 47.68C186.035 48.0427 186.515 48.5333 186.846 49.152C187.187 49.76 187.358 50.4373 187.358 51.184ZM186.222 51.152C186.232 50.5013 186.099 49.9467 185.822 49.488C185.555 49.0293 185.187 48.6827 184.718 48.448C184.248 48.2133 183.736 48.096 183.182 48.096C182.35 48.096 181.64 48.3627 181.054 48.896C180.467 49.4293 180.142 50.1813 180.078 51.152H186.222ZM192.095 56.128C191.092 56.128 190.271 55.8987 189.631 55.44C189.001 54.9707 188.649 54.336 188.575 53.536H189.727C189.78 54.0267 190.009 54.4267 190.415 54.736C190.831 55.0347 191.385 55.184 192.079 55.184C192.687 55.184 193.161 55.04 193.503 54.752C193.855 54.464 194.031 54.1067 194.031 53.68C194.031 53.3813 193.935 53.136 193.743 52.944C193.551 52.752 193.305 52.6027 193.007 52.496C192.719 52.3787 192.324 52.256 191.823 52.128C191.172 51.9573 190.644 51.7867 190.239 51.616C189.833 51.4453 189.487 51.1947 189.199 50.864C188.921 50.5227 188.783 50.0693 188.783 49.504C188.783 49.0773 188.911 48.6827 189.167 48.32C189.423 47.9573 189.785 47.6693 190.255 47.456C190.724 47.2427 191.257 47.136 191.855 47.136C192.793 47.136 193.551 47.376 194.127 47.856C194.703 48.3253 195.012 48.976 195.055 49.808H193.935C193.903 49.296 193.7 48.8853 193.327 48.576C192.964 48.256 192.463 48.096 191.823 48.096C191.257 48.096 190.799 48.2293 190.447 48.496C190.095 48.7627 189.919 49.0933 189.919 49.488C189.919 49.8293 190.02 50.112 190.223 50.336C190.436 50.5493 190.697 50.72 191.007 50.848C191.316 50.9653 191.732 51.0987 192.255 51.248C192.884 51.4187 193.385 51.584 193.759 51.744C194.132 51.904 194.452 52.1387 194.719 52.448C194.985 52.7573 195.124 53.168 195.135 53.68C195.135 54.1493 195.007 54.5707 194.751 54.944C194.495 55.3067 194.137 55.5947 193.679 55.808C193.22 56.0213 192.692 56.128 192.095 56.128ZM197.483 45.616C197.259 45.616 197.067 45.536 196.907 45.376C196.747 45.216 196.667 45.0187 196.667 44.784C196.667 44.5493 196.747 44.3573 196.907 44.208C197.067 44.048 197.259 43.968 197.483 43.968C197.707 43.968 197.899 44.048 198.059 44.208C198.219 44.3573 198.299 44.5493 198.299 44.784C198.299 45.0187 198.219 45.216 198.059 45.376C197.899 45.536 197.707 45.616 197.483 45.616ZM198.043 47.264V56H196.923V47.264H198.043ZM203.923 47.136C204.745 47.136 205.459 47.328 206.067 47.712C206.675 48.096 207.113 48.5813 207.379 49.168V47.264H208.499V56.224C208.499 57.024 208.323 57.7333 207.971 58.352C207.63 58.9707 207.15 59.4453 206.531 59.776C205.913 60.1173 205.209 60.288 204.419 60.288C203.299 60.288 202.366 60.0213 201.619 59.488C200.883 58.9547 200.425 58.2293 200.243 57.312H201.347C201.539 57.92 201.902 58.4053 202.435 58.768C202.979 59.1307 203.641 59.312 204.419 59.312C204.985 59.312 205.491 59.1893 205.939 58.944C206.387 58.7093 206.739 58.3573 206.995 57.888C207.251 57.4187 207.379 56.864 207.379 56.224V54.064C207.102 54.6613 206.659 55.1573 206.051 55.552C205.454 55.936 204.745 56.128 203.923 56.128C203.123 56.128 202.403 55.9413 201.763 55.568C201.134 55.1947 200.638 54.6667 200.275 53.984C199.923 53.3013 199.747 52.512 199.747 51.616C199.747 50.72 199.923 49.936 200.275 49.264C200.638 48.5813 201.134 48.0587 201.763 47.696C202.403 47.3227 203.123 47.136 203.923 47.136ZM207.379 51.632C207.379 50.928 207.235 50.3093 206.947 49.776C206.659 49.2427 206.265 48.832 205.763 48.544C205.273 48.256 204.729 48.112 204.131 48.112C203.513 48.112 202.958 48.2507 202.467 48.528C201.977 48.8053 201.587 49.2107 201.299 49.744C201.022 50.2667 200.883 50.8907 200.883 51.616C200.883 52.3307 201.022 52.96 201.299 53.504C201.587 54.0373 201.977 54.448 202.467 54.736C202.958 55.0133 203.513 55.152 204.131 55.152C204.729 55.152 205.273 55.008 205.763 54.72C206.265 54.432 206.659 54.0213 206.947 53.488C207.235 52.9547 207.379 52.336 207.379 51.632ZM214.832 47.104C215.878 47.104 216.731 47.4293 217.392 48.08C218.054 48.72 218.384 49.6533 218.384 50.88V56H217.28V51.008C217.28 50.0587 217.04 49.3333 216.56 48.832C216.091 48.3307 215.446 48.08 214.624 48.08C213.782 48.08 213.11 48.3467 212.608 48.88C212.107 49.4133 211.856 50.1973 211.856 51.232V56H210.736V47.264H211.856V48.752C212.134 48.2187 212.534 47.8133 213.056 47.536C213.579 47.248 214.171 47.104 214.832 47.104Z" fill="#B1B9CF"/>
</svg>
