<svg width="274" height="232" viewBox="0 0 274 232" fill="none" xmlns="http://www.w3.org/2000/svg">
<g filter="url(#filter0_i_807_1937)">
<path d="M0 59.7C0 31.7076 0 17.7114 8.62084 8.95406C8.73104 8.84212 8.84212 8.73104 8.95406 8.62084C17.7114 0 31.7076 0 59.7 0H214.3C242.292 0 256.289 0 265.046 8.62084C265.158 8.73104 265.269 8.84212 265.379 8.95406C274 17.7114 274 31.7076 274 59.7V172.3C274 200.292 274 214.289 265.379 223.046C265.269 223.158 265.158 223.269 265.046 223.379C256.289 232 242.292 232 214.3 232H59.7C31.7076 232 17.7114 232 8.95406 223.379C8.84212 223.269 8.73104 223.158 8.62084 223.046C0 214.289 0 200.292 0 172.3V59.7Z" fill="#0556EA" fill-opacity="0.1"/>
<path d="M59.7002 0.5H214.3C228.31 0.5 238.768 0.501052 246.82 1.57324C254.858 2.64356 260.425 4.77362 264.695 8.97754C264.805 9.08569 264.914 9.19475 265.022 9.30469C269.226 13.5752 271.356 19.1418 272.427 27.1797C273.499 35.2318 273.5 45.69 273.5 59.7002V172.3C273.5 186.31 273.499 196.768 272.427 204.82C271.356 212.858 269.226 218.425 265.022 222.695C264.914 222.805 264.805 222.914 264.695 223.022C260.425 227.226 254.858 229.356 246.82 230.427C238.768 231.499 228.31 231.5 214.3 231.5H59.7002C45.69 231.5 35.2318 231.499 27.1797 230.427C19.1418 229.356 13.5752 227.226 9.30469 223.022C9.19478 222.914 9.08573 222.805 8.97754 222.695C4.77362 218.425 2.64356 212.858 1.57324 204.82C0.501052 196.768 0.5 186.31 0.5 172.3V59.7002C0.5 45.69 0.501052 35.2318 1.57324 27.1797C2.64356 19.1418 4.77362 13.5752 8.97754 9.30469C9.08573 9.19478 9.19478 9.08573 9.30469 8.97754C13.5752 4.77362 19.1418 2.64356 27.1797 1.57324C35.2318 0.501052 45.69 0.5 59.7002 0.5Z" stroke="url(#paint0_linear_807_1937)"/>
<path d="M65.46 73.024H54.012L51.816 79H49.152L58.332 54.16H61.176L70.32 79H67.656L65.46 73.024ZM64.704 70.936L59.736 57.328L54.768 70.936H64.704ZM83.5804 58.984C85.9324 58.984 87.8524 59.716 89.3404 61.18C90.8284 62.62 91.5724 64.72 91.5724 67.48V79H89.0884V67.768C89.0884 65.632 88.5484 64 87.4684 62.872C86.4124 61.744 84.9604 61.18 83.1124 61.18C81.2164 61.18 79.7044 61.78 78.5764 62.98C77.4484 64.18 76.8844 65.944 76.8844 68.272V79H74.3644V59.344H76.8844V62.692C77.5084 61.492 78.4084 60.58 79.5844 59.956C80.7604 59.308 82.0924 58.984 83.5804 58.984ZM95.9936 69.136C95.9936 67.12 96.4016 65.356 97.2176 63.844C98.0336 62.308 99.1496 61.132 100.566 60.316C102.006 59.476 103.626 59.056 105.426 59.056C107.154 59.056 108.714 59.476 110.106 60.316C111.498 61.156 112.518 62.248 113.166 63.592V52.36H115.686V79H113.166V74.608C112.566 75.976 111.582 77.104 110.214 77.992C108.846 78.856 107.238 79.288 105.39 79.288C103.59 79.288 101.97 78.868 100.53 78.028C99.1136 77.188 97.9976 76 97.1816 74.464C96.3896 72.928 95.9936 71.152 95.9936 69.136ZM113.166 69.172C113.166 67.588 112.842 66.196 112.194 64.996C111.546 63.796 110.658 62.872 109.53 62.224C108.426 61.576 107.202 61.252 105.858 61.252C104.466 61.252 103.218 61.564 102.114 62.188C101.01 62.812 100.134 63.724 99.4856 64.924C98.8616 66.1 98.5496 67.504 98.5496 69.136C98.5496 70.744 98.8616 72.16 99.4856 73.384C100.134 74.584 101.01 75.508 102.114 76.156C103.218 76.78 104.466 77.092 105.858 77.092C107.202 77.092 108.426 76.768 109.53 76.12C110.658 75.472 111.546 74.548 112.194 73.348C112.842 72.148 113.166 70.756 113.166 69.172ZM74.28 108.984C76.584 108.984 78.456 109.716 79.896 111.18C81.36 112.62 82.092 114.72 82.092 117.48V129H79.608V117.768C79.608 115.632 79.092 114 78.06 112.872C77.028 111.744 75.624 111.18 73.848 111.18C72 111.18 70.524 111.792 69.42 113.016C68.316 114.24 67.764 116.016 67.764 118.344V129H65.28V117.768C65.28 115.632 64.764 114 63.732 112.872C62.7 111.744 61.284 111.18 59.484 111.18C57.636 111.18 56.16 111.792 55.056 113.016C53.952 114.24 53.4 116.016 53.4 118.344V129H50.88V109.344H53.4V112.728C54.024 111.504 54.912 110.58 56.064 109.956C57.216 109.308 58.5 108.984 59.916 108.984C61.62 108.984 63.108 109.392 64.38 110.208C65.676 111.024 66.612 112.224 67.188 113.808C67.716 112.248 68.616 111.06 69.888 110.244C71.184 109.404 72.648 108.984 74.28 108.984ZM104.717 109.344V129H102.197V125.544C101.621 126.768 100.733 127.704 99.5326 128.352C98.3326 129 96.9886 129.324 95.5006 129.324C93.1486 129.324 91.2286 128.604 89.7406 127.164C88.2526 125.7 87.5086 123.588 87.5086 120.828V109.344H89.9926V120.54C89.9926 122.676 90.5206 124.308 91.5766 125.436C92.6566 126.564 94.1206 127.128 95.9686 127.128C97.8646 127.128 99.3766 126.528 100.505 125.328C101.633 124.128 102.197 122.364 102.197 120.036V109.344H104.717ZM109.318 119.172C109.318 117.132 109.726 115.356 110.542 113.844C111.358 112.308 112.486 111.132 113.926 110.316C115.366 109.476 117.01 109.056 118.858 109.056C121.282 109.056 123.274 109.656 124.834 110.856C126.418 112.056 127.438 113.688 127.894 115.752H125.194C124.858 114.336 124.126 113.232 122.998 112.44C121.894 111.624 120.514 111.216 118.858 111.216C117.538 111.216 116.35 111.516 115.294 112.116C114.238 112.716 113.398 113.616 112.774 114.816C112.174 115.992 111.874 117.444 111.874 119.172C111.874 120.9 112.174 122.364 112.774 123.564C113.398 124.764 114.238 125.664 115.294 126.264C116.35 126.864 117.538 127.164 118.858 127.164C120.514 127.164 121.894 126.768 122.998 125.976C124.126 125.16 124.858 124.032 125.194 122.592H127.894C127.438 124.608 126.418 126.228 124.834 127.452C123.25 128.676 121.258 129.288 118.858 129.288C117.01 129.288 115.366 128.88 113.926 128.064C112.486 127.224 111.358 126.048 110.542 124.536C109.726 123 109.318 121.212 109.318 119.172ZM141.908 108.984C143.396 108.984 144.728 109.296 145.904 109.92C147.104 110.544 148.04 111.504 148.712 112.8C149.408 114.072 149.756 115.632 149.756 117.48V129H147.272V117.768C147.272 115.632 146.732 114 145.652 112.872C144.596 111.744 143.144 111.18 141.296 111.18C139.4 111.18 137.888 111.78 136.76 112.98C135.632 114.18 135.068 115.944 135.068 118.272V129H132.548V102.36H135.068V112.692C135.692 111.516 136.604 110.604 137.804 109.956C139.028 109.308 140.396 108.984 141.908 108.984ZM74.28 158.984C76.584 158.984 78.456 159.716 79.896 161.18C81.36 162.62 82.092 164.72 82.092 167.48V179H79.608V167.768C79.608 165.632 79.092 164 78.06 162.872C77.028 161.744 75.624 161.18 73.848 161.18C72 161.18 70.524 161.792 69.42 163.016C68.316 164.24 67.764 166.016 67.764 168.344V179H65.28V167.768C65.28 165.632 64.764 164 63.732 162.872C62.7 161.744 61.284 161.18 59.484 161.18C57.636 161.18 56.16 161.792 55.056 163.016C53.952 164.24 53.4 166.016 53.4 168.344V179H50.88V159.344H53.4V162.728C54.024 161.504 54.912 160.58 56.064 159.956C57.216 159.308 58.5 158.984 59.916 158.984C61.62 158.984 63.108 159.392 64.38 160.208C65.676 161.024 66.612 162.224 67.188 163.808C67.716 162.248 68.616 161.06 69.888 160.244C71.184 159.404 72.648 158.984 74.28 158.984ZM96.2926 179.288C94.4446 179.288 92.7766 178.88 91.2886 178.064C89.8246 177.224 88.6606 176.048 87.7966 174.536C86.9566 173 86.5366 171.212 86.5366 169.172C86.5366 167.132 86.9686 165.356 87.8326 163.844C88.6966 162.308 89.8726 161.132 91.3606 160.316C92.8486 159.476 94.5166 159.056 96.3646 159.056C98.2126 159.056 99.8806 159.476 101.369 160.316C102.881 161.132 104.057 162.308 104.897 163.844C105.761 165.356 106.193 167.132 106.193 169.172C106.193 171.188 105.761 172.964 104.897 174.5C104.033 176.036 102.845 177.224 101.333 178.064C99.8206 178.88 98.1406 179.288 96.2926 179.288ZM96.2926 177.092C97.5886 177.092 98.7886 176.804 99.8926 176.228C100.997 175.628 101.885 174.74 102.557 173.564C103.253 172.364 103.601 170.9 103.601 169.172C103.601 167.444 103.265 165.992 102.593 164.816C101.921 163.616 101.033 162.728 99.9286 162.152C98.8246 161.552 97.6246 161.252 96.3286 161.252C95.0326 161.252 93.8326 161.552 92.7286 162.152C91.6246 162.728 90.7366 163.616 90.0646 164.816C89.4166 165.992 89.0926 167.444 89.0926 169.172C89.0926 170.9 89.4166 172.364 90.0646 173.564C90.7366 174.74 91.6126 175.628 92.6926 176.228C93.7966 176.804 94.9966 177.092 96.2926 177.092ZM113.306 162.836C113.858 161.612 114.698 160.664 115.826 159.992C116.978 159.32 118.382 158.984 120.038 158.984V161.612H119.354C117.53 161.612 116.066 162.104 114.962 163.088C113.858 164.072 113.306 165.716 113.306 168.02V179H110.786V159.344H113.306V162.836ZM141.613 168.164C141.613 169.028 141.589 169.688 141.541 170.144H125.233C125.305 171.632 125.665 172.904 126.313 173.96C126.961 175.016 127.813 175.82 128.869 176.372C129.925 176.9 131.077 177.164 132.325 177.164C133.957 177.164 135.325 176.768 136.429 175.976C137.557 175.184 138.301 174.116 138.661 172.772H141.325C140.845 174.692 139.813 176.264 138.229 177.488C136.669 178.688 134.701 179.288 132.325 179.288C130.477 179.288 128.821 178.88 127.357 178.064C125.893 177.224 124.741 176.048 123.901 174.536C123.085 173 122.677 171.212 122.677 169.172C122.677 167.132 123.085 165.344 123.901 163.808C124.717 162.272 125.857 161.096 127.321 160.28C128.785 159.464 130.453 159.056 132.325 159.056C134.197 159.056 135.829 159.464 137.221 160.28C138.637 161.096 139.717 162.2 140.461 163.592C141.229 164.96 141.613 166.484 141.613 168.164ZM139.057 168.092C139.081 166.628 138.781 165.38 138.157 164.348C137.557 163.316 136.729 162.536 135.673 162.008C134.617 161.48 133.465 161.216 132.217 161.216C130.345 161.216 128.749 161.816 127.429 163.016C126.109 164.216 125.377 165.908 125.233 168.092H139.057ZM146.656 179.18C146.128 179.18 145.684 179 145.324 178.64C144.988 178.28 144.82 177.836 144.82 177.308C144.82 176.78 144.988 176.348 145.324 176.012C145.684 175.652 146.128 175.472 146.656 175.472C147.16 175.472 147.58 175.652 147.916 176.012C148.276 176.348 148.456 176.78 148.456 177.308C148.456 177.836 148.276 178.28 147.916 178.64C147.58 179 147.16 179.18 146.656 179.18ZM153.195 179.18C152.667 179.18 152.223 179 151.863 178.64C151.527 178.28 151.359 177.836 151.359 177.308C151.359 176.78 151.527 176.348 151.863 176.012C152.223 175.652 152.667 175.472 153.195 175.472C153.699 175.472 154.119 175.652 154.455 176.012C154.815 176.348 154.995 176.78 154.995 177.308C154.995 177.836 154.815 178.28 154.455 178.64C154.119 179 153.699 179.18 153.195 179.18ZM159.734 179.18C159.206 179.18 158.762 179 158.402 178.64C158.066 178.28 157.898 177.836 157.898 177.308C157.898 176.78 158.066 176.348 158.402 176.012C158.762 175.652 159.206 175.472 159.734 175.472C160.238 175.472 160.658 175.652 160.994 176.012C161.354 176.348 161.534 176.78 161.534 177.308C161.534 177.836 161.354 178.28 160.994 178.64C160.658 179 160.238 179.18 159.734 179.18Z" fill="white"/>
<path d="M185.528 47C188.238 47 190.436 49.1972 190.436 51.9072V60.0693C190.436 61.6747 191.737 62.9763 193.342 62.9766H201.093C203.803 62.9766 206 65.1737 206 67.8838V70.1162C206 72.8263 203.803 75.0234 201.093 75.0234H193.342C191.737 75.0237 190.436 76.3253 190.436 77.9307V86.0928C190.436 88.8028 188.238 91 185.528 91H182.472C179.762 91 177.564 88.8028 177.564 86.0928V77.9307C177.564 76.3253 176.263 75.0237 174.658 75.0234H166.907C164.197 75.0234 162 72.8263 162 70.1162V67.8838C162 65.1737 164.197 62.9766 166.907 62.9766H174.658C176.263 62.9763 177.564 61.6747 177.564 60.0693V51.9072C177.564 49.1972 179.762 47 182.472 47H185.528Z" stroke="white" stroke-width="2"/>
</g>
<defs>
<filter id="filter0_i_807_1937" x="0" y="0" width="274" height="232" filterUnits="userSpaceOnUse" color-interpolation-filters="sRGB">
<feFlood flood-opacity="0" result="BackgroundImageFix"/>
<feBlend mode="normal" in="SourceGraphic" in2="BackgroundImageFix" result="shape"/>
<feColorMatrix in="SourceAlpha" type="matrix" values="0 0 0 0 0 0 0 0 0 0 0 0 0 0 0 0 0 0 127 0" result="hardAlpha"/>
<feOffset/>
<feGaussianBlur stdDeviation="22"/>
<feComposite in2="hardAlpha" operator="arithmetic" k2="-1" k3="1"/>
<feColorMatrix type="matrix" values="0 0 0 0 1 0 0 0 0 1 0 0 0 0 1 0 0 0 0.1 0"/>
<feBlend mode="normal" in2="shape" result="effect1_innerShadow_807_1937"/>
</filter>
<linearGradient id="paint0_linear_807_1937" x1="0" y1="0" x2="309.839" y2="62.8186" gradientUnits="userSpaceOnUse">
<stop stop-color="white" stop-opacity="0.1"/>
<stop offset="1" stop-color="white" stop-opacity="0.5"/>
</linearGradient>
</defs>
</svg>
