<svg width="250" height="58" viewBox="0 0 250 58" fill="none" xmlns="http://www.w3.org/2000/svg">
<g clip-path="url(#clip0_975_170)">
<path d="M105.124 47.9971C111.501 48.0362 117.639 47.6671 124.038 47.6664C131.983 47.6655 140.055 48.0182 148.019 47.9525C155.936 47.8868 163.892 47.7925 171.823 47.6761C179.762 47.5598 187.69 47.4216 195.633 47.2684C203.56 47.1153 211.504 46.9473 219.437 46.771C224.825 46.6513 230.219 46.5277 235.607 46.4025C237.972 46.3477 240.33 46.2926 242.694 46.2373C244.457 46.1959 246.221 46.1546 247.984 46.1133C248.23 46.1074 248.464 46.0838 248.638 46.0462C248.811 46.0086 248.909 45.9605 248.908 45.9107C248.908 45.8609 248.81 45.8127 248.636 45.7752C248.462 45.7379 248.227 45.7145 247.982 45.7089C246.203 45.6689 244.425 45.6288 242.646 45.5888C240.671 45.5444 238.699 45.4999 236.724 45.4557C236.413 45.6599 235.987 45.8148 235.187 45.8832C234.779 45.9181 234.184 45.9326 233.746 45.8946C233.352 45.8606 233.056 45.7998 232.774 45.7418C232.48 45.6813 232.2 45.6237 231.841 45.6034C231.231 45.5689 230.651 45.4822 230.042 45.3912C229.82 45.358 229.594 45.3242 229.362 45.2922C227.477 45.2507 225.591 45.2095 223.706 45.1686C222.978 45.1904 222.309 45.208 221.741 45.1996C221.232 45.1921 220.765 45.1489 220.301 45.0953C220.009 45.089 219.717 45.0828 219.425 45.0765C217.542 45.0363 215.658 44.9968 213.774 44.9576C212.304 45.0121 210.763 45.065 208.759 45.0882C207.896 45.0982 207.044 45.1277 206.225 45.156C205.016 45.1977 203.878 45.237 202.88 45.2076C202.213 45.188 201.512 45.2169 200.812 45.2457C199.874 45.2843 198.937 45.3228 198.088 45.2442C197.554 45.1948 197.064 45.1347 196.609 45.079C195.887 44.9903 195.256 44.9127 194.684 44.9074C193.61 44.8974 192.68 44.8328 191.86 44.7758C190.874 44.7073 190.047 44.6498 189.321 44.7117C189.211 44.7211 189.085 44.7336 188.943 44.7478C188.196 44.8226 187 44.9422 185.284 44.8764C184.673 44.853 184.099 44.7921 183.537 44.7324C182.718 44.6455 181.924 44.5611 181.073 44.5986C180.946 44.6042 180.813 44.6278 180.692 44.6493C180.538 44.6767 180.404 44.7005 180.325 44.6798C180.091 44.6189 179.721 44.5515 179.319 44.4782C179.024 44.4244 178.71 44.3673 178.422 44.3074C176.217 44.2735 174.011 44.2411 171.806 44.2104C170.795 44.1963 169.784 44.1826 168.773 44.1692C168.256 44.2609 167.727 44.3436 167.168 44.4061C166.438 44.4878 165.491 44.5128 164.271 44.5452C163.373 44.5691 162.327 44.597 161.109 44.6542C158.855 44.76 156.54 44.7363 155.056 44.6795C154.742 44.6675 154.427 44.6547 154.09 44.6408C152.81 44.5879 151.213 44.5217 148.18 44.4487C145.311 44.3797 142.871 44.3618 141.038 44.3483C140.102 44.3415 139.324 44.3359 138.729 44.3252C137.709 44.3068 136.457 44.2904 135.2 44.274C133.233 44.2484 131.254 44.2227 130.134 44.1885C129.735 44.1763 129.316 44.1612 128.864 44.1451C127.612 44.1004 126.099 44.0466 124.013 44.0154C121.824 43.9828 120.467 44.005 119.058 44.0535C118.485 44.0731 117.979 44.151 117.459 44.2314C116.72 44.3455 115.949 44.4645 114.906 44.429C114.663 44.4207 114.403 44.4022 114.132 44.3827C113.633 44.347 113.093 44.3082 112.54 44.3252C112.348 44.3311 112.178 44.3522 112.011 44.373C111.828 44.3957 111.649 44.418 111.445 44.4193C110.686 44.4239 109.947 44.4186 109.29 44.4139C108.443 44.4078 107.733 44.4027 107.292 44.4212C106.507 44.4542 105.648 44.4247 104.778 44.3946C104.114 44.3717 103.442 44.3484 102.793 44.3527C100.936 44.3651 98.3822 44.3089 95.7511 44.2153C94.7555 44.1799 93.9121 44.2282 92.8313 44.2903C92.1591 44.329 91.395 44.3731 90.4452 44.4054C89.9068 44.4237 89.4508 44.3806 89.0285 44.3408C88.6396 44.3041 88.279 44.2702 87.9091 44.2894C87.5825 44.3063 87.3759 44.3787 87.1799 44.4475C86.9616 44.5241 86.7563 44.5961 86.4127 44.582C86.2299 44.5746 86.0076 44.5383 85.7433 44.4953C85.6387 44.4783 85.5271 44.4602 85.409 44.4424C85.4151 44.4571 85.4165 44.4702 85.4166 44.4802C85.417 44.5505 85.0665 44.5875 84.7225 44.6237C84.5852 44.6382 84.4484 44.6525 84.3361 44.6688C83.9226 44.7288 83.1397 44.7386 82.5415 44.7358C82.2884 44.7347 82.0591 44.7565 81.7914 44.7819C81.5538 44.8045 81.286 44.83 80.9444 44.8448C80.7497 44.8532 80.6001 44.8736 80.4763 44.8906C80.3868 44.9029 80.3106 44.9134 80.2399 44.9162C80.1787 44.9185 80.1293 44.8984 80.0737 44.8757C80.0338 44.8594 79.9903 44.8417 79.937 44.8301C79.8095 44.8025 79.6456 44.7942 79.5306 44.8031C79.4775 44.8072 79.4355 44.815 79.3939 44.8228C79.3454 44.8319 79.2971 44.8411 79.2306 44.8443C78.9253 44.859 78.6285 44.836 78.32 44.8121C77.981 44.7859 77.6274 44.7586 77.2338 44.779C77.1099 44.7854 76.9779 44.8001 76.8502 44.8143C76.7165 44.8292 76.5865 44.8436 76.4761 44.8474C76.0275 44.863 75.6059 44.8128 75.218 44.7665C74.96 44.7358 74.7166 44.7069 74.4907 44.7002C74.0765 44.6881 73.8541 44.6278 73.6902 44.5833C73.6053 44.5602 73.5359 44.5412 73.4633 44.5355C73.3967 44.5372 73.3291 44.5392 73.2629 44.5414C73.2022 44.5458 73.1395 44.5504 73.0806 44.5489C73.0762 44.5488 73.0718 44.5485 73.0674 44.5484C72.697 44.563 72.3331 44.5838 71.9716 44.6045C71.1596 44.6509 70.3576 44.6969 69.5095 44.671C69.3268 44.6654 69.1406 44.6405 68.9512 44.6152C68.7192 44.5842 68.4818 44.5525 68.2401 44.5548C67.6638 44.5602 67.0821 44.6013 66.5091 44.6418C65.6474 44.7026 64.8051 44.7621 64.0309 44.6968C63.7754 44.6753 63.5261 44.6394 63.276 44.6033C63.1367 44.5831 62.9966 44.5628 62.8554 44.545C62.8853 44.578 62.9013 44.609 62.9162 44.6379C62.9468 44.6974 62.9733 44.7484 63.1089 44.7916C63.4296 44.8939 63.793 45.0348 63.7527 45.1375C63.7417 45.1653 63.7506 45.1964 63.7603 45.2276C63.7846 45.306 63.8093 45.3861 63.5115 45.4223C63.3108 45.4468 62.7951 45.5028 62.4671 45.4428C62.3957 45.4298 62.3522 45.4038 62.3037 45.3751C62.2167 45.3233 62.1132 45.2621 61.8024 45.2479C61.7501 45.2455 61.6931 45.2433 61.6343 45.2413C61.3998 45.2332 61.1372 45.2244 61.039 45.1828C60.9259 45.1349 60.9501 45.08 60.9782 45.0161C61.0149 44.9328 61.0585 44.8339 60.8149 44.7146C60.7666 44.6911 60.6746 44.683 60.6051 44.6769C60.5561 44.6725 60.5187 44.6691 60.5149 44.662C60.5107 44.6538 60.5263 44.6369 60.5462 44.6154C60.6165 44.5398 60.7385 44.4076 60.2291 44.402C60.0913 44.4004 59.9337 44.4067 59.7923 44.4124C59.584 44.4208 59.411 44.4277 59.3878 44.4061C59.3792 44.3979 59.373 44.389 59.3679 44.3798C59.202 44.3824 59.0362 44.385 58.8703 44.3876C58.6576 44.4134 58.359 44.4112 57.9863 44.4083C57.8959 44.4076 57.8005 44.407 57.7015 44.4066C57.3743 44.4119 57.0469 44.4172 56.7197 44.4227C56.4603 44.4336 56.1842 44.4514 55.8927 44.4797C55.3087 44.5364 54.8006 44.6298 54.3042 44.7212C54.095 44.7597 53.8877 44.7979 53.6775 44.8328C53.7594 44.8371 53.8333 44.8422 53.8902 44.8492C54.2795 44.8969 54.4358 44.9908 54.5795 45.0773C54.6751 45.1348 54.7653 45.189 54.9147 45.224C55.1882 45.2881 55.1608 45.363 55.1407 45.4184C55.1303 45.4472 55.1223 45.4707 55.1587 45.4847C55.1881 45.4959 55.2558 45.5012 55.3258 45.5067C55.3868 45.5114 55.4498 45.5164 55.4901 45.5254C55.9792 45.6352 55.8321 45.6989 55.6183 45.7916C55.5003 45.8427 55.3625 45.9027 55.2992 45.9841C55.2449 46.0703 55.2632 46.0955 55.5195 46.1298C55.3198 46.1724 55.1201 46.215 54.9204 46.2575C54.842 46.2548 54.7826 46.2281 54.6991 46.1839C54.5501 46.105 54.0645 46.0761 53.6851 46.0535C53.5094 46.0431 53.3565 46.034 53.2701 46.0219C52.8111 45.9575 52.9446 45.8678 53.0622 45.7889C53.1269 45.7454 53.1865 45.7052 53.1401 45.6743C53.1203 45.6611 53.1486 45.648 53.1771 45.6346C53.1991 45.6243 53.2218 45.6138 53.2227 45.6029C53.2287 45.5244 52.9571 45.466 52.7052 45.4119C52.5609 45.3809 52.4233 45.3511 52.3472 45.3197C52.3241 45.3102 52.3056 45.3005 52.2884 45.291C52.2631 45.2772 52.2385 45.264 52.2 45.2527C52.1124 45.227 51.9318 45.2097 51.7338 45.1908C51.6324 45.1811 51.5264 45.171 51.4262 45.1591C51.2964 45.1437 51.2496 45.1127 51.2002 45.0802C51.1653 45.0572 51.1288 45.0336 51.0616 45.0141C50.94 44.9789 50.6942 44.9662 50.4663 44.9544C50.367 44.9493 50.2709 44.9442 50.1899 44.9376C50.157 44.9349 50.1412 44.9296 50.1377 44.9223C49.7634 44.8977 49.406 44.8725 49.0581 44.8479C47.3141 44.7246 45.8044 44.6176 43.5501 44.6951C43.1239 44.7098 42.6661 44.7069 42.2037 44.6951C40.7241 44.726 39.2437 44.7578 37.7647 44.7904C37.472 44.8612 37.1138 44.9207 36.6899 44.9673C35.8937 45.055 35.0746 45.0737 34.1082 45.0958C33.3936 45.1121 32.5984 45.1304 31.6717 45.1796C30.1148 45.2624 28.5162 45.3324 26.7125 45.3687C24.9165 45.4049 22.8604 45.4316 21.4057 45.4411C20.6127 45.4463 19.7797 45.5096 19.0034 45.5686C17.9115 45.6515 16.9316 45.7258 16.3334 45.618C16.1424 45.5836 15.9577 45.5238 15.7779 45.4657C15.6499 45.4244 15.5237 45.384 15.4 45.3539C15.0708 45.3632 14.7411 45.3725 14.4116 45.3819C13.8261 45.4537 12.9163 45.5307 12.0369 45.4506C11.697 45.4605 11.3569 45.4704 11.0285 45.4803C10.312 45.5012 9.61094 45.5224 8.90352 45.5437C8.67261 45.5508 8.43941 45.5578 8.20563 45.5649C8.20341 45.565 8.2012 45.5651 8.19899 45.5652C7.72842 45.5794 7.25429 45.5938 6.78802 45.6083C6.58831 45.6145 6.38859 45.6206 6.18888 45.6268C5.68136 45.6425 5.17016 45.6582 4.66777 45.6741C4.40187 45.6825 4.13341 45.6909 3.86449 45.6994C3.42822 45.7133 2.98865 45.7271 2.55132 45.7411C1.84408 45.7637 1.14015 45.7866 0.434874 45.8096C0.319533 45.8134 0.208692 45.8254 0.127234 45.8435C0.045805 45.8616 -0.000124478 45.8844 2.53391e-07 45.9078C0.000159735 45.9313 0.0464773 45.9541 0.128184 45.9721C0.209836 45.9902 0.320563 46.0018 0.435824 46.0055C1.1416 46.0279 1.84643 46.0501 2.55417 46.0721C2.99158 46.0856 3.43099 46.0993 3.86734 46.1128C4.13638 46.121 4.40459 46.1292 4.67062 46.1374C5.17307 46.1528 5.6851 46.1682 6.19268 46.1834C6.39239 46.1895 6.5921 46.1955 6.79182 46.2015C7.25935 46.2156 7.73477 46.2295 8.20658 46.2434C8.20943 46.2435 8.21228 46.2436 8.21513 46.2436C8.44725 46.2505 8.67899 46.2573 8.90827 46.2641C9.61597 46.2848 10.3174 46.3053 11.0342 46.3255C11.4046 46.3364 11.7905 46.3471 12.1736 46.3579C12.3869 46.3639 12.5998 46.37 12.8088 46.376C12.9231 46.3791 13.039 46.3823 13.1554 46.3855C15.8282 46.4604 18.4821 46.5325 21.1607 46.6016C23.8293 46.6708 26.5025 46.7371 29.1679 46.8007C31.8397 46.8644 34.5067 46.9253 37.176 46.9838C54.1163 47.3549 71.1244 47.6592 88.1398 47.8497C90.5668 47.877 93.0571 47.9016 95.489 47.9237C97.9474 47.9458 100.355 47.9655 102.82 47.9822C103.569 47.9875 104.336 47.9924 105.124 47.9971Z" fill="#A727DA"/>
</g>
<defs>
<clipPath id="clip0_975_170">
<rect width="250" height="58" fill="white"/>
</clipPath>
</defs>
</svg>
