<svg width="1000" height="295" viewBox="0 0 1000 295" fill="none" xmlns="http://www.w3.org/2000/svg">
<g filter="url(#filter0_dg_6_313)" style="mix-blend-mode:difference">
<path d="M183.828 7.91398L153.726 130.584H111.792L94.9139 55.416L77.6879 130.584H35.7539L5.99991 7.91398H42.8879L57.1559 91.782L76.4699 7.91398H113.88L132.672 91.086L146.94 7.91398H183.828ZM249.804 35.232V55.242H288.954V81.168H249.804V103.266H294.174V130.584H215.7V7.91398H294.174V35.232H249.804ZM362.53 104.484H400.636V130.584H328.426V7.91398H362.53V104.484ZM427.121 68.988C427.121 56.924 429.615 46.194 434.603 36.798C439.707 27.286 446.899 19.92 456.179 14.7C465.459 9.36398 476.131 6.69598 488.195 6.69598C503.507 6.69598 516.383 10.814 526.823 19.05C537.263 27.17 543.991 38.248 547.007 52.284H510.293C508.089 47.644 505.015 44.106 501.071 41.67C497.243 39.234 492.777 38.016 487.673 38.016C479.785 38.016 473.463 40.858 468.707 46.542C464.067 52.11 461.747 59.592 461.747 68.988C461.747 78.5 464.067 86.098 468.707 91.782C473.463 97.35 479.785 100.134 487.673 100.134C492.777 100.134 497.243 98.916 501.071 96.48C505.015 94.044 508.089 90.506 510.293 85.866H547.007C543.991 99.902 537.263 111.038 526.823 119.274C516.383 127.394 503.507 131.454 488.195 131.454C476.131 131.454 465.459 128.844 456.179 123.624C446.899 118.288 439.707 110.922 434.603 101.526C429.615 92.014 427.121 81.168 427.121 68.988ZM639.368 131.802C627.884 131.802 617.328 129.134 607.7 123.798C598.072 118.346 590.416 110.864 584.732 101.352C579.164 91.724 576.38 80.878 576.38 68.814C576.38 56.75 579.164 45.962 584.732 36.45C590.416 26.822 598.072 19.34 607.7 14.004C617.328 8.66798 627.884 5.99998 639.368 5.99998C650.968 5.99998 661.524 8.66798 671.036 14.004C680.664 19.34 688.262 26.822 693.83 36.45C699.398 45.962 702.182 56.75 702.182 68.814C702.182 80.878 699.398 91.724 693.83 101.352C688.262 110.864 680.664 118.346 671.036 123.798C661.408 129.134 650.852 131.802 639.368 131.802ZM639.368 100.134C648.068 100.134 654.912 97.292 659.9 91.608C665.004 85.924 667.556 78.326 667.556 68.814C667.556 59.07 665.004 51.414 659.9 45.846C654.912 40.162 648.068 37.32 639.368 37.32C630.552 37.32 623.65 40.162 618.662 45.846C613.674 51.414 611.18 59.07 611.18 68.814C611.18 78.442 613.674 86.098 618.662 91.782C623.65 97.35 630.552 100.134 639.368 100.134ZM878.115 7.91398V130.584H844.011V62.898L820.869 130.584H792.333L769.017 62.376V130.584H734.913V7.91398H776.151L806.949 87.606L837.051 7.91398H878.115ZM949.032 35.232V55.242H988.182V81.168H949.032V103.266H993.402V130.584H914.928V7.91398H993.402V35.232H949.032ZM340.94 164.914V287.584H306.836V238.342H265.25V287.584H231.146V164.914H265.25V211.024H306.836V164.914H340.94ZM436.668 288.802C425.184 288.802 414.628 286.134 405 280.798C395.372 275.346 387.716 267.864 382.032 258.352C376.464 248.724 373.68 237.878 373.68 225.814C373.68 213.75 376.464 202.962 382.032 193.45C387.716 183.822 395.372 176.34 405 171.004C414.628 165.668 425.184 163 436.668 163C448.268 163 458.824 165.668 468.336 171.004C477.964 176.34 485.562 183.822 491.13 193.45C496.698 202.962 499.482 213.75 499.482 225.814C499.482 237.878 496.698 248.724 491.13 258.352C485.562 267.864 477.964 275.346 468.336 280.798C458.708 286.134 448.152 288.802 436.668 288.802ZM436.668 257.134C445.368 257.134 452.212 254.292 457.2 248.608C462.304 242.924 464.856 235.326 464.856 225.814C464.856 216.07 462.304 208.414 457.2 202.846C452.212 197.162 445.368 194.32 436.668 194.32C427.852 194.32 420.95 197.162 415.962 202.846C410.974 208.414 408.48 216.07 408.48 225.814C408.48 235.442 410.974 243.098 415.962 248.782C420.95 254.35 427.852 257.134 436.668 257.134ZM675.415 164.914V287.584H641.311V219.898L618.169 287.584H589.633L566.317 219.376V287.584H532.213V164.914H573.451L604.249 244.606L634.351 164.914H675.415ZM746.332 192.232V212.242H785.483V238.168H746.332V260.266H790.703V287.584H712.228V164.914H790.703V192.232H746.332Z" fill="#FFE032"/>
</g>
<defs>
<filter id="filter0_dg_6_313" x="0" y="0" width="999.402" height="294.802" filterUnits="userSpaceOnUse" color-interpolation-filters="sRGB">
<feFlood flood-opacity="0" result="BackgroundImageFix"/>
<feColorMatrix in="SourceAlpha" type="matrix" values="0 0 0 0 0 0 0 0 0 0 0 0 0 0 0 0 0 0 127 0" result="hardAlpha"/>
<feOffset/>
<feGaussianBlur stdDeviation="3"/>
<feComposite in2="hardAlpha" operator="out"/>
<feColorMatrix type="matrix" values="0 0 0 0 1 0 0 0 0 1 0 0 0 0 1 0 0 0 1 0"/>
<feBlend mode="normal" in2="BackgroundImageFix" result="effect1_dropShadow_6_313"/>
<feBlend mode="normal" in="SourceGraphic" in2="effect1_dropShadow_6_313" result="shape"/>
<feTurbulence type="fractalNoise" baseFrequency="0.16347379982471466 0.16347379982471466" numOctaves="3" seed="5367" />
<feDisplacementMap in="shape" scale="9.3515644073486328" xChannelSelector="R" yChannelSelector="G" result="displacedImage" width="100%" height="100%" />
<feMerge result="effect2_texture_6_313">
<feMergeNode in="displacedImage"/>
</feMerge>
</filter>
</defs>
</svg>
